<svg width="20" height="20" viewBox="0 0 20 20" fill="none" xmlns="http://www.w3.org/2000/svg">
<path d="M14.6667 2.8335L13.0573 17.5002H6.60934L5 2.8335H14.6667Z" fill="#4482C3"/>
<path d="M6 0.166748H13.6667C14.0349 0.166748 14.3334 0.465225 14.3334 0.833428V2.16675H5.33336V0.833389C5.33332 0.465225 5.6318 0.166748 6 0.166748Z" fill="#E6E7E8"/>
<path d="M5 1.5H14.6667C15.0349 1.5 15.3334 1.79848 15.3334 2.16668V2.83336C15.3334 3.01746 15.1841 3.16668 15 3.16668H4.66668C4.48258 3.16668 4.33336 3.01742 4.33336 2.83336V2.16668C4.33332 1.79848 4.6318 1.5 5 1.5Z" fill="#D1D4D1"/>
<path d="M12.6667 13.8335V16.8335H11.1367C11.0493 16.8342 10.9656 16.8688 10.9034 16.9302L9.33332 18.5002L7.76332 16.9302C7.70105 16.8688 7.61738 16.8342 7.53 16.8335H2V13.8335H12.6667Z" fill="#14A085"/>
<path d="M12.6667 12.5035C12.6479 12.5007 12.6289 12.4996 12.61 12.5001H2C1.72215 12.5003 1.45691 12.6161 1.26785 12.8197C1.07879 13.0233 0.982967 13.2963 1.00332 13.5735C1.06051 14.109 1.51816 14.5117 2.05664 14.5001H12.6666C12.9445 14.4999 13.2097 14.3842 13.3988 14.1806C13.5879 13.977 13.6837 13.7039 13.6633 13.4268C13.6096 12.9127 13.1834 12.5179 12.6667 12.5035Z" fill="#804537"/>
<path d="M12.6667 10.1667V12.5034C12.6479 12.5007 12.6289 12.4996 12.61 12.5001H7.80332C7.71594 12.5008 7.63227 12.5355 7.57 12.5968L5.66668 14.5001L3.76336 12.5967C3.70109 12.5354 3.61742 12.5008 3.53004 12.5001H2V10.1667H12.6667Z" fill="#F0C419"/>
<path d="M13.3333 10.8335H1.33332C1.14922 10.8335 1 10.6843 1 10.5002V10.1669C1 9.28279 1.35117 8.43494 1.97633 7.80982C2.60148 7.18471 3.4493 6.8335 4.33336 6.8335H10.3334C12.1743 6.8335 13.6667 8.32588 13.6667 10.1668V10.5001C13.6667 10.6843 13.5174 10.8335 13.3333 10.8335Z" fill="#F29C1F"/>
<path d="M13.6667 16.5001V17.5001C13.6667 18.6046 12.7712 19.5001 11.6667 19.5001H3C1.89543 19.5001 1 18.6046 1 17.5001V16.5001C1 16.316 1.14926 16.1667 1.33332 16.1667H7.53C7.61738 16.1675 7.70105 16.2021 7.76332 16.2634L9.33332 17.8334L10.9033 16.2634C10.9656 16.2021 11.0493 16.1675 11.1366 16.1667H13.3333C13.5174 16.1667 13.6667 16.316 13.6667 16.5001Z" fill="#F29C1F"/>
<path d="M4.66668 8.16675H4.33336C4.14926 8.16675 4.00004 8.31601 4.00004 8.50007C4.00004 8.68417 4.1493 8.83339 4.33336 8.83339H4.66668C4.85078 8.83339 5 8.68413 5 8.50007C5 8.31597 4.85074 8.16675 4.66668 8.16675Z" fill="#E57E25"/>
<path d="M6.66668 8.8335H6.33336C6.14926 8.8335 6.00004 8.98275 6.00004 9.16682C6.00004 9.35092 6.1493 9.50014 6.33336 9.50014H6.66668C6.85078 9.50014 7 9.35088 7 9.16682C7 8.98275 6.85078 8.8335 6.66668 8.8335Z" fill="#E57E25"/>
<path d="M10.6667 8.8335H10.3334C10.1493 8.8335 10 8.98275 10 9.16682C10 9.35092 10.1493 9.50014 10.3334 9.50014H10.6667C10.8508 9.50014 11 9.35088 11 9.16682C11 8.98275 10.8508 8.8335 10.6667 8.8335Z" fill="#E57E25"/>
<path d="M8.66668 8.16675H8.33336C8.14926 8.16675 8.00004 8.31601 8.00004 8.50007C8.00004 8.68417 8.14926 8.83339 8.33336 8.83339H8.66668C8.85078 8.83339 9 8.68413 9 8.50007C9 8.31597 8.85074 8.16675 8.66668 8.16675Z" fill="#E57E25"/>
<path d="M9.66668 10.84C9.62668 10.8366 9.59 10.8333 9.55 10.8333H9.26332C9.18648 10.8331 9.1134 10.8666 9.0634 10.925C9.0134 10.9834 8.99144 11.0607 9.00332 11.1366L10.283 19.5H17.713L18.9963 11.1333C19.0075 11.0573 18.9847 10.9802 18.934 10.9224C18.8833 10.8647 18.8098 10.8321 18.733 10.8333H18.4497C18.2964 10.8332 18.1443 10.8592 17.9997 10.91L9.66668 10.84Z" fill="#E64C3C"/>
<path d="M14.6696 13.67C14.1072 13.7605 13.5321 13.7356 12.9796 13.5967L13 13.5V7.76C13.0002 7.61648 13.1165 7.5002 13.26 7.5H14.4067C14.5502 7.5002 14.6665 7.61648 14.6667 7.76V13.6467L14.6696 13.67Z" fill="#F0C419"/>
<path d="M11.3333 9.5V12.5833C11.0982 12.3046 10.9102 11.9893 10.7766 11.65C10.5893 11.1921 10.1599 10.8788 9.66664 10.84V9.76C9.66684 9.61648 9.78313 9.5002 9.92664 9.5H11.3333Z" fill="#F0C419"/>
<path d="M13 8.16675V13.5001L12.98 13.5967H12.9767C12.3343 13.4441 11.7582 13.0888 11.3334 12.5834V8.42675C11.3336 8.28323 11.4498 8.16694 11.5934 8.16675H13Z" fill="#F3D55B"/>
<path d="M16.3667 12.8867C15.8912 13.3101 15.3007 13.5828 14.67 13.6701L14.6667 13.6467V8.16675H16C16.1841 8.16675 16.3333 8.31601 16.3333 8.50007V12.8467L16.3667 12.8867Z" fill="#F3D55B"/>
<path d="M18 9.42675V10.9101C17.6467 11.0334 17.3636 11.3031 17.2233 11.6501C17.0391 12.1231 16.7468 12.5466 16.37 12.8867H16.3667L16.3334 12.8467V9.16675H17.74C17.8835 9.1669 17.9998 9.28323 18 9.42675Z" fill="#F0C419"/>
<path d="M13.833 18.1667C14.6614 18.1667 15.333 17.4952 15.333 16.6667C15.333 15.8383 14.6614 15.1667 13.833 15.1667C13.0046 15.1667 12.333 15.8383 12.333 16.6667C12.333 17.4952 13.0046 18.1667 13.833 18.1667Z" fill="#E6E7E8"/>
<path d="M19.6667 19.8334H0.33332C0.149258 19.8334 0 19.6842 0 19.5001C0 19.316 0.149258 19.1667 0.33332 19.1667H19.6666C19.8507 19.1667 20 19.316 20 19.5001C20 19.6842 19.8508 19.8334 19.6667 19.8334Z" fill="#804537"/>
</svg>
