<svg width="16" height="4" viewBox="0 0 16 4" fill="none" xmlns="http://www.w3.org/2000/svg">
<path d="M1.83366 0.333328C2.27569 0.333328 2.69961 0.508923 3.01217 0.821484C3.32473 1.13404 3.50033 1.55797 3.50033 1.99999C3.50033 2.44202 3.32473 2.86595 3.01217 3.17851C2.69961 3.49107 2.27569 3.66666 1.83366 3.66666C1.39163 3.66666 0.967708 3.49107 0.655147 3.17851C0.342587 2.86595 0.166992 2.44202 0.166992 1.99999C0.166992 1.55797 0.342587 1.13404 0.655147 0.821484C0.967708 0.508923 1.39163 0.333328 1.83366 0.333328ZM7.66699 0.333328C8.10902 0.333328 8.53294 0.508923 8.8455 0.821484C9.15806 1.13404 9.33366 1.55797 9.33366 1.99999C9.33366 2.44202 9.15806 2.86595 8.8455 3.17851C8.53294 3.49107 8.10902 3.66666 7.66699 3.66666C7.22496 3.66666 6.80104 3.49107 6.48848 3.17851C6.17592 2.86595 6.00033 2.44202 6.00033 1.99999C6.00033 1.55797 6.17592 1.13404 6.48848 0.821484C6.80104 0.508923 7.22496 0.333328 7.66699 0.333328ZM13.5003 0.333328C13.9424 0.333328 14.3663 0.508923 14.6788 0.821484C14.9914 1.13404 15.167 1.55797 15.167 1.99999C15.167 2.44202 14.9914 2.86595 14.6788 3.17851C14.3663 3.49107 13.9424 3.66666 13.5003 3.66666C13.0583 3.66666 12.6344 3.49107 12.3218 3.17851C12.0093 2.86595 11.8337 2.44202 11.8337 1.99999C11.8337 1.55797 12.0093 1.13404 12.3218 0.821484C12.6344 0.508923 13.0583 0.333328 13.5003 0.333328Z" fill="black"/>
</svg>
