<svg width="16" height="16" viewBox="0 0 16 16" fill="none" xmlns="http://www.w3.org/2000/svg">
<path d="M4.83301 2.84375L7.64551 5.65625H12.2191V6.59375H8.58301L9.52051 7.53125H12.2191V8.46875H10.458L11.3955 9.40625H12.2191V10.2299L15.1455 13.1562H16.0004V2.84375H4.83301Z" fill="#4284F3"/>
<path d="M0.662844 0L0 0.662844L2.18091 2.84375H0V12.8816L2.84375 15.6941V13.1562H12.4934L15.3372 16L16 15.3372L0.662844 0ZM7.80591 8.46875H3.78125V7.53125H6.86841L7.80591 8.46875ZM5.93091 6.59375H3.78125V5.65625H4.99341L5.93091 6.59375ZM3.78125 10.3438V9.40625H8.74341L9.68091 10.3438H3.78125Z" fill="#4284F3"/>
</svg>
