<svg width="20" height="20" viewBox="0 0 20 20" fill="none" xmlns="http://www.w3.org/2000/svg">
<path d="M4.75049 12.0788C5.62549 11.2038 5.82861 10.0163 5.23486 9.40692C4.64111 8.79755 3.43799 9.0163 2.56299 9.8913C1.68799 10.7663 0.703613 12.735 1.31299 13.3288C1.90674 13.9382 2.98486 13.8444 4.75049 12.0788Z" fill="#253542"/>
<path d="M2.56337 10.8288C3.43837 9.9538 4.62587 9.75067 5.23525 10.3444C5.36025 10.4694 5.454 10.6257 5.5165 10.8132C5.65712 10.2663 5.579 9.75067 5.23525 9.40692C4.62587 8.79755 3.43837 9.0163 2.56337 9.8913C1.75087 10.7038 0.844624 12.4382 1.204 13.1725C1.40712 12.36 2.0165 11.3757 2.56337 10.8288Z" fill="#2B4753"/>
<path d="M2.10977 13.9065C1.68789 13.9065 1.35977 13.7346 1.14102 13.5003C0.703519 13.0628 0.906644 12.2346 1.15664 11.6253C1.43789 10.9378 1.92227 10.1878 2.39102 9.73464C2.84414 9.28151 3.39102 8.96901 3.95352 8.87526C4.53164 8.76589 5.04727 8.90651 5.39102 9.25026C6.09414 9.95339 5.87539 11.2971 4.90664 12.2503C3.67227 13.5003 2.76602 13.9065 2.10977 13.9065ZM4.32852 9.29714C4.23477 9.29714 4.14102 9.31276 4.03164 9.32839C3.57852 9.40651 3.10977 9.67214 2.71914 10.0628C2.29727 10.4846 1.85977 11.1721 1.59414 11.8128C1.32852 12.469 1.28164 12.9846 1.46914 13.1878C2.23477 13.9534 3.57852 12.9378 4.57852 11.9378C5.35977 11.1565 5.56289 10.1096 5.06289 9.59401C4.87539 9.39089 4.62539 9.29714 4.32852 9.29714Z" fill="black"/>
<path d="M15.3913 12.0788C14.5163 11.2038 14.3132 10.0163 14.9069 9.40692C15.5163 8.79755 16.7038 9.0163 17.5788 9.8913C18.4538 10.7663 19.4382 12.735 18.8288 13.3288C18.2351 13.9382 17.1569 13.8444 15.3913 12.0788Z" fill="#253542"/>
<path d="M14.9062 10.1882C15.5156 9.5788 16.703 9.79755 17.578 10.6726C18.1562 11.2507 18.7812 12.2976 18.9687 13.1257C19.2499 12.3601 18.3749 10.6726 17.578 9.8913C16.703 9.0163 15.5156 8.81318 14.9062 9.40693C14.5937 9.71943 14.4999 10.2038 14.6093 10.7194C14.6718 10.5163 14.7656 10.3288 14.9062 10.1882Z" fill="#2B4753"/>
<path d="M18.0315 13.9065C17.3909 13.9065 16.4846 13.5003 15.2346 12.2503C14.7815 11.7971 14.469 11.2503 14.3753 10.6878C14.2659 10.1096 14.4065 9.59401 14.7503 9.25026C15.094 8.90651 15.6096 8.76589 16.1878 8.87526C16.7346 8.96901 17.2971 9.28151 17.7503 9.73464C18.219 10.2034 18.6878 10.9378 18.9846 11.6253C19.2346 12.2346 19.4534 13.0628 19.0003 13.5003C18.7659 13.719 18.4534 13.9065 18.0315 13.9065ZM15.8128 9.29714C15.5159 9.29714 15.2503 9.39089 15.0784 9.57839C14.5628 10.094 14.7815 11.1409 15.5628 11.9221C16.5628 12.9221 17.9065 13.9378 18.6721 13.1721C18.8596 12.9846 18.8128 12.4534 18.5471 11.7971C18.2815 11.1565 17.844 10.469 17.4221 10.0471C17.0315 9.65651 16.5628 9.40651 16.1096 9.31276C16.0003 9.31276 15.9065 9.29714 15.8128 9.29714Z" fill="black"/>
<path d="M7.78125 19.0625C8.80815 19.0625 9.64062 18.6707 9.64062 18.1875C9.64062 17.7043 8.80815 17.3125 7.78125 17.3125C6.75435 17.3125 5.92188 17.7043 5.92188 18.1875C5.92188 18.6707 6.75435 19.0625 7.78125 19.0625Z" fill="#FFD81A"/>
<path d="M7.78125 17.3125C7.125 17.3125 6.54688 17.4687 6.21875 17.7187C7.09375 18.0469 8.20313 18.2188 9.64063 18.25C9.64063 18.2344 9.64063 18.2187 9.64063 18.2031C9.64063 17.7031 8.8125 17.3125 7.78125 17.3125Z" fill="#FFA227"/>
<path d="M7.78125 19.2969C6.59375 19.2969 5.6875 18.8125 5.6875 18.1875C5.6875 17.5469 6.59375 17.0781 7.78125 17.0781C8.96875 17.0781 9.875 17.5625 9.875 18.1875C9.875 18.8281 8.98437 19.2969 7.78125 19.2969ZM7.78125 17.5469C6.78125 17.5469 6.15625 17.9219 6.15625 18.1875C6.15625 18.4531 6.79687 18.8281 7.78125 18.8281C8.76562 18.8281 9.40625 18.4531 9.40625 18.1875C9.40625 17.9219 8.78125 17.5469 7.78125 17.5469Z" fill="black"/>
<path d="M12.2187 19.0625C13.2457 19.0625 14.0781 18.6707 14.0781 18.1875C14.0781 17.7043 13.2457 17.3125 12.2187 17.3125C11.1918 17.3125 10.3594 17.7043 10.3594 18.1875C10.3594 18.6707 11.1918 19.0625 12.2187 19.0625Z" fill="#FFD81A"/>
<path d="M12.2187 17.3125C11.1875 17.3125 10.3594 17.7031 10.3594 18.1875V18.2344C11.7812 18.2031 12.9062 18.0312 13.7812 17.7187C13.4531 17.4687 12.875 17.3125 12.2187 17.3125Z" fill="#FFA227"/>
<path d="M12.2187 19.2969C11.0312 19.2969 10.125 18.8125 10.125 18.1875C10.125 17.5469 11.0312 17.0781 12.2187 17.0781C13.4062 17.0781 14.3125 17.5625 14.3125 18.1875C14.3125 18.8281 13.4062 19.2969 12.2187 19.2969ZM12.2187 17.5469C11.2187 17.5469 10.5937 17.9219 10.5937 18.1875C10.5937 18.4531 11.2344 18.8281 12.2187 18.8281C13.2031 18.8281 13.8437 18.4531 13.8437 18.1875C13.8437 17.9219 13.2031 17.5469 12.2187 17.5469Z" fill="black"/>
<path d="M16.7969 10.8281C16.7969 15.1719 15.9375 17.625 10 17.625C4.09375 17.625 3.20312 15.1719 3.20312 10.8281C3.20312 6.48438 4.8125 1.9375 10 1.9375C15.6406 1.9375 16.7969 6.48438 16.7969 10.8281Z" fill="#253542"/>
<path d="M10 16.8281C4.29688 16.8281 3.28125 14.5469 3.21875 10.4844V10.8125C3.21875 15.1562 4.10938 17.6094 10.0156 17.6094C15.9531 17.6094 16.8125 15.1562 16.8125 10.8125C16.8125 10.6875 16.8125 10.5781 16.8125 10.4531C16.7344 14.5469 15.7344 16.8281 10 16.8281Z" fill="#0F171C"/>
<path d="M10 3.65625C15.2812 3.65625 16.625 7.64063 16.7812 11.7031C16.7969 11.4219 16.7969 11.125 16.7969 10.8125C16.7969 6.46875 15.6562 1.92188 10 1.92188C4.8125 1.92188 3.20312 6.46875 3.20312 10.8125C3.20312 11.1406 3.20313 11.4531 3.21875 11.7656C3.40625 7.67188 5.125 3.65625 10 3.65625Z" fill="#2B4753"/>
<path d="M10 17.8438C7.09375 17.8438 5.26562 17.25 4.20312 16C3.125 14.6875 2.96875 12.7344 2.96875 10.8281C2.96875 9.07813 3.23437 6.59375 4.45312 4.625C5.67188 2.6875 7.53125 1.70312 10 1.70312C12.6406 1.70312 14.5625 2.6875 15.7188 4.625C16.5938 6.125 17.0312 8.14062 17.0312 10.8125C17.0312 15.4844 15.9375 17.8438 10 17.8438ZM10 2.17188C4.07812 2.17188 3.4375 8.21875 3.4375 10.8281C3.4375 15.2656 4.42187 17.3906 10 17.3906C15.5781 17.3906 16.5625 15.2812 16.5625 10.8281C16.5625 5 14.4062 2.17188 10 2.17188Z" fill="black"/>
<path d="M15.1562 8.875C15.2031 8.67187 15.2188 8.48437 15.2188 8.28125C15.2188 6.57812 13.8281 5.1875 12.125 5.1875C11.9531 5.1875 11.7969 5.20312 11.625 5.23437C11.5469 5.25 11.4688 5.26562 11.3906 5.28125C11.2656 5.3125 11.125 5.35937 11 5.40625H10.9844C10.9219 5.42187 10.875 5.45312 10.8125 5.48437H10.7969C10.7344 5.51562 10.6875 5.53125 10.6406 5.5625H10.625C10.5781 5.59375 10.5156 5.625 10.4688 5.65625C10.4688 5.65625 10.4688 5.65625 10.4531 5.65625C10.3281 5.73438 10.2187 5.82813 10.0937 5.92188C10.0469 5.95313 10.0156 5.98437 9.96875 6.03125C9.57812 5.67187 9.10938 5.39062 8.5625 5.26562C8.32812 5.21875 8.09375 5.1875 7.84375 5.1875C7.67188 5.1875 7.51562 5.20312 7.34375 5.23437C6.76562 5.32812 6.25 5.57812 5.82812 5.9375C5.17187 6.5 4.75 7.34375 4.75 8.28125C4.75 8.9375 4.95313 9.54687 5.29688 10.0312C4.14063 13.4062 5.79688 16.9531 9.95313 16.9531C14.1094 16.9531 15.7812 13.4062 14.6094 10.0312C14.8906 9.6875 15.0625 9.29688 15.1562 8.875Z" fill="#F2F2F2"/>
<path d="M10 17.1875C8.14063 17.1875 6.59375 16.4688 5.67187 15.1719C4.70312 13.8125 4.48437 11.9062 5.07812 10.0625C4.73437 9.53125 4.54688 8.90625 4.54688 8.26563C4.54688 7.29688 4.96875 6.375 5.70312 5.73438C6.17188 5.34375 6.73438 5.07812 7.32813 4.98438C7.73438 4.92187 8.20312 4.9375 8.625 5.03125C9.125 5.15625 9.57812 5.375 9.96875 5.70313C10.0781 5.60938 10.1875 5.53125 10.3125 5.45313C10.375 5.40625 10.4375 5.375 10.5 5.34375L10.5156 5.32812C10.5781 5.29687 10.625 5.26563 10.6875 5.23438L10.7031 5.21875C10.7656 5.1875 10.8281 5.17188 10.8906 5.14063C11.0469 5.07813 11.1875 5.03125 11.3125 5C11.3906 4.98438 11.4688 4.96875 11.5625 4.95313C11.7344 4.92188 11.9063 4.90625 12.0938 4.90625C13.9219 4.90625 15.4219 6.39063 15.4219 8.23438C15.4219 8.45313 15.4063 8.67188 15.3594 8.875C15.2813 9.28125 15.125 9.67187 14.8906 10.0156C15.5 11.8594 15.2812 13.7656 14.2969 15.125C13.4062 16.4688 11.8594 17.1875 10 17.1875ZM7.875 5.42188C7.71875 5.42188 7.5625 5.4375 7.42188 5.45313C6.90625 5.53125 6.42187 5.76563 6.03125 6.09375C5.39062 6.64062 5.03125 7.42188 5.03125 8.26563C5.03125 8.84375 5.20312 9.40625 5.54687 9.89062C5.59375 9.95312 5.59375 10.0312 5.57812 10.0937C4.98438 11.8281 5.15625 13.625 6.0625 14.8906C6.90625 16.0938 8.26563 16.7188 10 16.7188C11.7344 16.7188 13.0938 16.0938 13.9531 14.9062C14.8594 13.6406 15.0469 11.8437 14.4375 10.1094V10.0937C14.4219 10.0312 14.4375 9.95312 14.4688 9.89062C14.6875 9.5625 14.8438 9.21875 14.9219 8.82812C14.9531 8.64062 14.9844 8.45312 14.9844 8.28125C14.9844 6.70312 13.7031 5.42188 12.125 5.42188C11.9688 5.42188 11.8125 5.4375 11.6719 5.45313C11.5938 5.46875 11.5313 5.48438 11.4688 5.5C11.3438 5.53125 11.2344 5.5625 11.1094 5.60938C11.0469 5.64063 10.9844 5.65625 10.9375 5.6875H10.9219C10.875 5.71875 10.8125 5.73438 10.7656 5.76563L10.75 5.78125C10.7031 5.8125 10.6563 5.82813 10.6094 5.85938C10.4844 5.9375 10.375 6.01562 10.2813 6.10937C10.2344 6.14062 10.2031 6.17188 10.1719 6.20313C10.0781 6.28125 9.9375 6.28125 9.84375 6.20313C9.48438 5.85938 9.03125 5.60938 8.54688 5.5C8.32812 5.4375 8.09375 5.42188 7.875 5.42188Z" fill="black"/>
<path d="M12.5 10C12.7589 10 12.9688 9.79013 12.9688 9.53125C12.9688 9.27237 12.7589 9.0625 12.5 9.0625C12.2411 9.0625 12.0312 9.27237 12.0312 9.53125C12.0312 9.79013 12.2411 10 12.5 10Z" fill="black"/>
<path d="M7.5 10C7.75888 10 7.96875 9.79013 7.96875 9.53125C7.96875 9.27237 7.75888 9.0625 7.5 9.0625C7.24112 9.0625 7.03125 9.27237 7.03125 9.53125C7.03125 9.79013 7.24112 10 7.5 10Z" fill="black"/>
<path d="M8.73431 11.2179C9.06244 10.7647 11.1249 10.7335 11.3906 11.2179C11.6562 11.7022 10.7343 13.046 10.0624 13.046C9.40619 13.046 8.40619 11.671 8.73431 11.2179Z" fill="#FFD81A"/>
<path d="M11.3432 11.8429C11.4526 11.5929 11.4839 11.3585 11.3901 11.2179C11.1245 10.7335 9.06199 10.7647 8.73386 11.2179C8.62449 11.3585 8.65574 11.6085 8.78074 11.8741C9.18699 11.4679 10.937 11.4366 11.3432 11.8429Z" fill="#FFEA55"/>
<path d="M10.0624 13.2808C9.51556 13.2808 8.92181 12.6714 8.62494 12.0933C8.40619 11.6714 8.37494 11.3121 8.54681 11.0777C8.85931 10.6558 9.90619 10.5933 10.4218 10.6402C10.8593 10.6714 11.4218 10.7808 11.5937 11.1089C11.7968 11.4839 11.5156 12.0464 11.3906 12.2652C11.0937 12.7496 10.5624 13.2808 10.0624 13.2808ZM10.1249 11.0933C9.49994 11.0933 9.01556 11.2339 8.93744 11.3589C8.90619 11.4058 8.90619 11.5933 9.04681 11.8746C9.29681 12.3589 9.78119 12.8121 10.0781 12.8121C10.3281 12.8121 10.7343 12.4527 10.9999 12.0152C11.2187 11.6558 11.2343 11.4058 11.1874 11.3277C11.1562 11.2652 10.9218 11.1402 10.3906 11.1089C10.2968 11.0933 10.2031 11.0933 10.1249 11.0933Z" fill="black"/>
</svg>
