<svg width="17" height="16" viewBox="0 0 17 16" fill="none" xmlns="http://www.w3.org/2000/svg">
<path fill-rule="evenodd" clip-rule="evenodd" d="M8.5 16C10.6217 16 12.6566 15.1571 14.1569 13.6569C15.6571 12.1566 16.5 10.1217 16.5 8C16.5 5.87827 15.6571 3.84344 14.1569 2.34315C12.6566 0.842855 10.6217 0 8.5 0C6.37827 0 4.34344 0.842855 2.84315 2.34315C1.34285 3.84344 0.5 5.87827 0.5 8C0.5 10.1217 1.34285 12.1566 2.84315 13.6569C4.34344 15.1571 6.37827 16 8.5 16ZM12.207 6.707C12.3892 6.5184 12.49 6.2658 12.4877 6.0036C12.4854 5.7414 12.3802 5.49059 12.1948 5.30518C12.0094 5.11977 11.7586 5.0146 11.4964 5.01233C11.2342 5.01005 10.9816 5.11084 10.793 5.293L7.5 8.586L6.207 7.293C6.0184 7.11084 5.7658 7.01005 5.5036 7.01233C5.2414 7.0146 4.99059 7.11977 4.80518 7.30518C4.61977 7.49059 4.5146 7.7414 4.51233 8.0036C4.51005 8.2658 4.61084 8.5184 4.793 8.707L6.793 10.707C6.98053 10.8945 7.23484 10.9998 7.5 10.9998C7.76516 10.9998 8.01947 10.8945 8.207 10.707L12.207 6.707Z" fill="white"/>
</svg>
