<svg width="20" height="20" viewBox="0 0 20 20" fill="none" xmlns="http://www.w3.org/2000/svg">
<path d="M2.82053 14.0088L2.50584 16.6138C2.49111 16.7247 2.50031 16.8375 2.53283 16.9445C2.56536 17.0516 2.62044 17.1504 2.69438 17.2344C2.76832 17.3184 2.8594 17.3855 2.96148 17.4313C3.06356 17.4772 3.17427 17.5006 3.28616 17.5C3.31949 17.5001 3.35279 17.498 3.38584 17.4938L5.99084 17.1791C6.53849 17.1097 7.04739 16.8597 7.43709 16.4688L14.1871 9.71875C14.2457 9.66015 14.2786 9.58068 14.2786 9.49781C14.2786 9.41495 14.2457 9.33548 14.1871 9.27688L10.724 5.81063C10.6654 5.75204 10.5859 5.71913 10.503 5.71913C10.4202 5.71913 10.3407 5.75204 10.2821 5.81063L3.53084 12.5625C3.13986 12.9522 2.88992 13.4611 2.82053 14.0088Z" fill="#4284F3"/>
<path d="M17.025 4.59032L15.4094 2.97469C15.259 2.82419 15.0804 2.7048 14.8838 2.62334C14.6872 2.54189 14.4765 2.49996 14.2638 2.49996C14.051 2.49996 13.8403 2.54189 13.6437 2.62334C13.4471 2.7048 13.2686 2.82419 13.1181 2.97469L11.6013 4.49157C11.5427 4.55017 11.5098 4.62964 11.5098 4.7125C11.5098 4.79537 11.5427 4.87484 11.6013 4.93344L15.0663 8.39844C15.1249 8.45703 15.2043 8.48994 15.2872 8.48994C15.3701 8.48994 15.4495 8.45703 15.5081 8.39844L17.025 6.88157C17.1755 6.73115 17.2949 6.55256 17.3764 6.35599C17.4578 6.15941 17.4997 5.94872 17.4997 5.73594C17.4997 5.52316 17.4578 5.31247 17.3764 5.1159C17.2949 4.91932 17.1755 4.74073 17.025 4.59032Z" fill="#4284F3"/>
<path d="M17.5 16.875C17.5 16.7092 17.4342 16.5503 17.3169 16.4331C17.1997 16.3158 17.0408 16.25 16.875 16.25H9.6875C9.52174 16.25 9.36277 16.3158 9.24556 16.4331C9.12835 16.5503 9.0625 16.7092 9.0625 16.875C9.0625 17.0408 9.12835 17.1997 9.24556 17.3169C9.36277 17.4342 9.52174 17.5 9.6875 17.5H16.875C17.0408 17.5 17.1997 17.4342 17.3169 17.3169C17.4342 17.1997 17.5 17.0408 17.5 16.875Z" fill="#4284F3"/>
</svg>
