<svg width="20" height="20" viewBox="0 0 20 20" fill="none" xmlns="http://www.w3.org/2000/svg">
<g clip-path="url(#clip0_4283_65191)">
<path d="M17.8016 6.58452C18.4051 4.60327 18.3383 2.50834 18.2172 1.28608C18.2038 1.14877 18.1608 1.01599 18.0912 0.896852C18.0216 0.777717 17.9271 0.675047 17.8141 0.595892C17.7011 0.516737 17.5723 0.462971 17.4366 0.438284C17.3008 0.413598 17.1614 0.418575 17.0277 0.452876C14.6652 1.06186 13.2648 2.08608 12.475 2.9017C11.6632 2.71603 10.8328 2.62428 10 2.62827C9.16725 2.62428 8.3368 2.71603 7.525 2.9017C6.73516 2.08608 5.33477 1.06186 2.97227 0.452876C2.83863 0.418575 2.69916 0.413598 2.56342 0.438284C2.42768 0.462971 2.29889 0.516737 2.18589 0.595892C2.0729 0.675047 1.97836 0.777717 1.90879 0.896852C1.83921 1.01599 1.79623 1.14877 1.78281 1.28608C1.66172 2.50834 1.59492 4.60327 2.19844 6.58452C1.00273 8.37866 0.429688 11.1458 0.429688 13.2626C0.429688 15.156 3.5875 19.5701 10 19.5701C16.4125 19.5701 19.5703 15.156 19.5703 13.2626C19.5703 11.1458 18.9973 8.37866 17.8016 6.58452Z" fill="#F29555"/>
<path d="M15.0195 11.8213C13.0402 11.8213 12.1855 13.7795 9.99961 13.7795C7.81367 13.7795 6.95898 11.8213 4.97969 11.8213C2.10898 11.8213 0.890625 14.2365 0.753906 14.5275C1.7082 16.6369 4.77266 19.5705 9.99961 19.5705C15.2266 19.5705 18.291 16.6369 19.2453 14.5275C19.1086 14.2365 17.8902 11.8213 15.0195 11.8213Z" fill="#F7E3CD"/>
<path d="M9.96055 18.1141C5.62891 18.1141 2.57148 16.3863 0.765234 14.5039L0.753906 14.5273C1.7082 16.6367 4.77266 19.5703 9.99961 19.5703C15.2266 19.5703 18.291 16.6367 19.2453 14.5273C19.2371 14.5094 19.2242 14.4832 19.2062 14.4492C17.4078 16.3535 14.3332 18.1141 9.96055 18.1141Z" fill="#F2C59E"/>
<path d="M4.92191 3.81606C4.42816 3.29575 3.66488 2.51215 3.37035 2.31801C2.19848 1.54536 1.70629 2.55239 1.70629 2.55239C1.6809 3.67934 1.76527 5.08012 2.1559 6.43872C3.38637 5.21762 5.50473 4.13403 5.50473 4.13403C5.28193 4.09175 5.07805 3.98052 4.92191 3.81606Z" fill="#F7E3CD"/>
<path d="M15.0779 3.81606C15.5717 3.29575 16.335 2.51215 16.6295 2.31801C17.8014 1.54536 18.2936 2.55239 18.2936 2.55239C18.3189 3.67934 18.2346 5.08012 17.8439 6.43872C16.6135 5.21762 14.4951 4.13403 14.4951 4.13403C14.7179 4.09175 14.9218 3.98052 15.0779 3.81606Z" fill="#F7E3CD"/>
<path d="M8.11348 7.6793C8.11348 8.08242 7.70996 8.40937 7.2127 8.40937C6.71543 8.40937 6.31152 7.92617 6.31152 7.52305C6.31152 7.11992 6.71504 6.94922 7.2127 6.94922C7.71035 6.94922 8.11348 7.27617 8.11348 7.6793Z" fill="#F7E3CD"/>
<path d="M11.9473 7.6793C11.9473 8.08242 12.3508 8.40937 12.8484 8.40937C13.3461 8.40937 13.7504 7.92617 13.7504 7.52305C13.7504 7.11992 13.3469 6.94922 12.8496 6.94922C12.3523 6.94922 11.9473 7.27617 11.9473 7.6793Z" fill="#F7E3CD"/>
<path d="M10.0303 14.7119C10.0303 14.7119 9.06582 16.0705 7.33887 15.6568V15.7213C7.33887 15.7213 7.71973 17.5447 10.0002 17.5447C12.2807 17.5447 12.6611 15.7213 12.6611 15.7213V15.6709C10.9721 16.0389 10.0303 14.7119 10.0303 14.7119Z" fill="#AA0C18"/>
<path d="M18.2594 6.51366C18.8125 4.57381 18.7738 2.57342 18.6398 1.21952C18.6207 1.02542 18.5598 0.837765 18.4613 0.669421C18.3628 0.501078 18.229 0.356032 18.0692 0.244231C17.9094 0.132431 17.7273 0.056522 17.5354 0.0217125C17.3435 -0.0130971 17.1463 -0.00598384 16.9574 0.0425642C14.6137 0.64647 13.1797 1.65585 12.3598 2.45038C10.8025 2.13371 9.19748 2.13371 7.64023 2.45038C6.81992 1.65585 5.38633 0.64647 3.04258 0.0425642C2.85368 -0.00598384 2.65651 -0.0130971 2.4646 0.0217125C2.27269 0.056522 2.09059 0.132431 1.93077 0.244231C1.77096 0.356032 1.63721 0.501078 1.53872 0.669421C1.44023 0.837765 1.37931 1.02542 1.36016 1.21952C1.22617 2.57342 1.1875 4.57381 1.74063 6.51366C0.458594 8.5453 0 11.4082 0 13.2777C0 14.2965 0.78125 15.9832 2.5293 17.4547C3.9082 18.6156 6.32344 19.9996 10 19.9996C13.6766 19.9996 16.0938 18.6156 17.4707 17.4547C19.2188 15.9832 20 14.2965 20 13.2777C20 11.4082 19.5414 8.5453 18.2594 6.51366ZM17.1531 0.801549C17.232 0.780943 17.3143 0.777818 17.3945 0.792392C17.4747 0.806967 17.5507 0.838889 17.6172 0.885924C17.6846 0.932979 17.741 0.994077 17.7825 1.06502C17.8241 1.13596 17.8498 1.21505 17.8578 1.29686C17.8691 1.4117 17.8801 1.53905 17.8902 1.67616C17.8668 1.66835 17.8438 1.66053 17.8191 1.65389C17.3922 1.5367 16.9273 1.64374 16.4379 1.96639C16.1828 2.13436 15.6359 2.65936 14.8121 3.52694C14.7183 3.62668 14.5967 3.69605 14.4632 3.72612C14.3296 3.7562 14.19 3.7456 14.0625 3.69569C13.7039 3.55467 13.2535 3.31561 12.9789 2.94374C13.7375 2.23045 15.0391 1.34608 17.1531 0.801549ZM2.38281 0.885924C2.47693 0.819273 2.58936 0.783387 2.70469 0.783189C2.75318 0.783337 2.80147 0.789504 2.84844 0.801549C4.96094 1.34608 6.2625 2.23045 7.02148 2.94374C6.74805 3.31561 6.29648 3.55467 5.93789 3.69569C5.8101 3.74592 5.67019 3.75669 5.53622 3.72661C5.40225 3.69653 5.28038 3.62698 5.18633 3.52694C4.3625 2.65936 3.81562 2.13436 3.56055 1.96639C3.07109 1.64374 2.60625 1.5367 2.1793 1.65389C2.15469 1.66053 2.13164 1.66835 2.1082 1.67616C2.11836 1.53905 2.1293 1.4117 2.14062 1.29686C2.14886 1.21492 2.17478 1.13574 2.21659 1.0648C2.2584 0.993848 2.31512 0.93282 2.38281 0.885924ZM16.9652 16.8551C15.6867 17.932 13.4402 19.2156 10 19.2156C6.55977 19.2156 4.31328 17.932 3.03477 16.8551C1.55742 15.6109 0.784375 14.1137 0.784375 13.2777C0.784375 11.332 1.31016 8.58006 2.48477 6.8078C2.76257 6.47949 3.07418 6.18136 3.41445 5.91835C3.49759 5.85619 3.55263 5.76354 3.56747 5.6608C3.5823 5.55806 3.55571 5.45363 3.49355 5.37049C3.43139 5.28735 3.33875 5.23231 3.23601 5.21748C3.13327 5.20264 3.02884 5.22923 2.9457 5.29139C2.74271 5.44523 2.5495 5.61157 2.36719 5.78944C2.11367 4.67499 2.05469 3.55819 2.0668 2.64374C2.14513 2.53141 2.2591 2.44882 2.39023 2.40936C2.59023 2.3578 2.83906 2.42889 3.13242 2.62108C3.32773 2.74881 3.88242 3.28905 4.62148 4.06639C4.82269 4.28015 5.08341 4.4286 5.36992 4.49253C5.65643 4.55646 5.95553 4.53293 6.22852 4.42499C6.74258 4.22264 7.40703 3.85389 7.77969 3.22381C9.24675 2.92069 10.7603 2.92069 12.2273 3.22381C12.6 3.85389 13.2645 4.22264 13.7785 4.42499C14.0515 4.53293 14.3506 4.55646 14.6371 4.49253C14.9236 4.4286 15.1843 4.28015 15.3855 4.06639C16.1246 3.28866 16.6812 2.74842 16.8746 2.62108C17.1664 2.42889 17.4156 2.3578 17.6168 2.40936C17.7479 2.44887 17.8619 2.53145 17.9402 2.64374C17.9543 3.5578 17.8934 4.67499 17.6398 5.78944C17.4575 5.61157 17.2643 5.44523 17.0613 5.29139C17.0202 5.26049 16.9733 5.23799 16.9235 5.22519C16.8736 5.21239 16.8217 5.20953 16.7707 5.21679C16.7198 5.22404 16.6707 5.24126 16.6264 5.26747C16.5821 5.29367 16.5434 5.32835 16.5125 5.36952C16.4816 5.41068 16.4591 5.45753 16.4463 5.50739C16.4335 5.55725 16.4306 5.60915 16.4379 5.66011C16.4452 5.71107 16.4624 5.76011 16.4886 5.80442C16.5148 5.84873 16.5495 5.88744 16.5906 5.91835C16.9309 6.18146 17.2426 6.47972 17.5203 6.80819C18.6949 8.58006 19.2207 11.332 19.2207 13.2777C19.2156 14.1137 18.4426 15.6109 16.9652 16.8551Z" fill="black"/>
<path d="M6.19121 10.8531C6.75687 10.8531 7.21543 10.3946 7.21543 9.82891C7.21543 9.26325 6.75687 8.80469 6.19121 8.80469C5.62555 8.80469 5.16699 9.26325 5.16699 9.82891C5.16699 10.3946 5.62555 10.8531 6.19121 10.8531Z" fill="black"/>
<path d="M13.8689 8.80469C13.6664 8.80469 13.4684 8.86476 13.2999 8.9773C13.1315 9.08984 13.0002 9.2498 12.9227 9.43696C12.8452 9.62411 12.8249 9.83004 12.8644 10.0287C12.9039 10.2274 13.0015 10.4099 13.1447 10.5531C13.288 10.6964 13.4705 10.7939 13.6691 10.8334C13.8678 10.873 14.0737 10.8527 14.2609 10.7752C14.448 10.6976 14.608 10.5664 14.7206 10.3979C14.8331 10.2295 14.8932 10.0315 14.8932 9.82891C14.893 9.55733 14.785 9.29694 14.593 9.1049C14.4009 8.91287 14.1405 8.80489 13.8689 8.80469Z" fill="black"/>
<path d="M13.0465 15.1432C11.5882 15.7291 10.6754 14.8658 10.4203 14.5744V14.5146C10.8069 14.4327 11.1637 14.2464 11.4519 13.976C11.8308 13.6244 12.057 13.1795 12.057 12.7811C12.057 11.9756 11.1668 11.3447 10.0297 11.3447C8.89254 11.3447 8.00231 11.9756 8.00231 12.7811C8.00231 13.4889 8.70544 14.3252 9.63903 14.5146V14.574C9.38239 14.8678 8.4695 15.7295 7.01286 15.1432C6.96511 15.1231 6.91383 15.1127 6.86203 15.1126C6.81022 15.1125 6.75891 15.1227 6.71108 15.1426C6.66326 15.1626 6.61988 15.1918 6.58347 15.2286C6.54705 15.2655 6.51833 15.3092 6.49898 15.3573C6.47963 15.4053 6.47003 15.4568 6.47074 15.5086C6.47145 15.5604 6.48246 15.6115 6.50313 15.659C6.5238 15.7065 6.55371 15.7495 6.59112 15.7853C6.62854 15.8211 6.67271 15.8492 6.72106 15.8678C6.81676 15.9068 6.91051 15.9396 7.00231 15.9686C7.11408 16.3028 7.28752 16.6131 7.51364 16.8834C7.91403 17.3631 8.67145 17.9354 9.99958 17.9354C11.3277 17.9354 12.0847 17.3631 12.4851 16.8834C12.7065 16.6187 12.8775 16.3157 12.9894 15.9893C13.103 15.9562 13.2192 15.9157 13.3382 15.8678C13.4328 15.828 13.5079 15.7526 13.5473 15.658C13.5867 15.5633 13.5874 15.4569 13.5491 15.3618C13.5108 15.2667 13.4366 15.1904 13.3425 15.1495C13.2485 15.1086 13.1422 15.1063 13.0465 15.1432ZM9.99958 17.1541C8.78044 17.1541 8.19645 16.5682 7.92926 16.1248H7.98083C8.47695 16.1248 8.96473 15.9972 9.39723 15.7541C9.62642 15.6257 9.83895 15.4696 10.03 15.2893C10.2212 15.4695 10.4337 15.6256 10.6629 15.7541C11.0924 15.9955 11.5764 16.1231 12.0691 16.1248C12.0091 16.2246 11.9407 16.3192 11.8648 16.4076C11.4367 16.9033 10.8093 17.1541 9.99958 17.1541Z" fill="black"/>
</g>
<defs>
<clipPath id="clip0_4283_65191">
<rect width="20" height="20" fill="white"/>
</clipPath>
</defs>
</svg>
