<svg width="20" height="20" viewBox="0 0 20 20" fill="none" xmlns="http://www.w3.org/2000/svg">
<g clip-path="url(#clip0_5321_4428)">
<path d="M13.8107 18.9957H6.18928C6.18928 18.9957 7.48887 17.9999 7.48887 16.0547H12.5111C12.5111 17.9999 13.8107 18.9957 13.8107 18.9957Z" fill="#ADE7FF"/>
<path d="M12.5111 16.0547H11.371C11.371 17.9999 12.6706 18.9957 12.6706 18.9957H13.8107C13.8107 18.9957 12.5111 17.9999 12.5111 16.0547Z" fill="#82D2F5"/>
<path d="M19.3725 16.2575H0.627463C0.280937 16.2575 2.28882e-05 15.9768 2.28882e-05 15.6303V4.00781C2.28882e-05 3.66128 0.280937 3.38037 0.627463 3.38037H19.3725C19.7191 3.38037 20 3.66128 20 4.00781V15.6303C20 15.9768 19.7191 16.2575 19.3725 16.2575Z" fill="#685C79"/>
<path d="M19.3725 3.38037H18.1654C18.5119 3.38037 18.7927 3.66128 18.7927 4.00781V15.6303C18.7927 15.9768 18.5119 16.2575 18.1654 16.2575H19.3725C19.7191 16.2575 20 15.9768 20 15.6303V4.00781C20 3.66128 19.7191 3.38037 19.3725 3.38037Z" fill="#594F69"/>
<path d="M1.2073 14.8942V4.7439C1.2073 4.65753 1.27718 4.58765 1.36355 4.58765H18.6365C18.7228 4.58765 18.7927 4.65753 18.7927 4.7439V14.8942C18.7927 14.9804 18.7228 15.0504 18.6365 15.0504H1.36355C1.27718 15.0504 1.2073 14.9804 1.2073 14.8942Z" fill="#ADE7FF"/>
<path d="M15.1912 20H4.80897C4.47557 20 4.20534 19.7298 4.20534 19.3964C4.20534 19.063 4.47557 18.7927 4.80897 18.7927H15.1912C15.5246 18.7927 15.7948 19.063 15.7948 19.3964C15.7948 19.7298 15.5246 20 15.1912 20Z" fill="#685C79"/>
<path d="M15.1912 18.7927H13.9789C14.3121 18.7927 14.5824 19.0631 14.5824 19.3964C14.5824 19.7298 14.3121 20 13.9789 20H15.1912C15.5244 20 15.7948 19.7298 15.7948 19.3964C15.7948 19.063 15.5246 18.7927 15.1912 18.7927Z" fill="#594F69"/>
<path d="M16.0513 0.896605C16.0513 1.23001 15.7811 1.50024 15.4477 1.50024C15.1143 1.50024 14.844 1.23001 14.844 0.896605C14.844 0.563201 15.1143 0.292969 15.4477 0.292969C15.7811 0.292969 16.0513 0.563201 16.0513 0.896605Z" fill="#FF2C5C"/>
<path d="M10.6036 0.896605C10.6036 1.23001 10.3334 1.50024 10 1.50024C9.6666 1.50024 9.39637 1.23001 9.39637 0.896605C9.39637 0.563201 9.6666 0.292969 10 0.292969C10.3334 0.292969 10.6036 0.563201 10.6036 0.896605Z" fill="#FF2C5C"/>
<path d="M5.15596 0.896605C5.15596 1.23001 4.88573 1.50024 4.55232 1.50024C4.21892 1.50024 3.94868 1.23001 3.94868 0.896605C3.94868 0.563201 4.21892 0.292969 4.55232 0.292969C4.88573 0.292969 5.15596 0.563201 5.15596 0.896605Z" fill="#FF2C5C"/>
<path d="M16.3443 0.896605C16.3443 0.402221 15.9421 0 15.4477 0C14.9533 0 14.5511 0.402221 14.5511 0.896605C14.5511 1.28845 14.8038 1.62201 15.1547 1.74377V2.173H12.4397C12.2778 2.173 12.1468 2.30423 12.1468 2.46597V6.97356C12.1468 7.1353 12.2778 7.26653 12.4397 7.26653C12.6015 7.26653 12.7327 7.1353 12.7327 6.97356V2.75894H15.4477C15.6096 2.75894 15.7407 2.62786 15.7407 2.46597V1.74377C16.0916 1.62201 16.3443 1.28845 16.3443 0.896605ZM15.4477 1.20727C15.2763 1.20727 15.137 1.06796 15.137 0.896605C15.137 0.725249 15.2763 0.585936 15.4477 0.585936C15.619 0.585936 15.7584 0.725249 15.7584 0.896605C15.7584 1.06796 15.619 1.20727 15.4477 1.20727Z" fill="#594F69"/>
<path d="M10 0C9.50562 0 9.1034 0.402221 9.1034 0.896605C9.1034 1.28845 9.35609 1.62201 9.70704 1.74377V5.8261C9.70704 5.988 9.83826 6.11907 10 6.11907C10.1619 6.11907 10.293 5.988 10.293 5.8261V1.74377C10.6439 1.62201 10.8966 1.28845 10.8966 0.896605C10.8966 0.402221 10.4944 0 10 0ZM10 1.20727C9.82865 1.20727 9.68934 1.06796 9.68934 0.896605C9.68934 0.725249 9.82865 0.585936 10 0.585936C10.1714 0.585936 10.3107 0.725249 10.3107 0.896605C10.3107 1.06796 10.1714 1.20727 10 1.20727Z" fill="#594F69"/>
<path d="M7.56043 2.173H4.84529V1.74377C5.19624 1.62201 5.44893 1.28845 5.44893 0.896605C5.44893 0.402221 5.0467 0 4.55232 0C4.05794 0 3.65572 0.402221 3.65572 0.896605C3.65572 1.28845 3.9084 1.62201 4.25935 1.74377V2.46597C4.25935 2.62786 4.39058 2.75894 4.55232 2.75894H7.26746V6.97356C7.26746 7.1353 7.39854 7.26653 7.56043 7.26653C7.72218 7.26653 7.8534 7.1353 7.8534 6.97356V2.46597C7.8534 2.30423 7.72218 2.173 7.56043 2.173ZM4.55232 0.585936C4.72368 0.585936 4.86299 0.725249 4.86299 0.896605C4.86299 1.06796 4.72368 1.20727 4.55232 1.20727C4.38112 1.20727 4.24165 1.06796 4.24165 0.896605C4.24165 0.725249 4.38112 0.585936 4.55232 0.585936Z" fill="#594F69"/>
<path d="M13.9035 7.54582V12.1723C13.9035 12.2629 13.8516 12.345 13.77 12.3841L12.7145 12.8884L10.1012 14.1367C10.0691 14.1519 10.0343 14.1594 10 14.1594C9.96567 14.1594 9.93088 14.1519 9.89883 14.1367L6.23017 12.3841C6.14854 12.345 6.0965 12.2629 6.0965 12.1723V7.54582C6.0965 7.49882 6.11054 7.45427 6.13557 7.41688C6.1583 7.38209 6.19065 7.3531 6.23017 7.33448L8.88016 6.06847L9.89883 5.58171C9.96292 5.55089 10.0371 5.55089 10.1012 5.58171L13.77 7.33448C13.8093 7.3531 13.8418 7.38209 13.8644 7.41688C13.8895 7.45427 13.9035 7.49882 13.9035 7.54582Z" fill="#FF2C5C"/>
<path d="M10 9.26275V14.1593C9.96567 14.1593 9.93088 14.1518 9.89883 14.1366L6.23017 12.3839C6.14854 12.3449 6.0965 12.2628 6.0965 12.1721V7.54568C6.0965 7.49869 6.11054 7.45413 6.13557 7.41675L10 9.26275Z" fill="#4FB1F5"/>
<path d="M13.9035 7.54568V12.1721C13.9035 12.2628 13.8516 12.3449 13.77 12.3839L12.7145 12.8882L10.1012 14.1366C10.0691 14.1518 10.0343 14.1593 10 14.1593V9.26275L12.6961 7.97491L13.8644 7.41675C13.8895 7.45413 13.9035 7.49869 13.9035 7.54568Z" fill="#FFD659"/>
<path d="M13.8644 7.41688L12.6961 7.97505L8.88017 6.06847L9.89884 5.58171C9.96293 5.55089 10.0371 5.55089 10.1012 5.58171L13.77 7.33448C13.8094 7.3531 13.8419 7.38209 13.8644 7.41688Z" fill="#E62753"/>
<path d="M13.9035 7.54568V12.1721C13.9035 12.2628 13.8516 12.3449 13.77 12.3839L12.7145 12.8882L12.6961 7.97491L13.8644 7.41675C13.8895 7.45413 13.9035 7.49869 13.9035 7.54568Z" fill="#FFBD54"/>
</g>
<defs>
<clipPath id="clip0_5321_4428">
<rect width="20" height="20" fill="white"/>
</clipPath>
</defs>
</svg>
