<svg width="13" height="12" viewBox="0 0 13 12" fill="none" xmlns="http://www.w3.org/2000/svg">
<path d="M11.4998 6.83366H7.33317V11.0003C7.33317 11.4587 6.95817 11.8337 6.49984 11.8337C6.0415 11.8337 5.6665 11.4587 5.6665 11.0003V6.83366H1.49984C1.0415 6.83366 0.666504 6.45866 0.666504 6.00033C0.666504 5.54199 1.0415 5.16699 1.49984 5.16699H5.6665V1.00033C5.6665 0.541992 6.0415 0.166992 6.49984 0.166992C6.95817 0.166992 7.33317 0.541992 7.33317 1.00033V5.16699H11.4998C11.9582 5.16699 12.3332 5.54199 12.3332 6.00033C12.3332 6.45866 11.9582 6.83366 11.4998 6.83366Z" fill="white"/>
</svg>
