<svg width="192" height="268" viewBox="0 0 192 268" fill="none" xmlns="http://www.w3.org/2000/svg">
<path fill-rule="evenodd" clip-rule="evenodd" d="M101.25 118.186C101.25 116.943 100.243 115.936 99 115.936H87.75C86.5073 115.936 85.5 116.943 85.5 118.186V128.75C85.5 129.993 86.5073 131 87.75 131H99C100.243 131 101.25 129.993 101.25 128.75C101.25 126.141 101.25 120.796 101.25 118.186ZM94.1249 122.782L94.1251 121.25C94.1249 120.836 93.7889 120.5 93.3749 120.5C92.9611 120.5 92.6249 120.836 92.6251 121.25V122.782H90.75C90.336 122.782 90 123.118 90 123.532C90 123.946 90.336 124.282 90.75 124.282H92.6251V125.813C92.6249 126.227 92.9611 126.563 93.3749 126.563C93.7889 126.563 94.1249 126.227 94.1251 125.813V124.282H96C96.414 124.282 96.75 123.946 96.75 123.532C96.75 123.118 96.414 122.782 96 122.782H94.1249Z" fill="white"/>
<path fill-rule="evenodd" clip-rule="evenodd" d="M102 119.034V127.952L103.364 128.536C104.059 128.834 104.857 128.762 105.489 128.346C106.12 127.93 106.5 127.224 106.5 126.468V120.517C106.5 119.761 106.12 119.055 105.489 118.639C104.857 118.223 104.059 118.151 103.364 118.449L102 119.034Z" fill="white"/>
<path d="M39.6165 144.641V143.318H47.4964V144.641H44.3196V153.5H42.7884V144.641H39.6165ZM50.3017 153.669C49.8178 153.669 49.3803 153.58 48.9892 153.401C48.5981 153.218 48.2882 152.955 48.0595 152.61C47.8341 152.265 47.7214 151.843 47.7214 151.342C47.7214 150.911 47.8043 150.557 47.97 150.278C48.1357 150 48.3594 149.78 48.6412 149.617C48.9229 149.455 49.2377 149.332 49.5858 149.249C49.9338 149.166 50.2884 149.103 50.6497 149.06C51.1071 149.007 51.4783 148.964 51.7633 148.931C52.0484 148.895 52.2555 148.837 52.3848 148.757C52.514 148.678 52.5787 148.548 52.5787 148.369V148.335C52.5787 147.9 52.456 147.564 52.2108 147.325C51.9688 147.087 51.6075 146.967 51.127 146.967C50.6265 146.967 50.2321 147.078 49.9437 147.3C49.6587 147.519 49.4615 147.763 49.3521 148.031L47.9551 147.713C48.1208 147.249 48.3627 146.875 48.6809 146.589C49.0024 146.301 49.372 146.092 49.7896 145.963C50.2072 145.83 50.6464 145.764 51.1071 145.764C51.412 145.764 51.7351 145.801 52.0765 145.874C52.4212 145.943 52.7427 146.072 53.041 146.261C53.3426 146.45 53.5895 146.72 53.7818 147.072C53.974 147.42 54.0701 147.872 54.0701 148.429V153.5H52.6184V152.456H52.5588C52.4627 152.648 52.3185 152.837 52.1262 153.023C51.934 153.208 51.6871 153.362 51.3855 153.485C51.0839 153.608 50.7226 153.669 50.3017 153.669ZM50.6248 152.476C51.0358 152.476 51.3871 152.395 51.6788 152.232C51.9738 152.07 52.1975 151.858 52.35 151.596C52.5057 151.331 52.5836 151.047 52.5836 150.746V149.761C52.5306 149.814 52.4279 149.864 52.2754 149.911C52.1262 149.954 51.9556 149.992 51.7633 150.025C51.5711 150.055 51.3838 150.083 51.2015 150.109C51.0192 150.133 50.8668 150.152 50.7441 150.169C50.4558 150.205 50.1923 150.267 49.9537 150.353C49.7183 150.439 49.5294 150.563 49.3869 150.726C49.2477 150.885 49.1781 151.097 49.1781 151.362C49.1781 151.73 49.314 152.009 49.5858 152.197C49.8575 152.383 50.2039 152.476 50.6248 152.476ZM51.117 156.135C50.8618 156.135 50.6414 156.049 50.4558 155.876C50.2702 155.704 50.1774 155.495 50.1774 155.25C50.1774 155.005 50.2702 154.796 50.4558 154.624C50.6414 154.451 50.8618 154.365 51.117 154.365C51.3755 154.365 51.5959 154.451 51.7782 154.624C51.9638 154.796 52.0566 155.005 52.0566 155.25C52.0566 155.495 51.9638 155.704 51.7782 155.876C51.5959 156.049 51.3755 156.135 51.117 156.135ZM59.2667 153.654C58.5508 153.654 57.926 153.49 57.3924 153.162C56.8588 152.834 56.4445 152.375 56.1495 151.785C55.8545 151.195 55.707 150.505 55.707 149.717C55.707 148.924 55.8545 148.232 56.1495 147.638C56.4445 147.045 56.8588 146.585 57.3924 146.256C57.926 145.928 58.5508 145.764 59.2667 145.764C59.9826 145.764 60.6074 145.928 61.141 146.256C61.6746 146.585 62.0889 147.045 62.3839 147.638C62.6789 148.232 62.8263 148.924 62.8263 149.717C62.8263 150.505 62.6789 151.195 62.3839 151.785C62.0889 152.375 61.6746 152.834 61.141 153.162C60.6074 153.49 59.9826 153.654 59.2667 153.654ZM59.2717 152.406C59.7357 152.406 60.1201 152.284 60.4251 152.038C60.73 151.793 60.9554 151.467 61.1012 151.059C61.2504 150.651 61.3249 150.202 61.3249 149.712C61.3249 149.224 61.2504 148.777 61.1012 148.369C60.9554 147.958 60.73 147.629 60.4251 147.38C60.1201 147.131 59.7357 147.007 59.2717 147.007C58.8043 147.007 58.4165 147.131 58.1083 147.38C57.8034 147.629 57.5763 147.958 57.4272 148.369C57.2814 148.777 57.2085 149.224 57.2085 149.712C57.2085 150.202 57.2814 150.651 57.4272 151.059C57.5763 151.467 57.8034 151.793 58.1083 152.038C58.4165 152.284 58.8043 152.406 59.2717 152.406ZM69.5579 150.91L69.5479 149.095H69.8065L72.8491 145.864H74.6289L71.1587 149.543H70.9251L69.5579 150.91ZM68.1907 153.5V143.318H69.6772V153.5H68.1907ZM73.0131 153.5L70.2788 149.871L71.3029 148.832L74.8377 153.5H73.0131ZM77.4702 148.966V153.5H75.9837V143.318H77.4503V147.107H77.5447C77.7237 146.696 77.9972 146.369 78.3651 146.127C78.733 145.885 79.2135 145.764 79.8068 145.764C80.3305 145.764 80.7879 145.872 81.179 146.087C81.5734 146.303 81.8783 146.624 82.0938 147.052C82.3125 147.476 82.4219 148.006 82.4219 148.643V153.5H80.9354V148.822C80.9354 148.262 80.7912 147.827 80.5028 147.519C80.2145 147.208 79.8134 147.052 79.2997 147.052C78.9484 147.052 78.6335 147.126 78.3551 147.276C78.08 147.425 77.8629 147.643 77.7038 147.932C77.5481 148.217 77.4702 148.562 77.4702 148.966ZM87.6222 153.654C86.9063 153.654 86.2815 153.49 85.7479 153.162C85.2143 152.834 84.8 152.375 84.505 151.785C84.21 151.195 84.0625 150.505 84.0625 149.717C84.0625 148.924 84.21 148.232 84.505 147.638C84.8 147.045 85.2143 146.585 85.7479 146.256C86.2815 145.928 86.9063 145.764 87.6222 145.764C88.3381 145.764 88.9628 145.928 89.4964 146.256C90.0301 146.585 90.4444 147.045 90.7393 147.638C91.0343 148.232 91.1818 148.924 91.1818 149.717C91.1818 150.505 91.0343 151.195 90.7393 151.785C90.4444 152.375 90.0301 152.834 89.4964 153.162C88.9628 153.49 88.3381 153.654 87.6222 153.654ZM87.6271 152.406C88.0911 152.406 88.4756 152.284 88.7805 152.038C89.0855 151.793 89.3108 151.467 89.4567 151.059C89.6058 150.651 89.6804 150.202 89.6804 149.712C89.6804 149.224 89.6058 148.777 89.4567 148.369C89.3108 147.958 89.0855 147.629 88.7805 147.38C88.4756 147.131 88.0911 147.007 87.6271 147.007C87.1598 147.007 86.772 147.131 86.4638 147.38C86.1589 147.629 85.9318 147.958 85.7827 148.369C85.6368 148.777 85.5639 149.224 85.5639 149.712C85.5639 150.202 85.6368 150.651 85.7827 151.059C85.9318 151.467 86.1589 151.793 86.4638 152.038C86.772 152.284 87.1598 152.406 87.6271 152.406ZM95.0634 153.669C94.5795 153.669 94.142 153.58 93.7509 153.401C93.3598 153.218 93.0499 152.955 92.8212 152.61C92.5958 152.265 92.4831 151.843 92.4831 151.342C92.4831 150.911 92.566 150.557 92.7317 150.278C92.8974 150 93.1212 149.78 93.4029 149.617C93.6846 149.455 93.9995 149.332 94.3475 149.249C94.6955 149.166 95.0501 149.103 95.4114 149.06C95.8688 149.007 96.24 148.964 96.525 148.931C96.8101 148.895 97.0172 148.837 97.1465 148.757C97.2757 148.678 97.3404 148.548 97.3404 148.369V148.335C97.3404 147.9 97.2177 147.564 96.9725 147.325C96.7305 147.087 96.3693 146.967 95.8887 146.967C95.3882 146.967 94.9938 147.078 94.7054 147.3C94.4204 147.519 94.2232 147.763 94.1138 148.031L92.7168 147.713C92.8825 147.249 93.1245 146.875 93.4426 146.589C93.7641 146.301 94.1337 146.092 94.5513 145.963C94.9689 145.83 95.4081 145.764 95.8688 145.764C96.1737 145.764 96.4969 145.801 96.8382 145.874C97.1829 145.943 97.5044 146.072 97.8027 146.261C98.1043 146.45 98.3513 146.72 98.5435 147.072C98.7357 147.42 98.8319 147.872 98.8319 148.429V153.5H97.3801V152.456H97.3205C97.2244 152.648 97.0802 152.837 96.888 153.023C96.6957 153.208 96.4488 153.362 96.1472 153.485C95.8456 153.608 95.4843 153.669 95.0634 153.669ZM95.3865 152.476C95.7975 152.476 96.1489 152.395 96.4405 152.232C96.7355 152.07 96.9592 151.858 97.1117 151.596C97.2675 151.331 97.3453 151.047 97.3453 150.746V149.761C97.2923 149.814 97.1896 149.864 97.0371 149.911C96.888 149.954 96.7173 149.992 96.525 150.025C96.3328 150.055 96.1455 150.083 95.9632 150.109C95.781 150.133 95.6285 150.152 95.5059 150.169C95.2175 150.205 94.954 150.267 94.7154 150.353C94.4801 150.439 94.2911 150.563 94.1486 150.726C94.0094 150.885 93.9398 151.097 93.9398 151.362C93.9398 151.73 94.0757 152.009 94.3475 152.197C94.6193 152.383 94.9656 152.476 95.3865 152.476ZM96.5549 144.81H95.3816L95.3418 143.795C95.6931 143.779 95.9417 143.732 96.0875 143.656C96.2334 143.577 96.3046 143.462 96.3013 143.313C96.3046 143.134 96.2035 143.007 95.998 142.93C95.7959 142.854 95.5489 142.816 95.2573 142.816L95.302 141.996C96.0544 141.996 96.6245 142.115 97.0123 142.354C97.4033 142.592 97.5972 142.914 97.5939 143.318C97.5972 143.646 97.4895 143.888 97.2708 144.044C97.0553 144.196 96.8167 144.293 96.5549 144.332V144.81ZM102.298 148.966V153.5H100.812V145.864H102.239V147.107H102.333C102.509 146.702 102.784 146.377 103.158 146.132C103.536 145.887 104.012 145.764 104.585 145.764C105.106 145.764 105.561 145.874 105.952 146.092C106.344 146.308 106.647 146.629 106.862 147.057C107.078 147.484 107.185 148.013 107.185 148.643V153.5H105.699V148.822C105.699 148.268 105.555 147.836 105.266 147.524C104.978 147.209 104.582 147.052 104.078 147.052C103.733 147.052 103.427 147.126 103.158 147.276C102.893 147.425 102.683 147.643 102.527 147.932C102.375 148.217 102.298 148.562 102.298 148.966ZM110.665 148.966V153.5H109.179V143.318H110.646V147.107H110.74C110.919 146.696 111.192 146.369 111.56 146.127C111.928 145.885 112.409 145.764 113.002 145.764C113.526 145.764 113.983 145.872 114.374 146.087C114.769 146.303 115.074 146.624 115.289 147.052C115.508 147.476 115.617 148.006 115.617 148.643V153.5H114.131V148.822C114.131 148.262 113.987 147.827 113.698 147.519C113.41 147.208 113.009 147.052 112.495 147.052C112.144 147.052 111.829 147.126 111.55 147.276C111.275 147.425 111.058 147.643 110.899 147.932C110.743 148.217 110.665 148.562 110.665 148.966ZM122.673 150.91L122.663 149.095H122.922L125.964 145.864H127.744L124.274 149.543H124.04L122.673 150.91ZM121.306 153.5V143.318H122.792V153.5H121.306ZM126.128 153.5L123.394 149.871L124.418 148.832L127.953 153.5H126.128ZM130.585 148.966V153.5H129.099V143.318H130.566V147.107H130.66C130.839 146.696 131.112 146.369 131.48 146.127C131.848 145.885 132.329 145.764 132.922 145.764C133.446 145.764 133.903 145.872 134.294 146.087C134.689 146.303 134.994 146.624 135.209 147.052C135.428 147.476 135.537 148.006 135.537 148.643V153.5H134.051V148.822C134.051 148.262 133.906 147.827 133.618 147.519C133.33 147.208 132.929 147.052 132.415 147.052C132.064 147.052 131.749 147.126 131.47 147.276C131.195 147.425 130.978 147.643 130.819 147.932C130.663 148.217 130.585 148.562 130.585 148.966ZM139.743 153.669C139.259 153.669 138.822 153.58 138.431 153.401C138.039 153.218 137.73 152.955 137.501 152.61C137.276 152.265 137.163 151.843 137.163 151.342C137.163 150.911 137.246 150.557 137.411 150.278C137.577 150 137.801 149.78 138.083 149.617C138.364 149.455 138.679 149.332 139.027 149.249C139.375 149.166 139.73 149.103 140.091 149.06C140.548 149.007 140.92 148.964 141.205 148.931C141.49 148.895 141.697 148.837 141.826 148.757C141.955 148.678 142.02 148.548 142.02 148.369V148.335C142.02 147.9 141.897 147.564 141.652 147.325C141.41 147.087 141.049 146.967 140.568 146.967C140.068 146.967 139.673 147.078 139.385 147.3C139.1 147.519 138.903 147.763 138.794 148.031L137.396 147.713C137.562 147.249 137.804 146.875 138.122 146.589C138.444 146.301 138.813 146.092 139.231 145.963C139.649 145.83 140.088 145.764 140.548 145.764C140.853 145.764 141.177 145.801 141.518 145.874C141.863 145.943 142.184 146.072 142.482 146.261C142.784 146.45 143.031 146.72 143.223 147.072C143.415 147.42 143.512 147.872 143.512 148.429V153.5H142.06V152.456H142C141.904 152.648 141.76 152.837 141.568 153.023C141.375 153.208 141.128 153.362 140.827 153.485C140.525 153.608 140.164 153.669 139.743 153.669ZM140.066 152.476C140.477 152.476 140.829 152.395 141.12 152.232C141.415 152.07 141.639 151.858 141.791 151.596C141.947 151.331 142.025 151.047 142.025 150.746V149.761C141.972 149.814 141.869 149.864 141.717 149.911C141.568 149.954 141.397 149.992 141.205 150.025C141.012 150.055 140.825 150.083 140.643 150.109C140.461 150.133 140.308 150.152 140.186 150.169C139.897 150.205 139.634 150.267 139.395 150.353C139.16 150.439 138.971 150.563 138.828 150.726C138.689 150.885 138.619 151.097 138.619 151.362C138.619 151.73 138.755 152.009 139.027 152.197C139.299 152.383 139.645 152.476 140.066 152.476ZM141.607 143.507H142.806C142.806 143.948 142.607 144.309 142.209 144.591C141.811 144.869 141.271 145.009 140.588 145.009C139.905 145.009 139.365 144.869 138.968 144.591C138.573 144.309 138.376 143.948 138.376 143.507H139.569C139.569 143.713 139.645 143.893 139.798 144.049C139.954 144.205 140.217 144.283 140.588 144.283C140.953 144.283 141.213 144.205 141.369 144.049C141.528 143.893 141.607 143.713 141.607 143.507ZM140.131 143.403L140.916 142.08H142.144L140.991 143.403H140.131ZM148.708 153.654C147.969 153.654 147.333 153.487 146.799 153.152C146.269 152.814 145.861 152.348 145.576 151.755C145.291 151.162 145.148 150.482 145.148 149.717C145.148 148.941 145.294 148.257 145.586 147.663C145.878 147.067 146.289 146.601 146.819 146.266C147.349 145.932 147.974 145.764 148.693 145.764C149.273 145.764 149.79 145.872 150.244 146.087C150.698 146.299 151.065 146.598 151.343 146.982C151.625 147.367 151.792 147.816 151.845 148.33H150.398C150.319 147.972 150.137 147.663 149.852 147.405C149.57 147.146 149.192 147.017 148.718 147.017C148.304 147.017 147.941 147.126 147.629 147.345C147.321 147.561 147.081 147.869 146.908 148.27C146.736 148.668 146.65 149.138 146.65 149.682C146.65 150.239 146.734 150.719 146.903 151.124C147.072 151.528 147.311 151.841 147.619 152.063C147.931 152.285 148.297 152.396 148.718 152.396C149 152.396 149.255 152.345 149.484 152.242C149.716 152.136 149.91 151.985 150.065 151.79C150.224 151.594 150.335 151.359 150.398 151.084H151.845C151.792 151.578 151.631 152.018 151.363 152.406C151.094 152.794 150.735 153.099 150.284 153.321C149.837 153.543 149.311 153.654 148.708 153.654Z" fill="white"/>
</svg>
