<svg width="17" height="16" viewBox="0 0 17 16" fill="none" xmlns="http://www.w3.org/2000/svg">
<path d="M13.0467 3.28595C11.7876 2.0268 10.1134 1.33334 8.33268 1.33334C6.55198 1.33334 4.87779 2.0268 3.61863 3.28595C2.35948 4.54511 1.66602 6.2193 1.66602 8C1.66602 9.7807 2.35948 11.4549 3.61863 12.7141C4.87779 13.9732 6.55198 14.6667 8.33268 14.6667C10.1134 14.6667 11.7876 13.9732 13.0467 12.7141C14.3059 11.4549 14.9993 9.7807 14.9993 8C14.9993 6.2193 14.3059 4.54511 13.0467 3.28595Z" fill="#FD0134"/>
<path d="M13.0471 3.28595C11.7879 2.0268 10.1137 1.33334 8.33301 1.33334V14.6667C10.1137 14.6667 11.7879 13.9732 13.0471 12.7141C14.3062 11.4549 14.9997 9.7807 14.9997 8C14.9997 6.2193 14.3062 4.54511 13.0471 3.28595Z" fill="#AD0123"/>
<path d="M12.6851 7.99953C12.6851 10.4035 10.7363 12.3524 8.33232 12.3524C5.92834 12.3524 3.97949 10.4035 3.97949 7.99953C3.97949 5.59556 5.92834 3.64671 8.33232 3.64671C10.7363 3.64671 12.6851 5.59556 12.6851 7.99953Z" fill="#EBF7FF"/>
<path d="M12.6858 7.99953C12.6858 10.4035 10.737 12.3524 8.33301 12.3524V3.64671C10.737 3.64671 12.6858 5.59556 12.6858 7.99953Z" fill="#9CC5E6"/>
<path d="M9.81311 9.08646L8.72363 7.85182V5.79514C8.72363 5.57948 8.54877 5.40451 8.33301 5.40451C8.11725 5.40451 7.94238 5.57948 7.94238 5.79514V7.99952C7.94238 8.09474 7.97717 8.18659 8.04014 8.25801L9.22727 9.60332C9.30448 9.69081 9.41211 9.73557 9.52034 9.73546C9.6121 9.73546 9.70437 9.70332 9.77863 9.63781C9.94037 9.49509 9.95583 9.2482 9.81311 9.08646Z" fill="#31394A"/>
</svg>
