<svg width="17" height="16" viewBox="0 0 17 16" fill="none" xmlns="http://www.w3.org/2000/svg">
<g clip-path="url(#clip0_3318_66530)">
<path d="M8.66699 16C13.0853 16 16.667 12.4183 16.667 8C16.667 3.58172 13.0853 0 8.66699 0C4.24871 0 0.666992 3.58172 0.666992 8C0.666992 12.4183 4.24871 16 8.66699 16Z" fill="#EAB14D"/>
<path d="M8.6669 0C8.52409 0 8.38218 0.00390625 8.24121 0.0112813C12.4616 0.232594 15.8156 3.72453 15.8156 8C15.8156 12.2755 12.4616 15.7674 8.24121 15.9887C8.38218 15.9961 8.52409 16 8.6669 16C13.0852 16 16.6669 12.4183 16.6669 8C16.6669 3.58172 13.0852 0 8.6669 0Z" fill="#E49542"/>
<path d="M8.66659 14.234C12.1095 14.234 14.9006 11.4429 14.9006 8C14.9006 4.55707 12.1095 1.76603 8.66659 1.76603C5.22366 1.76603 2.43262 4.55707 2.43262 8C2.43262 11.4429 5.22366 14.234 8.66659 14.234Z" fill="#F4FBFF"/>
<path d="M8.66695 1.76603C8.4943 1.76603 8.32339 1.77337 8.1543 1.78712C11.3574 2.04787 13.8756 4.72972 13.8756 8C13.8756 11.2703 11.3574 13.9521 8.1543 14.2129C8.32339 14.2267 8.4943 14.234 8.66695 14.234C12.1099 14.234 14.9009 11.4429 14.9009 8.00003C14.9009 4.55712 12.1099 1.76603 8.66695 1.76603Z" fill="#DAF1F4"/>
<path d="M8.66722 3.68472C8.53387 3.68472 8.42578 3.57662 8.42578 3.44328V3.0889C8.42578 2.95556 8.53387 2.84747 8.66722 2.84747C8.80056 2.84747 8.90869 2.95556 8.90869 3.0889V3.44328C8.90869 3.57662 8.80056 3.68472 8.66722 3.68472Z" fill="#2B4D66"/>
<path d="M11.8762 5.02481C11.8144 5.02481 11.7526 5.00122 11.7055 4.95409C11.6112 4.85978 11.6112 4.70693 11.7055 4.61262L11.9561 4.36206C12.0504 4.26775 12.2033 4.26778 12.2976 4.36206C12.3918 4.45637 12.3918 4.60922 12.2975 4.70353L12.0469 4.95412C11.9998 5.00121 11.938 5.02481 11.8762 5.02481Z" fill="#2B4D66"/>
<path d="M13.5519 8.24147H13.1975C13.0641 8.24147 12.9561 8.13337 12.9561 8.00003C12.9561 7.86668 13.0641 7.75859 13.1975 7.75859H13.5519C13.6852 7.75859 13.7933 7.86668 13.7933 8.00003C13.7933 8.13337 13.6852 8.24147 13.5519 8.24147Z" fill="#2B4D66"/>
<path d="M12.1082 11.701C12.0465 11.701 11.9846 11.6774 11.9375 11.6303L11.6869 11.3797C11.5926 11.2854 11.5926 11.1326 11.6869 11.0382C11.7812 10.944 11.9341 10.944 12.0284 11.0382L12.279 11.2888C12.3733 11.3831 12.3733 11.536 12.279 11.6303C12.2318 11.6774 12.17 11.701 12.1082 11.701Z" fill="#2B4D66"/>
<path d="M8.64085 13.1263C8.50751 13.1263 8.39941 13.0182 8.39941 12.8849V12.5305C8.39941 12.3972 8.50751 12.2891 8.64085 12.2891C8.7742 12.2891 8.88229 12.3972 8.88229 12.5305V12.8849C8.88229 13.0182 8.7742 13.1263 8.64085 13.1263Z" fill="#2B4D66"/>
<path d="M5.18089 11.6824C5.11911 11.6824 5.0573 11.6588 5.01018 11.6117C4.91586 11.5174 4.91589 11.3645 5.01018 11.2702L5.26077 11.0196C5.35508 10.9254 5.50793 10.9253 5.60224 11.0197C5.69652 11.1139 5.69652 11.2668 5.60221 11.3611L5.35161 11.6117C5.30449 11.6588 5.24268 11.6824 5.18089 11.6824Z" fill="#2B4D66"/>
<path d="M4.11046 8.21519H3.75609C3.62274 8.21519 3.51465 8.1071 3.51465 7.97375C3.51465 7.84041 3.62274 7.73232 3.75609 7.73232H4.11046C4.2438 7.73232 4.3519 7.84041 4.3519 7.97375C4.35193 8.1071 4.2438 8.21519 4.11046 8.21519Z" fill="#2B4D66"/>
<path d="M5.45102 5.00621C5.38924 5.00621 5.32746 4.98265 5.2803 4.93549L5.02971 4.68493C4.93543 4.59062 4.9354 4.43777 5.02968 4.34346C5.12399 4.24918 5.27684 4.24915 5.37115 4.34343L5.62174 4.59402C5.71602 4.68831 5.71605 4.84118 5.62177 4.93549C5.57459 4.98262 5.5128 5.00621 5.45102 5.00621Z" fill="#2B4D66"/>
<path d="M8.66706 8.24147H6.61644C6.48309 8.24147 6.375 8.13334 6.375 8C6.375 7.86666 6.48309 7.75856 6.61644 7.75856H8.42559V4.68678C8.42559 4.55344 8.53369 4.44534 8.66703 4.44534C8.80037 4.44534 8.90847 4.55344 8.90847 4.68678V8C8.9085 8.13334 8.80041 8.24147 8.66706 8.24147Z" fill="#2B4D66"/>
<path d="M11.1443 9.51535C11.1071 9.51535 11.0695 9.50672 11.0341 9.48857L8.55686 8.21469C8.43827 8.15372 8.39158 8.00816 8.45255 7.88957C8.51352 7.77097 8.65908 7.72425 8.77771 7.78525L11.255 9.0591C11.3736 9.1201 11.4203 9.26566 11.3593 9.38422C11.3164 9.4675 11.2319 9.51535 11.1443 9.51535Z" fill="#DA4A54"/>
<path d="M8.6669 8.64444C9.02281 8.64444 9.31134 8.35591 9.31134 8C9.31134 7.64408 9.02281 7.35556 8.6669 7.35556C8.31099 7.35556 8.02246 7.64408 8.02246 8C8.02246 8.35591 8.31099 8.64444 8.6669 8.64444Z" fill="#365E7D"/>
</g>
<defs>
<clipPath id="clip0_3318_66530">
<rect width="16" height="16" fill="white" transform="translate(0.666992)"/>
</clipPath>
</defs>
</svg>
