<svg width="18" height="22" viewBox="0 0 18 22" fill="none" xmlns="http://www.w3.org/2000/svg">
<path d="M8.95791 3.46594H1.03467C1.03467 2.11675 3.85629 0.988101 4.73521 0.66702C4.90386 0.605398 5.08548 0.605398 5.25413 0.66702C6.13953 0.988101 8.95791 2.11675 8.95791 3.46594Z" fill="#CE804A"/>
<path d="M8.95809 3.46594C8.95809 4.11459 7.18728 4.63999 4.99809 4.63999C2.8089 4.63999 1.03809 4.11459 1.03809 3.46594C1.03809 2.81729 2.8089 2.29189 4.99809 2.29189C7.18728 2.29189 8.95809 2.81729 8.95809 3.46594Z" fill="#AB6937"/>
<path d="M8.39696 3.29728C8.39696 3.85188 6.87588 4.30593 4.99804 4.30593C3.1202 4.30593 1.59912 3.85512 1.59912 3.29728C1.59912 2.73945 3.1202 2.28864 4.99804 2.28864C6.87588 2.28864 8.39696 2.74269 8.39696 3.29728Z" fill="#99582C"/>
<path d="M7.2516 21.1384C7.16403 21.3589 6.70025 21.4432 6.20727 21.3265C5.71754 21.213 5.38998 20.9405 5.47754 20.7232C5.56511 20.5059 6.03214 20.4184 6.52187 20.5351C7.01484 20.6486 7.33917 20.9178 7.2516 21.1384Z" fill="#FFC299"/>
<path d="M7.25514 21.1384C7.16757 21.3589 6.70379 21.4432 6.21082 21.3265C5.75028 21.2195 5.43568 20.973 5.46811 20.7622C5.61406 20.8303 5.80865 20.8789 6.01947 20.8951C6.43136 20.9276 6.7946 20.8335 6.93406 20.6811C7.1773 20.8108 7.31352 20.9859 7.25514 21.1384Z" fill="#3B3B3B"/>
<path d="M2.74034 21.1384C2.82791 21.3589 3.29169 21.4432 3.78467 21.3265C4.2744 21.213 4.60196 20.9405 4.5144 20.7232C4.42683 20.5059 3.9598 20.4184 3.47007 20.5351C2.9771 20.6486 2.65278 20.9178 2.74034 21.1384Z" fill="#FFC299"/>
<path d="M2.74033 21.1384C2.8279 21.3589 3.29168 21.4432 3.78465 21.3265C4.24519 21.2195 4.55979 20.973 4.52736 20.7622C4.38141 20.8303 4.18682 20.8789 3.97601 20.8951C3.56411 20.9276 3.20087 20.8335 3.06141 20.6811C2.81492 20.8108 2.67871 20.9859 2.74033 21.1384Z" fill="#3B3B3B"/>
<path d="M1.2519 12.7384C1.2519 12.7384 1.22595 13.0043 1.01838 13.3676C0.898383 13.6205 0.651897 14.1784 0.90487 14.1686C0.90487 14.1686 0.940545 14.2951 1.07676 14.2335C1.07676 14.2335 1.02811 14.4249 1.24865 14.3762C1.24865 14.3762 1.30055 14.5481 1.45298 14.4119C1.60541 14.2757 1.6573 13.9676 1.74487 13.9384C1.87784 13.893 1.74811 14.2627 1.87136 14.3276C1.9946 14.3924 2.06271 13.8443 1.98163 13.5005C1.90055 13.1568 2.01082 12.774 2.01082 12.774L1.2519 12.7384Z" fill="#FFC299"/>
<path d="M8.74397 12.7384C8.74397 12.7384 8.76991 13.0043 8.97748 13.3676C9.09748 13.6205 9.34396 14.1784 9.09099 14.1686C9.09099 14.1686 9.05532 14.2951 8.9191 14.2335C8.9191 14.2335 8.96775 14.4249 8.74721 14.3762C8.74721 14.3762 8.69532 14.5481 8.54288 14.4119C8.39045 14.2757 8.33856 13.9676 8.25099 13.9384C8.11802 13.893 8.24775 14.2627 8.12451 14.3276C8.00126 14.3924 7.93315 13.8443 8.01424 13.5005C8.09532 13.1568 7.98505 12.774 7.98505 12.774L8.74397 12.7384Z" fill="#FFC299"/>
<path d="M7.83234 7.91567L6.96315 2.70378H3.0064L2.13721 7.91567H7.83234Z" fill="#3B3B3B"/>
<path d="M6.88843 9.53404C6.66789 10.3481 6.67762 11.2205 6.98897 12.0022C7.15762 12.4238 7.25492 12.8616 7.28735 13.3124L7.56627 20.4054C5.85384 20.9081 4.13816 20.9081 2.42573 20.4054L2.71762 13.3157C2.74357 12.8876 2.83114 12.4757 2.98357 12.0767C3.16195 11.6097 3.25276 11.107 3.25276 10.6108C3.25276 10.2476 3.20735 9.88107 3.11006 9.53404L2.94465 8.92107L2.09168 13.1146L0.956543 12.9557C0.956543 12.9557 1.26141 8.28864 1.89384 6.92972C2.37384 6.00215 3.63871 6.61512 4.20952 6.13837H5.78898C6.35979 6.61188 7.62789 6.00215 8.10789 6.92972C8.74033 8.28864 9.04195 12.9557 9.04195 12.9557L7.91006 13.1146L7.05384 8.92107L6.88843 9.53404Z" fill="#EE80A3"/>
<path d="M2.94509 9.01189C2.91265 9.01189 2.88022 8.99243 2.864 8.96C2.8413 8.91459 2.86076 8.8627 2.90617 8.84C3.7786 8.43135 4.58941 7.47135 4.97536 6.39783C4.99157 6.35243 5.04346 6.32648 5.08887 6.3427C5.13428 6.35891 5.16022 6.41081 5.144 6.45621C4.74184 7.57189 3.89536 8.57081 2.98076 9.00216C2.97103 9.00864 2.95806 9.01189 2.94509 9.01189Z" fill="#8B4545"/>
<path d="M4.12227 6.08973C4.252 5.68432 4.26822 5.22702 4.16444 4.81189H5.81849C5.72444 5.22378 5.7439 5.68432 5.87687 6.08648C5.932 6.25189 5.81525 6.42378 5.64011 6.42378H4.36227C4.18714 6.42702 4.07038 6.25838 4.12227 6.08973Z" fill="#EFB086"/>
<path d="M5.99697 5.59676L6.08778 6.29081C5.76345 6.51459 5.39697 6.61838 4.99805 6.63784V6.4173C4.99805 6.16432 5.16021 5.94378 5.40021 5.86919C5.59156 5.81081 5.77643 5.72 5.99697 5.59676Z" fill="#8B4545"/>
<path d="M3.99901 5.59676L3.9082 6.29081C4.23253 6.51459 4.59901 6.61838 4.99793 6.63784V6.4173C4.99793 6.16432 4.83577 5.94378 4.59577 5.86919C4.40118 5.81081 4.21631 5.72 3.99901 5.59676Z" fill="#8B4545"/>
<path d="M5.19569 7.21189C5.19245 7.21189 5.18921 7.21189 5.18272 7.21189L4.41083 7.00432C4.38812 6.99784 4.37191 6.97189 4.37839 6.94919C4.38488 6.92648 4.41083 6.91027 4.43353 6.91675L5.20542 7.12432C5.22812 7.13081 5.24434 7.15675 5.23785 7.17946C5.23461 7.19892 5.21515 7.21189 5.19569 7.21189Z" fill="#8B4545"/>
<path d="M4.68024 7.96432C4.677 7.96432 4.67375 7.96432 4.66727 7.96432L3.89862 7.75675C3.87592 7.75026 3.8597 7.72432 3.86619 7.70161C3.87267 7.67891 3.89862 7.66269 3.92132 7.66918L4.69321 7.87675C4.71592 7.88324 4.73213 7.90918 4.72565 7.93188C4.71916 7.95134 4.6997 7.96432 4.68024 7.96432Z" fill="#8B4545"/>
<path d="M4.00233 8.58053C3.99909 8.58053 3.99585 8.58053 3.98936 8.58053L3.21747 8.37296C3.19476 8.36647 3.17855 8.34053 3.18504 8.31782C3.19152 8.29512 3.21747 8.27891 3.24017 8.28539L4.01206 8.49296C4.03477 8.49945 4.05098 8.52539 4.04449 8.5481C4.04125 8.56755 4.02179 8.58053 4.00233 8.58053Z" fill="#8B4545"/>
<path d="M7.17738 3.87782C7.17738 4.15998 6.95036 4.38701 6.66819 4.38701C6.38603 4.38701 6.15576 4.15998 6.15576 3.87782C6.15576 3.59566 6.38603 3.36539 6.66819 3.36539C6.95036 3.36539 7.17738 3.59566 7.17738 3.87782Z" fill="#FFC299"/>
<path d="M7.00886 3.87783C7.00886 4.06918 6.85642 4.22161 6.66507 4.22161C6.47372 4.22161 6.32129 4.06918 6.32129 3.87783C6.32129 3.68648 6.47696 3.53405 6.66507 3.53405C6.85642 3.5308 7.00886 3.68648 7.00886 3.87783Z" fill="#EFB086"/>
<path d="M3.83998 3.87782C3.83998 4.15998 3.61295 4.38701 3.33079 4.38701C3.04863 4.38701 2.81836 4.15998 2.81836 3.87782C2.81836 3.59566 3.04863 3.36539 3.33079 3.36539C3.61295 3.36539 3.83998 3.59566 3.83998 3.87782Z" fill="#FFC299"/>
<path d="M3.67145 3.87783C3.67145 4.06918 3.51902 4.22161 3.32767 4.22161C3.13632 4.22161 2.98389 4.06918 2.98389 3.87783C2.98389 3.68647 3.13956 3.53404 3.32767 3.53404C3.51578 3.53404 3.67145 3.68647 3.67145 3.87783Z" fill="#EFB086"/>
<path d="M6.96004 2.70701C6.96004 3.28431 6.71355 3.80647 6.31463 4.16323C6.28544 4.18918 6.25625 4.21188 6.22706 4.23458C5.88977 4.51026 5.45841 4.67891 4.98814 4.67891C4.51463 4.67891 4.08004 4.51026 3.7395 4.23134C3.71031 4.20863 3.68112 4.18918 3.65841 4.16323C3.25625 3.80323 3.00977 3.28431 3.00977 2.70701C3.00977 2.62918 3.01301 2.55134 3.02274 2.47674C3.58058 2.35674 4.26166 2.28864 4.99787 2.28864C5.72436 2.28864 6.39571 2.3535 6.94706 2.47026C6.95679 2.54809 6.96004 2.62918 6.96004 2.70701Z" fill="#3B3B3B"/>
<path d="M6.75225 3.82917C6.75225 4.80215 5.96089 5.59674 4.98143 5.59674C4.49495 5.59674 4.05387 5.39566 3.73279 5.07782C3.41495 4.75674 3.21387 4.31566 3.21387 3.82917C3.24306 3.39458 3.44738 3.03458 3.4863 2.66809C4.34576 3.02809 5.99333 2.72323 6.41819 2.43134C6.62252 2.9762 6.72306 3.31674 6.75225 3.82917Z" fill="#FFC299"/>
<path d="M6.01641 3.79998C6.01641 3.94917 5.90614 4.06917 5.76992 4.06917C5.63371 4.06917 5.52344 3.94917 5.52344 3.79998C5.52344 3.65079 5.63371 3.53079 5.76992 3.53079C5.90614 3.53079 6.01641 3.65404 6.01641 3.79998Z" fill="#3B3B3B"/>
<path d="M6.06499 3.46918C6.05851 3.46918 6.04878 3.46594 6.04229 3.4627C5.87689 3.3427 5.70499 3.32648 5.52013 3.41729C5.50067 3.42702 5.47797 3.41729 5.46824 3.40107C5.45851 3.38161 5.46824 3.35891 5.48445 3.34918C5.69526 3.2454 5.89635 3.26486 6.08445 3.40107C6.10067 3.41405 6.10391 3.43675 6.09418 3.45297C6.0877 3.4627 6.07797 3.46918 6.06499 3.46918Z" fill="#3B3B3B"/>
<path d="M3.9502 3.79998C3.9502 3.94917 4.06047 4.06917 4.19668 4.06917C4.3329 4.06917 4.44317 3.94917 4.44317 3.79998C4.44317 3.65079 4.3329 3.53079 4.19668 3.53079C4.06047 3.53079 3.9502 3.65404 3.9502 3.79998Z" fill="#3B3B3B"/>
<path d="M3.90465 3.46918C3.89168 3.46918 3.88195 3.46269 3.87546 3.45296C3.86249 3.43675 3.86573 3.41404 3.88519 3.40107C4.0733 3.26161 4.27438 3.2454 4.48519 3.34918C4.50465 3.35891 4.51113 3.38161 4.50141 3.40107C4.49168 3.42053 4.46897 3.42702 4.44951 3.41729C4.26465 3.32648 4.09276 3.34269 3.92735 3.46269C3.91762 3.46594 3.91114 3.46918 3.90465 3.46918Z" fill="#3B3B3B"/>
<path d="M4.96192 4.9481C4.78678 4.9481 4.61165 4.88648 4.43976 4.75999C4.40732 4.73405 4.39759 4.68864 4.42354 4.65297C4.44948 4.62053 4.49489 4.6108 4.53057 4.63675C4.82246 4.84756 5.10786 4.84756 5.39976 4.63675C5.43219 4.6108 5.48084 4.62053 5.50678 4.65297C5.53273 4.6854 5.523 4.73405 5.49057 4.75999C5.31219 4.88324 5.13705 4.9481 4.96192 4.9481Z" fill="#EFB086"/>
<path d="M6.24636 4.44864C6.24636 4.55566 6.13608 4.63999 5.99663 4.63999C5.85717 4.63999 5.74365 4.55566 5.74365 4.44864C5.74365 4.34485 5.85717 4.26053 5.99663 4.26053C6.13608 4.26053 6.24636 4.34485 6.24636 4.44864Z" fill="#EFB086"/>
<path d="M4.22585 4.44864C4.22585 4.55566 4.11558 4.63999 3.97612 4.63999C3.83666 4.63999 3.72314 4.55566 3.72314 4.44864C3.72314 4.34485 3.83666 4.26053 3.97612 4.26053C4.11558 4.26053 4.22585 4.34485 4.22585 4.44864Z" fill="#EFB086"/>
<path d="M5.76655 3.72539C5.76655 3.76755 5.73412 3.79998 5.69196 3.79998C5.65304 3.79998 5.62061 3.76755 5.62061 3.72539C5.62061 3.68647 5.65304 3.65404 5.69196 3.65404C5.73412 3.65404 5.76655 3.68647 5.76655 3.72539Z" fill="white"/>
<path d="M4.20312 3.72539C4.20312 3.76755 4.23556 3.79998 4.27772 3.79998C4.31664 3.79998 4.34907 3.76755 4.34907 3.72539C4.34907 3.68647 4.31664 3.65404 4.27772 3.65404C4.23556 3.65404 4.20312 3.68647 4.20312 3.72539Z" fill="white"/>
<path d="M4.99792 20.8724C4.13197 20.8724 3.26278 20.7459 2.40332 20.493C2.35467 20.48 2.32873 20.4281 2.3417 20.3827C2.35467 20.334 2.40657 20.3081 2.45197 20.3211C4.1417 20.8173 5.85413 20.8173 7.54062 20.3211C7.58603 20.3081 7.63792 20.334 7.65089 20.3827C7.66386 20.4313 7.63792 20.48 7.58927 20.493C6.72981 20.7427 5.86386 20.8724 4.99792 20.8724Z" fill="#8B4545"/>
<path d="M11.1017 21.1449C11.1892 21.3557 11.653 21.44 12.146 21.3265C12.6357 21.2162 12.9633 20.9568 12.8757 20.7427C12.7882 20.5287 12.3211 20.4508 11.8314 20.5611C11.3384 20.6746 11.0141 20.9341 11.1017 21.1449Z" fill="#FFC299"/>
<path d="M11.1015 21.1449C11.1891 21.3557 11.6529 21.44 12.1459 21.3265C12.6064 21.2227 12.921 20.986 12.8886 20.7816C12.7426 20.8465 12.548 20.8919 12.3372 20.9081C11.9253 20.9405 11.5653 20.8497 11.4226 20.7005C11.1761 20.8303 11.0432 21.0022 11.1015 21.1449Z" fill="#3B3B3B"/>
<path d="M15.7946 21.1449C15.707 21.3557 15.2432 21.44 14.7502 21.3265C14.2605 21.2162 13.9329 20.9568 14.0205 20.7427C14.1081 20.5319 14.5751 20.4508 15.0648 20.5611C15.5578 20.6746 15.8821 20.9341 15.7946 21.1449Z" fill="#FFC299"/>
<path d="M15.7947 21.1449C15.7071 21.3557 15.2433 21.44 14.7504 21.3265C14.2898 21.2227 13.9752 20.986 14.0077 20.7816C14.1536 20.8465 14.3482 20.8919 14.559 20.9081C14.9709 20.9405 15.3309 20.8497 15.4736 20.7005C15.7201 20.8303 15.8563 21.0022 15.7947 21.1449Z" fill="#3B3B3B"/>
<path d="M13.051 20.5384L13.5699 13.6984H11.478V20.5384C11.9905 20.7038 12.5159 20.6941 13.051 20.5384Z" fill="#E4E2E5"/>
<path d="M13.8485 20.5384L13.3296 13.6984H15.4215V20.5384C14.9058 20.7005 14.3804 20.6973 13.8485 20.5384Z" fill="#E4E2E5"/>
<path d="M10.0994 12.3816C10.0994 12.3816 10.0767 12.6184 9.89184 12.9427C9.78481 13.1697 9.56427 13.6659 9.78806 13.6595C9.78806 13.6595 9.82049 13.773 9.94049 13.7178C9.94049 13.7178 9.89508 13.8897 10.0929 13.8443C10.0929 13.8443 10.1383 13.9968 10.2745 13.8768C10.4108 13.7535 10.4562 13.4811 10.534 13.4519C10.654 13.4097 10.5372 13.7438 10.6475 13.7989C10.7578 13.8541 10.8162 13.3676 10.7448 13.0595C10.6735 12.7514 10.7708 12.4108 10.7708 12.4108L10.0994 12.3816Z" fill="#FFC299"/>
<path d="M16.7968 12.3816C16.7968 12.3816 16.8195 12.6184 17.0044 12.9427C17.1114 13.1697 17.332 13.6659 17.1082 13.6595C17.1082 13.6595 17.0757 13.773 16.9557 13.7178C16.9557 13.7178 17.0011 13.8897 16.8033 13.8443C16.8033 13.8443 16.7579 13.9968 16.6217 13.8768C16.4855 13.7568 16.4401 13.4811 16.3622 13.4519C16.2422 13.4097 16.359 13.7438 16.2487 13.7989C16.1384 13.8573 16.0801 13.3676 16.1514 13.0595C16.2228 12.7514 16.1255 12.4108 16.1255 12.4108L16.7968 12.3816Z" fill="#FFC299"/>
<path d="M15.48 8.89514L15.6486 16.04C14.1827 16.4584 12.7167 16.4584 11.254 16.04L11.4227 8.89514L10.92 12.6768L9.87891 12.6605L10.5827 7.08216C10.6411 6.61514 10.9654 6.21946 11.413 6.07027L12.8724 5.59027H14.0367L15.493 6.07027C15.9405 6.21946 16.2649 6.61514 16.3232 7.08216L17.027 12.6605L15.9859 12.6768L15.48 8.89514Z" fill="#43659B"/>
<path d="M12.5449 5.62595L13.3168 6.23568H13.5795L14.3514 5.62595L14.2768 4.72108H12.6357L12.5449 5.62595Z" fill="#EFB086"/>
<path d="M15.451 3.73512C15.451 3.99458 15.2434 4.20215 14.9839 4.20215C14.7245 4.20215 14.5137 3.99458 14.5137 3.73512C14.5137 3.47566 14.7245 3.26485 14.9839 3.26485C15.2402 3.26161 15.451 3.47566 15.451 3.73512Z" fill="#FFC299"/>
<path d="M15.295 3.73189C15.295 3.90702 15.1556 4.04648 14.9804 4.04648C14.8053 4.04648 14.6626 3.90702 14.6626 3.73189C14.6626 3.55675 14.8053 3.41405 14.9804 3.41405C15.1556 3.41405 15.295 3.55999 15.295 3.73189Z" fill="#EFB086"/>
<path d="M12.386 3.73513C12.386 3.99459 12.1785 4.20216 11.919 4.20216C11.6595 4.20216 11.4487 3.99459 11.4487 3.73513C11.4487 3.47567 11.6595 3.26486 11.919 3.26486C12.1785 3.26486 12.386 3.47567 12.386 3.73513Z" fill="#FFC299"/>
<path d="M12.2335 3.73189C12.2335 3.90702 12.094 4.04648 11.9189 4.04648C11.7438 4.04648 11.6011 3.90702 11.6011 3.73189C11.6011 3.55675 11.7438 3.41405 11.9189 3.41405C12.0908 3.41729 12.2335 3.55999 12.2335 3.73189Z" fill="#EFB086"/>
<path d="M15.2532 2.65837C15.2532 3.65405 14.4392 4.4681 13.4435 4.4681C12.4381 4.4681 11.624 3.65405 11.624 2.65837C11.624 1.65297 12.4381 0.838913 13.4435 0.838913C14.4392 0.838913 15.2532 1.65297 15.2532 2.65837Z" fill="#3B3B3B"/>
<path d="M15.0619 3.68973C15.0619 4.58486 14.3354 5.31135 13.4371 5.31135C12.9895 5.31135 12.5841 5.12649 12.2889 4.83784C11.9971 4.5427 11.8154 4.1373 11.8154 3.68973C11.8446 3.29081 12.0295 2.96 12.0652 2.6227C12.5062 2.80108 12.9668 2.74919 13.4371 2.57405C13.4208 2.67784 13.3592 2.77189 13.2587 2.85621C13.7322 2.90162 14.3679 2.67135 14.7571 2.40216C14.9419 2.90486 15.0327 3.21946 15.0619 3.68973Z" fill="#FFC299"/>
<path d="M14.3841 3.66378C14.3841 3.8 14.2836 3.91027 14.1603 3.91027C14.0371 3.91027 13.9365 3.8 13.9365 3.66378C13.9365 3.52757 14.0371 3.4173 14.1603 3.4173C14.2836 3.4173 14.3841 3.52757 14.3841 3.66378Z" fill="#3B3B3B"/>
<path d="M14.4291 3.35891C14.4226 3.35891 14.4161 3.35567 14.4097 3.35243C14.2572 3.24216 14.1016 3.22594 13.9297 3.31027C13.9134 3.31999 13.8907 3.31026 13.8843 3.29405C13.8745 3.27783 13.8843 3.25513 13.9005 3.24864C14.0918 3.15459 14.2799 3.17081 14.4518 3.29729C14.468 3.30702 14.4713 3.32972 14.4583 3.34594C14.4486 3.35567 14.4388 3.35891 14.4291 3.35891Z" fill="#3B3B3B"/>
<path d="M12.4863 3.66378C12.4863 3.8 12.5869 3.91027 12.7101 3.91027C12.8334 3.91027 12.9339 3.8 12.9339 3.66378C12.9339 3.52757 12.8334 3.4173 12.7101 3.4173C12.5869 3.4173 12.4863 3.52757 12.4863 3.66378Z" fill="#3B3B3B"/>
<path d="M12.4445 3.35891C12.4347 3.35891 12.4218 3.35243 12.4153 3.34594C12.4023 3.32972 12.4088 3.31027 12.4218 3.29729C12.5937 3.17081 12.7818 3.15459 12.9731 3.24864C12.9893 3.25837 12.9958 3.27783 12.9893 3.29405C12.9796 3.31026 12.9601 3.31999 12.9439 3.31027C12.7753 3.22594 12.6164 3.24216 12.4639 3.35243C12.4574 3.35891 12.451 3.35891 12.4445 3.35891Z" fill="#3B3B3B"/>
<path d="M13.4174 4.71783C13.2585 4.71783 13.0963 4.65945 12.9374 4.54269C12.9049 4.51999 12.8985 4.47783 12.9212 4.4454C12.9439 4.41297 12.986 4.40648 13.0185 4.42918C13.2876 4.62378 13.5471 4.62378 13.8163 4.42918C13.8487 4.40648 13.8909 4.41297 13.9136 4.4454C13.9363 4.47783 13.9298 4.51999 13.8974 4.54269C13.7352 4.65945 13.5763 4.71783 13.4174 4.71783Z" fill="#EFB086"/>
<path d="M14.5946 4.25729C14.5946 4.35459 14.4941 4.43243 14.3644 4.43243C14.2346 4.43243 14.1309 4.35459 14.1309 4.25729C14.1309 4.16324 14.2346 4.0854 14.3644 4.0854C14.4941 4.0854 14.5946 4.16324 14.5946 4.25729Z" fill="#EFB086"/>
<path d="M12.7397 4.25729C12.7397 4.35459 12.6391 4.43243 12.5094 4.43243C12.3797 4.43243 12.2759 4.35459 12.2759 4.25729C12.2759 4.16324 12.3797 4.0854 12.5094 4.0854C12.6391 4.0854 12.7397 4.16324 12.7397 4.25729Z" fill="#EFB086"/>
<path d="M14.1535 3.59567C14.1535 3.63459 14.1243 3.66378 14.0854 3.66378C14.0497 3.66378 14.0205 3.63459 14.0205 3.59567C14.0205 3.56 14.0497 3.53081 14.0854 3.53081C14.1243 3.53081 14.1535 3.56 14.1535 3.59567Z" fill="white"/>
<path d="M12.7202 3.59567C12.7202 3.63459 12.7494 3.66378 12.7883 3.66378C12.824 3.66378 12.8532 3.63459 12.8532 3.59567C12.8532 3.56 12.824 3.53081 12.7883 3.53081C12.7494 3.53081 12.7202 3.56 12.7202 3.59567Z" fill="white"/>
<path d="M12.3374 5.79784L12.4185 5.24001L12.772 5.31784C13.0898 5.38919 13.3169 5.67136 13.3169 5.99568V6.23568L12.3374 5.79784Z" fill="#43659B"/>
<path d="M14.5625 5.79784L14.4814 5.24001L14.1279 5.31784C13.81 5.38919 13.583 5.67136 13.583 5.99568V6.23568L14.5625 5.79784Z" fill="#43659B"/>
<path d="M11.4194 8.97622C11.3772 8.97622 11.3415 8.94379 11.3383 8.90163C11.2767 7.8119 12.081 7.21838 12.7913 6.69622C13.028 6.52109 13.2518 6.35892 13.4399 6.18054C13.4723 6.15136 13.5242 6.15136 13.5534 6.18379C13.5826 6.21622 13.5826 6.26811 13.5502 6.2973C13.3556 6.48217 13.1286 6.64757 12.8886 6.82595C12.1783 7.34811 11.4453 7.88973 11.5005 8.8919C11.5037 8.9373 11.468 8.97298 11.4259 8.97622C11.4194 8.97622 11.4194 8.97622 11.4194 8.97622Z" fill="#3B3B3B"/>
<path d="M13.4657 6.69621C13.4625 6.69621 13.4593 6.69621 13.4528 6.69621L12.6906 6.49189C12.6679 6.4854 12.6517 6.45945 12.6582 6.43675C12.6647 6.41405 12.6906 6.39783 12.7133 6.40432L13.4755 6.60864C13.4982 6.61513 13.5144 6.64108 13.5079 6.66378C13.5014 6.68324 13.4852 6.69621 13.4657 6.69621Z" fill="#3B3B3B"/>
<path d="M12.7817 7.24109C12.7784 7.24109 12.7752 7.24109 12.7687 7.24109L12.0065 7.03676C11.9838 7.03028 11.9676 7.00433 11.9741 6.98163C11.9806 6.95893 12.0065 6.94271 12.0292 6.9492L12.7914 7.15352C12.8141 7.16001 12.8303 7.18595 12.8238 7.20865C12.8206 7.22487 12.8011 7.24109 12.7817 7.24109Z" fill="#3B3B3B"/>
<path d="M12.1948 7.86053C12.1915 7.86053 12.1883 7.86053 12.1818 7.86053L11.4196 7.65621C11.3969 7.64972 11.3807 7.62378 11.3872 7.60107C11.3937 7.57837 11.4196 7.56215 11.4423 7.56864L12.2045 7.77297C12.2272 7.77945 12.2434 7.8054 12.2369 7.8281C12.2337 7.84432 12.2142 7.86053 12.1948 7.86053Z" fill="#3B3B3B"/>
<path d="M15.2982 1.88649V2.57081C14.0658 2.11027 12.8301 2.11027 11.5977 2.57081V1.88649C11.5977 1.48108 11.7987 1.10486 12.1133 0.952432C13.002 0.514594 13.8906 0.514594 14.7793 0.952432C15.0971 1.10486 15.2982 1.48108 15.2982 1.88649Z" fill="#43659B"/>
</svg>
