<svg width="20" height="20" viewBox="0 0 20 20" fill="none" xmlns="http://www.w3.org/2000/svg">
<path d="M4.65176 16.5C4.71113 17.4344 5.32988 18 6.27676 18H13.6393C14.7174 18 15.2861 17.4469 15.3518 16.375C15.5268 13.4875 15.9518 6.44687 15.983 5.87187H4.02051C4.02051 5.99687 4.43926 13.1187 4.65176 16.5Z" fill="#DD2B17"/>
<path d="M15.9707 3.02813C15.1239 3.02188 14.2801 3.01562 13.4364 3.03125C13.3864 2.45 12.8989 2 12.3145 2H7.67075C7.08637 2 6.59887 2.45 6.552 3.03125C5.68325 3.01562 4.81137 3.02188 3.94262 3.02813C3.48637 3.03438 3.15512 3.2875 3.04575 3.6875C2.85512 4.38438 3.277 4.95938 3.99887 4.9625C6.002 4.96875 8.002 4.96563 10.002 4.96563H15.9645C16.6114 4.96563 16.9832 4.60313 16.9864 4C16.9895 3.39688 16.6145 3.03125 15.9707 3.02813Z" fill="#DD2B17"/>
</svg>
