<svg width="20" height="20" viewBox="0 0 20 20" fill="none" xmlns="http://www.w3.org/2000/svg">
<path d="M12.8605 5.11207C12.6972 5.11207 12.5649 4.97977 12.5649 4.81652V1.05531C12.5649 0.89207 12.6972 0.759766 12.8605 0.759766C13.0237 0.759766 13.156 0.89207 13.156 1.05531V4.81652C13.156 4.97977 13.0237 5.11207 12.8605 5.11207Z" fill="#DDDAEC"/>
<path d="M15.8456 5.11207C15.6823 5.11207 15.55 4.97977 15.55 4.81652V1.05531C15.55 0.89207 15.6823 0.759766 15.8456 0.759766C16.0088 0.759766 16.1411 0.89207 16.1411 1.05531V4.81652C16.1411 4.97977 16.0088 5.11207 15.8456 5.11207Z" fill="#DDDAEC"/>
<path d="M18.0469 18.2249H10.6591C9.58043 18.2249 8.70598 17.3504 8.70598 16.2717V6.29443C8.70598 5.21576 9.58043 4.34131 10.6591 4.34131H18.0469C19.1255 4.34131 20 5.21576 20 6.29443V16.2717C20 17.3504 19.1255 18.2249 18.0469 18.2249Z" fill="#FC636F"/>
<path d="M18.6148 4.42554C18.6694 4.6053 18.699 4.79589 18.699 4.99347V14.9708C18.699 16.0494 17.8245 16.9239 16.7459 16.9239H9.35809C9.16051 16.9239 8.96989 16.8943 8.79016 16.8397C9.03344 17.6414 9.77801 18.2249 10.6591 18.2249H18.0469C19.1256 18.2249 20 17.3505 20 16.2718V6.29452C20 5.41343 19.4165 4.66886 18.6148 4.42554Z" fill="#DD636E"/>
<path d="M16.493 1.40887H12.2129C12.0754 1.40887 11.9639 1.29738 11.9639 1.15984V0.321289C11.9639 0.18375 12.0754 0.0722656 12.2129 0.0722656H16.493C16.6306 0.0722656 16.7421 0.18375 16.7421 0.321289V1.15984C16.7421 1.29738 16.6306 1.40887 16.493 1.40887Z" fill="#4A80AA"/>
<path d="M16.493 0.0722656H16.0838V0.501602C16.0838 0.639141 15.9723 0.750625 15.8348 0.750625H11.9639V1.15984C11.9639 1.29738 12.0754 1.40887 12.213 1.40887H16.4931C16.6306 1.40887 16.7421 1.29738 16.7421 1.15984V0.321289C16.7421 0.18375 16.6306 0.0722656 16.493 0.0722656Z" fill="#407093"/>
<path d="M7.71815 4.59422C7.67515 4.59422 7.63148 4.5848 7.59011 4.56488C7.44308 4.49406 7.3812 4.31742 7.45202 4.17035L8.50323 1.98695C8.63565 1.71195 8.86726 1.50496 9.15534 1.4041C9.44339 1.30328 9.75355 1.32066 10.0286 1.45305C10.5963 1.72641 10.8358 2.41062 10.5625 2.97836L10.3488 3.42215C10.278 3.56918 10.1012 3.63094 9.95429 3.56023C9.80726 3.48941 9.74538 3.31277 9.8162 3.1657L10.0299 2.72195C10.1618 2.44789 10.0462 2.11762 9.77214 1.98566C9.63941 1.92172 9.48972 1.91332 9.35062 1.96203C9.21155 2.0107 9.0998 2.11062 9.03585 2.2434L7.98464 4.4268C7.93378 4.53254 7.82815 4.59422 7.71815 4.59422Z" fill="#DDDAEC"/>
<path d="M8.29453 4.18265L8.1291 3.86504C8.06387 3.7398 7.92399 3.67246 7.78539 3.69957L7.43395 3.76832C7.29535 3.79543 7.15547 3.72808 7.09024 3.60285L6.84203 3.12636C6.81028 3.06539 6.75965 3.01632 6.6977 2.98648C6.48965 2.88632 6.24746 3.03386 6.24106 3.26468L6.12067 7.59691L9.43215 4.80109C9.6086 4.65215 9.57289 4.37078 9.36485 4.27062C9.30289 4.24078 9.23297 4.23179 9.16551 4.245L8.63825 4.34812C8.49965 4.37523 8.35977 4.30789 8.29453 4.18265Z" fill="#707DD3"/>
<path d="M9.36485 4.27057C9.30289 4.24072 9.23297 4.23174 9.16551 4.24494L8.63825 4.34807C8.54266 4.36678 8.44703 4.33971 8.37512 4.28053C8.37235 4.28303 8.37 4.2858 8.36711 4.28822L6.16086 6.15092L6.12067 7.59686L9.43215 4.80104C9.6086 4.65209 9.57289 4.37076 9.36485 4.27057Z" fill="#5766CB"/>
<path d="M0.295388 19.9281C0.251638 19.9281 0.207224 19.9183 0.165271 19.8977C0.0187475 19.8257 -0.0416041 19.6486 0.030349 19.5021L1.53718 16.4355C1.60914 16.289 1.78621 16.2287 1.93281 16.3006C2.07933 16.3726 2.13968 16.5497 2.06773 16.6962L0.560896 19.7628C0.509529 19.8674 0.404529 19.9281 0.295388 19.9281Z" fill="#DDDAEC"/>
<path d="M2.00402 17.0817L6.24836 10.763C6.40972 10.5228 6.53019 10.2576 6.60496 9.97803L7.55211 6.43686L6.13465 5.75439L3.95715 8.70318C3.78527 8.93596 3.65304 9.19557 3.5659 9.4715L1.27344 16.7299C1.21207 16.9242 1.30281 17.134 1.48633 17.2224C1.66988 17.3107 1.89047 17.2508 2.00402 17.0817Z" fill="#707DD3"/>
<path d="M6.605 9.97806L7.55215 6.43688L6.41605 5.88989L5.4689 9.43106C5.39414 9.7106 5.27363 9.97583 5.1123 10.2161L1.74969 15.222L1.27344 16.7299C1.21211 16.9242 1.30281 17.134 1.48633 17.2223C1.66984 17.3107 1.89043 17.2508 2.00402 17.0817L6.24836 10.763C6.40972 10.5228 6.53019 10.2576 6.605 9.97806Z" fill="#5766CB"/>
<path d="M7.74312 6.78795C7.70011 6.78795 7.6564 6.77853 7.61507 6.75861L5.85378 5.91056C5.70675 5.83974 5.64487 5.6631 5.71569 5.51603C5.78651 5.36896 5.96323 5.30716 6.11022 5.37795L7.87151 6.22599C8.01855 6.29681 8.08042 6.47345 8.0096 6.62052C7.9587 6.72627 7.85312 6.78795 7.74312 6.78795Z" fill="#365E7D"/>
<path d="M17.8793 11.0307H16.4128C16.3036 11.0307 16.215 10.9421 16.215 10.8329V9.36644C16.215 9.25722 16.3036 9.1687 16.4128 9.1687H17.8793C17.9885 9.1687 18.077 9.25726 18.077 9.36644V10.8329C18.077 10.9421 17.9885 11.0307 17.8793 11.0307Z" fill="#707DD3"/>
<path d="M13.2048 13.0915C11.7879 13.6079 10.2356 13.6163 8.81309 13.1153L8.66614 13.0635C7.8454 12.7744 6.98153 12.6267 6.11137 12.6267H4.92231C4.04086 12.6267 3.32629 13.3413 3.32629 14.2227V18.1462C3.32629 19.0277 4.04086 19.7423 4.92231 19.7423H5.28805L6.08606 19.3082L6.88407 19.7423H14.9971L15.7642 19.2422L16.5931 19.7423H16.9589C17.8403 19.7423 18.5549 19.0277 18.5549 18.1462V14.2227C18.5549 13.3413 17.8403 12.6267 16.9589 12.6267H15.8379C14.9398 12.6267 14.0486 12.784 13.2048 13.0915Z" fill="#FFE07D"/>
<path d="M10.9405 17.2427C10.2169 17.2427 9.55675 16.8758 9.1746 16.2613L8.59077 15.3224C8.36882 14.9654 8.25156 14.5547 8.25156 14.1345V12.8304C8.25156 12.6672 8.38386 12.5349 8.5471 12.5349C8.71035 12.5349 8.84265 12.6672 8.84265 12.8304V14.1345C8.84265 14.4443 8.92913 14.7471 9.09277 15.0103L9.67659 15.9492C9.95011 16.389 10.4226 16.6516 10.9405 16.6516C11.4585 16.6516 11.931 16.389 12.2045 15.9492L12.7884 15.0102C12.9519 14.7472 13.0384 14.4443 13.0384 14.1345V12.8163C13.0384 12.6531 13.1707 12.5208 13.334 12.5208C13.4972 12.5208 13.6295 12.6531 13.6295 12.8163V14.1345C13.6295 14.5547 13.5122 14.9655 13.2903 15.3224L12.7065 16.2613C12.3243 16.8758 11.6641 17.2427 10.9405 17.2427Z" fill="#4A80AA"/>
<path d="M11.8961 17.4725H9.98491C9.83324 17.4725 9.71027 17.3496 9.71027 17.1979V16.3679C9.71027 16.2162 9.83324 16.0933 9.98491 16.0933H11.8961C12.0478 16.0933 12.1708 16.2162 12.1708 16.3679V17.1979C12.1708 17.3496 12.0478 17.4725 11.8961 17.4725Z" fill="#407093"/>
<path d="M11.8961 16.0933H11.6553V16.6824C11.6553 16.834 11.5323 16.957 11.3806 16.957H9.71027V17.1979C9.71027 17.3496 9.83324 17.4725 9.98491 17.4725H11.8961C12.0478 17.4725 12.1707 17.3496 12.1707 17.1979V16.3679C12.1708 16.2162 12.0478 16.0933 11.8961 16.0933Z" fill="#365E7D"/>
<path d="M16.0057 7.9752C16.7098 7.2711 16.9864 6.40609 16.6235 6.04316C16.2605 5.68022 15.3955 5.9568 14.6914 6.6609C13.9873 7.365 13.7107 8.23001 14.0737 8.59294C14.4366 8.95588 15.3016 8.6793 16.0057 7.9752Z" fill="#F9F6F6"/>
<path d="M17.0274 12.6284C17.0284 12.6512 17.0291 12.674 17.0291 12.697V16.6205C17.0291 17.502 16.3146 18.2165 15.4331 18.2165H3.39657C3.37356 18.2165 3.35075 18.2158 3.32797 18.2148C3.36395 19.0644 4.06379 19.7422 4.92223 19.7422H5.28797L6.08598 19.3081L6.88399 19.7422H14.997L15.795 19.3447L16.5931 19.7422H16.9588C17.8402 19.7422 18.5548 19.0277 18.5548 18.1462V14.2227C18.5548 13.3642 17.877 12.6644 17.0274 12.6284Z" fill="#FFD064"/>
<path d="M5.28801 12.6267V19.7423H6.88403V12.666C6.62766 12.6401 6.36977 12.6267 6.11133 12.6267H5.28801Z" fill="#4A80AA"/>
<path d="M5.28801 18.2166H6.88403V19.7423H5.28801V18.2166Z" fill="#407093"/>
<path d="M14.9971 19.7423H16.5931V12.6267H15.8379C15.5565 12.6267 15.2759 12.6422 14.9971 12.6728V19.7423H14.9971Z" fill="#4A80AA"/>
<path d="M15.4331 18.2165H14.997V19.7422H16.593V17.7161C16.3021 18.024 15.8902 18.2165 15.4331 18.2165Z" fill="#407093"/>
</svg>
