<svg width="21" height="20" viewBox="0 0 21 20" fill="none" xmlns="http://www.w3.org/2000/svg">
<g clip-path="url(#clip0_3318_63180)">
<path d="M2.37639 19.7624L2.08936 20H2.89338C2.68658 19.9999 2.50162 19.9076 2.37639 19.7624Z" fill="#FC7575"/>
<path d="M19.3129 7.25445L16.0421 4.87551L12.6714 2.42383L10.9021 1.13695C10.6625 0.962732 10.3379 0.962732 10.0984 1.13695C8.50875 2.2932 3.40406 6.00597 1.68758 7.25445C1.51082 7.38301 1.40625 7.5884 1.40625 7.80699V19.3168C1.40625 19.6941 1.71211 20 2.08945 20H18.911C19.2883 20 19.5942 19.6941 19.5942 19.3168V7.80695C19.5942 7.5884 19.4896 7.38301 19.3129 7.25445Z" fill="#FF5050"/>
<path d="M2.21043 19.3168V8.08843C2.21043 7.86984 2.315 7.66445 2.49176 7.5359C2.76953 7.33386 10.7948 1.49683 10.9025 1.41843C10.9748 1.36586 11.0549 1.32945 11.138 1.30859L10.9021 1.13699C10.6625 0.96277 10.338 0.96277 10.0984 1.13699C8.52223 2.28336 3.40758 6.00343 1.68758 7.25445C1.51082 7.383 1.40625 7.5884 1.40625 7.80699V19.3168C1.40625 19.6941 1.71211 20 2.08945 20H2.89363C2.51629 20 2.21043 19.6941 2.21043 19.3168Z" fill="#ED3A3A"/>
<path d="M10.1579 13.3211L2.08936 20H18.9109L10.8424 13.3211C10.6438 13.1568 10.3565 13.1568 10.1579 13.3211Z" fill="#FC8B8B"/>
<path d="M2.37639 19.7624L2.08936 20H2.89334C2.68654 19.9999 2.50162 19.9076 2.37639 19.7624Z" fill="#FC7575"/>
<path d="M11.103 13.5368L18.911 20C19.2883 20 19.5942 19.6941 19.5942 19.3168V7.80695L11.103 13.5368Z" fill="#FC7575"/>
<path d="M1.40625 7.80695V19.3168C1.40625 19.6941 1.71215 20 2.08945 20L9.89742 13.5368L1.40625 7.80695Z" fill="#FC7575"/>
<path d="M2.21068 8.34961L1.4065 7.80695C1.4065 20.0184 1.40189 19.3365 1.41572 19.424C1.46732 19.7502 1.74896 20 2.0897 20L2.37669 19.7624C2.27349 19.6427 2.21064 19.4872 2.21064 19.3168L2.21068 8.34961Z" fill="#FF5050"/>
<path d="M16.2037 0C16.0162 0 5.22729 0 4.79748 0C4.5051 0 4.26807 0.237031 4.26807 0.529414V9.73406L9.89772 13.533L10.1583 13.3173C10.3569 13.1529 10.6442 13.1529 10.8428 13.3173L11.1034 13.533L16.7331 9.7341C16.7331 9.10742 16.7331 0.850234 16.7331 0.529453C16.7331 0.237031 16.496 0 16.2037 0Z" fill="#E4EAF8"/>
<path d="M5.07225 0H4.79748C4.5051 0 4.26807 0.237031 4.26807 0.529414V9.73406L5.07225 10.2767V0Z" fill="#D8DCE5"/>
<path d="M10.5007 11.3885C10.3342 11.3885 10.1992 11.2535 10.1992 11.087V8.46153C10.1992 8.29504 10.3342 8.16008 10.5007 8.16008C10.6671 8.16008 10.8021 8.29504 10.8021 8.46153V11.087C10.8021 11.2535 10.6671 11.3885 10.5007 11.3885Z" fill="#D8DCE5"/>
<path d="M10.869 7.59738C10.7489 7.62422 10.6259 7.63961 10.5003 7.63961C10.3746 7.63961 10.2516 7.62422 10.1315 7.59738L9.90994 8.26898C9.8651 8.40488 9.9569 8.5484 10.0887 8.5484H10.9118C11.0436 8.5484 11.1354 8.40492 11.0905 8.26898L10.869 7.59738Z" fill="#00AAF0"/>
<path d="M12.9914 11.3885C12.8249 11.3885 12.6899 11.2535 12.6899 11.087V8.84359C12.6899 8.67711 12.8249 8.54214 12.9914 8.54214C13.1579 8.54214 13.2928 8.67711 13.2928 8.84359V11.087C13.2928 11.2535 13.1579 11.3885 12.9914 11.3885Z" fill="#D8DCE5"/>
<path d="M13.3226 8.31078C13.2155 8.33879 13.1049 8.35387 12.9917 8.35387C12.8784 8.35387 12.7678 8.33879 12.6607 8.31078L12.5285 8.70313C12.4934 8.80754 12.5654 8.91778 12.6688 8.91778H13.3145C13.4179 8.91778 13.49 8.80754 13.4548 8.70313L13.3226 8.31078Z" fill="#E59F23"/>
<path d="M8.00945 11.3885C7.84297 11.3885 7.70801 11.2535 7.70801 11.087V8.84359C7.70801 8.67711 7.84297 8.54214 8.00945 8.54214C8.17594 8.54214 8.3109 8.67711 8.3109 8.84359V11.087C8.3109 11.2535 8.17594 11.3885 8.00945 11.3885Z" fill="#D8DCE5"/>
<path d="M8.34019 8.31078C8.23308 8.33879 8.12249 8.35387 8.00925 8.35387C7.89601 8.35387 7.78542 8.33879 7.67831 8.31078L7.54613 8.70313C7.51097 8.80754 7.583 8.91778 7.68636 8.91778H8.3321C8.4355 8.91778 8.50753 8.80754 8.47234 8.70313L8.34019 8.31078Z" fill="#ED3A3A"/>
<path d="M11.3174 6.25985C11.3174 5.22493 11.9098 4.36243 12.6957 4.16813C12.4383 2.95875 11.553 2.06723 10.5002 2.06723C9.4473 2.06723 8.56207 2.95879 8.30469 4.16813C9.09055 4.36243 9.68297 5.22493 9.68297 6.25985C9.68297 6.67239 9.58859 7.05735 9.42562 7.38371C9.74559 7.59793 10.1114 7.71969 10.5002 7.71969C10.889 7.71969 11.2548 7.59793 11.5748 7.38371C11.4118 7.05731 11.3174 6.67235 11.3174 6.25985Z" fill="#00C3FF"/>
<path d="M10.208 7.69637C10.4159 7.26215 10.527 6.76976 10.527 6.25984C10.527 5.50766 10.2858 4.79316 9.8477 4.24809C9.50504 3.82172 9.05816 3.52809 8.57305 3.39848C8.45477 3.6341 8.36328 3.89273 8.30469 4.16812C9.09055 4.36242 9.68297 5.22496 9.68297 6.25984C9.68297 6.67238 9.58859 7.0573 9.42563 7.38371C9.6641 7.54332 9.92805 7.65152 10.208 7.69637Z" fill="#00AAF0"/>
<path d="M12.9915 8.3927C13.9382 8.3927 14.7056 7.43775 14.7056 6.25977C14.7056 5.08178 13.9382 4.12684 12.9915 4.12684C12.0448 4.12684 11.2773 5.08178 11.2773 6.25977C11.2773 7.43775 12.0448 8.3927 12.9915 8.3927Z" fill="#F9B428"/>
<path d="M12.0812 6.25984C12.0812 5.25418 12.6407 4.4116 13.3934 4.18648C13.2644 4.14793 13.13 4.12695 12.9915 4.12695C12.0448 4.12695 11.2773 5.08188 11.2773 6.25988C11.2773 7.43789 12.0448 8.39281 12.9915 8.39281C13.13 8.39281 13.2645 8.37184 13.3934 8.33324C12.6407 8.10805 12.0812 7.26551 12.0812 6.25984Z" fill="#E59F23"/>
<path d="M8.00955 8.3927C8.95624 8.3927 9.72369 7.43775 9.72369 6.25977C9.72369 5.08178 8.95624 4.12684 8.00955 4.12684C7.06286 4.12684 6.29541 5.08178 6.29541 6.25977C6.29541 7.43775 7.06286 8.3927 8.00955 8.3927Z" fill="#FF5050"/>
<path d="M7.09023 6.25984C7.09023 5.25227 7.65188 4.40848 8.40672 4.18524C8.27906 4.1475 8.14602 4.12691 8.00906 4.12691C7.06238 4.12691 6.29492 5.08184 6.29492 6.25984C6.29492 7.43785 7.06238 8.39277 8.00906 8.39277C8.14602 8.39277 8.27906 8.37219 8.40672 8.33445C7.65188 8.11121 7.09023 7.26738 7.09023 6.25984Z" fill="#ED3A3A"/>
</g>
<defs>
<clipPath id="clip0_3318_63180">
<rect width="20" height="20" fill="white" transform="translate(0.5)"/>
</clipPath>
</defs>
</svg>
