<svg width="20" height="21" viewBox="0 0 20 21" fill="none" xmlns="http://www.w3.org/2000/svg">
<path d="M17.9575 10.5263V5.67337C17.9575 5.18606 17.5625 4.79102 17.0752 4.79102H2.95755C2.47024 4.79102 2.0752 5.18606 2.0752 5.67337V10.5263H17.9575Z" fill="#FCB910"/>
<path d="M4.08887 10.7701V2.57261C4.08887 2.0294 4.53331 1.58496 5.07652 1.58496H14.953C15.4985 1.58496 15.9407 2.02715 15.9407 2.57261V10.7701H4.08887Z" fill="#E5E8F9"/>
<path d="M0.713333 8.11836C0.657198 7.76143 0.932915 7.4375 1.29423 7.4375H5.24142C5.46337 7.4375 5.66634 7.56271 5.76592 7.76108L6.62264 9.46764C6.72199 9.66552 6.92447 9.79044 7.14589 9.79044L18.7072 9.79042C19.0782 9.79042 19.3563 10.1288 19.2827 10.4924C19.1016 11.3875 18.6984 13.4002 17.8056 17.901C17.7236 18.3141 17.3608 18.6139 16.9397 18.6139L3.12474 18.614C2.69056 18.614 2.32091 18.2981 2.25318 17.8692C1.73789 14.6063 1.28649 11.7478 0.713333 8.11836Z" fill="#FFCC33"/>
<path d="M12.6918 3.615H7.33875C7.21697 3.615 7.11816 3.51627 7.11816 3.39442C7.11816 3.27256 7.21697 3.17383 7.33875 3.17383H12.6918C12.8135 3.17383 12.9123 3.27256 12.9123 3.39442C12.9123 3.51627 12.8135 3.615 12.6918 3.615Z" fill="#FF4848"/>
<path d="M13.9449 5.08668H6.08485C5.96306 5.08668 5.86426 4.98795 5.86426 4.8661C5.86426 4.74424 5.96306 4.64551 6.08485 4.64551H13.9449C14.0667 4.64551 14.1655 4.74424 14.1655 4.8661C14.1655 4.98795 14.0667 5.08668 13.9449 5.08668Z" fill="#C5CEEA"/>
<path d="M13.9449 8.032H6.08485C5.96306 8.032 5.86426 7.93326 5.86426 7.81141C5.86426 7.68955 5.96306 7.59082 6.08485 7.59082H13.9449C14.0667 7.59082 14.1655 7.68955 14.1655 7.81141C14.1655 7.93326 14.0667 8.032 13.9449 8.032Z" fill="#C5CEEA"/>
<path d="M13.9449 6.55934H6.08485C5.96306 6.55934 5.86426 6.46061 5.86426 6.33875C5.86426 6.2169 5.96306 6.11816 6.08485 6.11816H13.9449C14.0667 6.11816 14.1655 6.2169 14.1655 6.33875C14.1655 6.46061 14.0667 6.55934 13.9449 6.55934Z" fill="#C5CEEA"/>
<path d="M8.6687 14.1523L10.1044 12.0861C10.2051 11.9413 10.4194 11.9414 10.5199 12.0863L11.953 14.1525C12.0693 14.3202 11.9493 14.5495 11.7452 14.5495H11.1126L11.1129 16.5352C11.1129 16.6749 10.9997 16.7881 10.86 16.7881H9.76166C9.622 16.7881 9.50879 16.6749 9.50876 16.5353L9.50842 14.5495H8.87638C8.67218 14.5495 8.55218 14.32 8.6687 14.1523Z" fill="#FF4848"/>
<path d="M2.60401 12.9858C2.53293 12.9858 2.47031 12.9341 2.45897 12.8616L1.97255 9.78142C1.95977 9.70114 2.01463 9.62589 2.09477 9.61318C2.17533 9.60039 2.25044 9.65526 2.26294 9.73546L2.74935 12.8158C2.76213 12.896 2.70727 12.9713 2.62714 12.984C2.61938 12.9852 2.61163 12.9858 2.60401 12.9858Z" fill="white"/>
</svg>
