<svg width="20" height="20" viewBox="0 0 20 20" fill="none" xmlns="http://www.w3.org/2000/svg">
<path d="M16.3535 6.35339L16.3534 6.35345L11.6464 11.0604L11.5 11.2069V11.414V14.9999C11.5 14.9999 11.5 15 11.5 15C11.4999 15.1326 11.4473 15.2597 11.3535 15.3534L11.3534 15.3534L9.3535 17.3534C9.35348 17.3534 9.35346 17.3534 9.35345 17.3534C9.28353 17.4233 9.19447 17.4709 9.09752 17.4902C9.00054 17.5095 8.90002 17.4996 8.80867 17.4617C8.71732 17.4239 8.63924 17.3598 8.5843 17.2776C8.52938 17.1954 8.50004 17.0988 8.5 17C8.5 17 8.5 16.9999 8.5 16.9999V11.414V11.2069L8.35355 11.0604L3.64655 6.35345L3.6465 6.35339C3.55275 6.25967 3.50006 6.13256 3.5 6C3.5 5.99996 3.5 5.99993 3.5 5.99989V3C3.5 2.86739 3.55268 2.74021 3.64645 2.64645C3.74021 2.55268 3.86739 2.5 4 2.5H16C16.1326 2.5 16.2598 2.55268 16.3536 2.64645C16.4473 2.74021 16.5 2.86739 16.5 3V5.99989C16.5 5.99993 16.5 5.99996 16.5 6C16.4999 6.13256 16.4473 6.25967 16.3535 6.35339Z" fill="#4284F3" stroke="#4284F3"/>
</svg>
