<svg width="100" height="100" viewBox="0 0 100 100" fill="none" xmlns="http://www.w3.org/2000/svg">
<g clip-path="url(#clip0_3866_64618)">
<path d="M50 100C77.6142 100 100 77.6142 100 50C100 22.3858 77.6142 0 50 0C22.3858 0 0 22.3858 0 50C0 77.6142 22.3858 100 50 100Z" fill="#7C75D9"/>
<path d="M88.1621 82.3047C81.9914 89.5842 73.8691 94.9489 64.7516 97.767C55.6342 100.585 45.9013 100.739 36.6992 98.2109L19.3164 80.8281L52.2207 46.3633L88.1621 82.3047Z" fill="#554CCE"/>
<path d="M100 50C100.018 61.3474 96.1591 72.3604 89.0625 81.2149L50.6895 42.8438L51.2871 41.6074L42.5254 32.8457L46.6953 28.6758L54.3652 36.3477L58.2539 25.1816L51.7734 18.7012C51.7734 18.7012 55.4844 17.8223 55.4043 14.0957L69.8906 28.582L74.7344 24.1211L100 49.3828V50Z" fill="#554CCE"/>
<path d="M27.3965 74.0721L60.416 60.4901C61.3223 60.119 61.6328 59.0135 61.0879 58.0956C59.5528 55.5057 56.3203 50.4628 52.2207 46.3632C48.2559 42.3983 43.4317 39.3612 40.9239 37.9081C40.0078 37.3788 38.918 37.6932 38.5489 38.5917L24.959 71.6327C24.3692 73.0682 25.9629 74.662 27.3965 74.0721Z" fill="#ED3F03"/>
<path d="M41.127 68.4258L33.416 71.5957L27.4336 65.6152L30.6055 57.9043L41.127 68.4258Z" fill="#FCB424"/>
<path d="M55.0996 62.6758L47.3887 65.8477L33.1816 51.6406L36.3535 43.9316L55.0996 62.6758Z" fill="#FCB424"/>
<path d="M28.5158 71.6272L27.885 73.9866C27.8439 74.1408 27.844 74.303 27.8851 74.4572C27.9262 74.6114 28.007 74.7522 28.1194 74.8655L29.8459 76.592C29.9592 76.7046 30.0407 76.8451 30.0823 76.9993C30.124 77.1535 30.1242 77.316 30.083 77.4703C30.0418 77.6246 29.9606 77.7653 29.8477 77.8783C29.7347 77.9912 29.594 78.0723 29.4397 78.1135L27.0803 78.7444C26.9261 78.7861 26.7856 78.8676 26.6729 78.9808C26.5601 79.0939 26.479 79.2346 26.4377 79.3889L25.8049 81.7483C25.7637 81.9026 25.6826 82.0433 25.5697 82.1563C25.4567 82.2692 25.316 82.3504 25.1617 82.3916C25.0074 82.4328 24.8449 82.4326 24.6907 82.3909C24.5365 82.3493 24.396 82.2678 24.2834 82.1545L22.5569 80.428C22.4437 80.3154 22.3029 80.2345 22.1487 80.1934C21.9945 80.1523 21.8322 80.1523 21.678 80.1936L19.3186 80.8244C19.1644 80.866 19.002 80.8662 18.8478 80.825C18.6936 80.7838 18.5529 80.7026 18.44 80.5897C18.3271 80.4768 18.246 80.3362 18.2048 80.1819C18.1636 80.0277 18.1637 79.8653 18.2053 79.7112L18.8303 77.344C18.8716 77.1898 18.8716 77.0274 18.8305 76.8732C18.7894 76.719 18.7085 76.5782 18.5959 76.4651L16.8694 74.7385C16.7561 74.6259 16.6746 74.4854 16.6329 74.3312C16.5913 74.177 16.5911 74.0145 16.6323 73.8602C16.6735 73.7059 16.7547 73.5652 16.8676 73.4523C16.9806 73.3393 17.1213 73.2582 17.2756 73.217L19.635 72.5842C19.7893 72.5429 19.93 72.4618 20.0431 72.3491C20.1562 72.2363 20.2378 72.0958 20.2795 71.9416L20.9104 69.5823C20.9516 69.4279 21.0327 69.2872 21.1456 69.1743C21.2586 69.0613 21.3993 68.9801 21.5536 68.9389C21.7079 68.8977 21.8703 68.898 22.0245 68.9396C22.1787 68.9812 22.3192 69.0628 22.4319 69.176L24.1584 70.9026C24.2717 71.015 24.4125 71.0957 24.5667 71.1368C24.7208 71.178 24.8831 71.178 25.0373 71.1369L27.3967 70.508C27.5518 70.4647 27.7157 70.4634 27.8715 70.5042C28.0273 70.5451 28.1695 70.6266 28.2834 70.7405C28.3973 70.8544 28.4788 70.9966 28.5197 71.1524C28.5605 71.3082 28.5592 71.472 28.5158 71.6272Z" fill="#07B7EE"/>
<path d="M53.5039 45.2793C53.4314 45.2097 53.3885 45.1149 53.3842 45.0145C53.3798 44.9141 53.4143 44.8159 53.4805 44.7402L66.3008 29.2148L69.5684 32.4824L54.043 45.3125C53.9661 45.3775 53.8672 45.4103 53.7668 45.4041C53.6664 45.3979 53.5722 45.3532 53.5039 45.2793Z" fill="#07B7EE"/>
<path d="M55.9627 47.4027C57.8611 45.7425 66.617 38.5667 75.0486 39.6937L75.1307 44.8636C75.1307 44.8636 68.281 41.6644 56.5037 48.1839C56.4138 48.2341 56.3099 48.2535 56.208 48.239C56.106 48.2246 56.0116 48.1771 55.9392 48.1038C55.8917 48.0579 55.8543 48.0025 55.8295 47.9412C55.8047 47.8799 55.793 47.8141 55.7952 47.748C55.7974 47.682 55.8134 47.6171 55.8423 47.5576C55.8711 47.4981 55.9122 47.4453 55.9627 47.4027Z" fill="#ED3F03"/>
<path d="M51.3811 42.8203C53.0412 40.9219 60.217 32.166 59.0901 23.7324L53.9202 23.6523C53.9202 23.6523 57.1194 30.502 50.6096 42.2793C50.5594 42.3692 50.54 42.4731 50.5545 42.575C50.5689 42.677 50.6164 42.7714 50.6897 42.8437C50.7355 42.8897 50.7903 42.9258 50.8506 42.9496C50.911 42.9735 50.9756 42.9847 51.0405 42.9825C51.1054 42.9803 51.1691 42.9648 51.2277 42.9369C51.2863 42.909 51.3385 42.8693 51.3811 42.8203Z" fill="#FCB424"/>
<path d="M74.7339 24.1206C73.5347 26.062 73.5464 27.9702 74.7339 29.9155C74.7403 29.9253 74.7431 29.937 74.742 29.9486C74.7408 29.9602 74.7356 29.971 74.7274 29.9793C74.7191 29.9876 74.7082 29.9927 74.6966 29.9939C74.685 29.9951 74.6734 29.9923 74.6636 29.9859C72.7105 28.7652 70.8003 28.7866 68.855 29.9859C68.8452 29.9913 68.834 29.9934 68.8229 29.9917C68.8119 29.9901 68.8017 29.9849 68.7939 29.9769C68.7861 29.9689 68.7812 29.9585 68.7799 29.9474C68.7786 29.9364 68.7809 29.9251 68.7866 29.9155C70.0073 27.9624 69.9937 26.0601 68.7866 24.107C68.7802 24.0972 68.7774 24.0855 68.7786 24.0739C68.7798 24.0623 68.7849 24.0514 68.7932 24.0432C68.8015 24.0349 68.8123 24.0298 68.8239 24.0286C68.8355 24.0274 68.8472 24.0302 68.8569 24.0366C70.7944 25.2495 72.7007 25.2456 74.6499 24.0523C74.659 24.0411 74.6721 24.034 74.6864 24.0326C74.7007 24.0311 74.715 24.0354 74.7261 24.0445C74.7372 24.0535 74.7443 24.0666 74.7458 24.0809C74.7472 24.0952 74.743 24.1095 74.7339 24.1206Z" fill="#07B7EE"/>
<path d="M84.9157 43.7165C82.6442 43.9469 81.1384 45.1169 80.3219 47.2497C80.3177 47.2602 80.3101 47.269 80.3003 47.2747C80.2905 47.2804 80.279 47.2827 80.2678 47.2811C80.2565 47.2795 80.2461 47.2742 80.2382 47.266C80.2304 47.2579 80.2255 47.2473 80.2243 47.236C80.0075 44.9469 78.8219 43.4411 76.6872 42.6286C76.6766 42.6244 76.6678 42.6167 76.6621 42.6069C76.6564 42.5971 76.6542 42.5856 76.6558 42.5744C76.6573 42.5632 76.6626 42.5528 76.6708 42.5449C76.679 42.537 76.6896 42.5321 76.7008 42.5309C78.9899 42.3141 80.4938 41.1423 81.3161 39.0016C81.3203 38.9911 81.3279 38.9823 81.3378 38.9766C81.3476 38.9709 81.359 38.9686 81.3703 38.9702C81.3815 38.9718 81.3919 38.9771 81.3998 38.9853C81.4077 38.9934 81.4126 39.004 81.4137 39.0153C81.6305 41.2907 82.7946 42.8005 84.9294 43.6188C84.9399 43.623 84.9487 43.6307 84.9544 43.6405C84.9601 43.6503 84.9624 43.6618 84.9608 43.673C84.9592 43.6842 84.9539 43.6946 84.9457 43.7025C84.9376 43.7104 84.927 43.7153 84.9157 43.7165Z" fill="#ED3F03"/>
<path d="M55.3063 14.1071C55.0778 16.3786 53.9059 17.8844 51.7731 18.7009C51.7626 18.7051 51.7538 18.7127 51.7481 18.7225C51.7424 18.7323 51.7401 18.7438 51.7417 18.755C51.7433 18.7663 51.7486 18.7767 51.7567 18.7845C51.7649 18.7924 51.7755 18.7973 51.7868 18.7985C54.0758 19.0153 55.5817 20.2009 56.3942 22.3356C56.3984 22.3462 56.4061 22.355 56.4159 22.3607C56.4257 22.3664 56.4372 22.3686 56.4484 22.367C56.4596 22.3655 56.47 22.3602 56.4779 22.352C56.4858 22.3438 56.4907 22.3332 56.4919 22.3219C56.7087 20.0329 57.8805 18.529 60.0212 17.7067C60.0317 17.7025 60.0405 17.6949 60.0462 17.685C60.0519 17.6752 60.0542 17.6638 60.0526 17.6525C60.051 17.6413 60.0457 17.6309 60.0375 17.623C60.0294 17.6151 60.0188 17.6102 60.0075 17.6091C57.7321 17.3923 56.2223 16.2282 55.404 14.0934C55.3998 14.0829 55.3921 14.0741 55.3823 14.0684C55.3725 14.0627 55.361 14.0604 55.3498 14.062C55.3385 14.0636 55.3282 14.0689 55.3203 14.0771C55.3124 14.0852 55.3075 14.0958 55.3063 14.1071Z" fill="#FCB424"/>
<path d="M71.887 53.8674L71.5803 55.0159C71.5641 55.0762 71.564 55.1397 71.5801 55.2001C71.5962 55.2604 71.628 55.3154 71.6721 55.3596L72.512 56.1995C72.5563 56.2436 72.5883 56.2987 72.6045 56.3591C72.6208 56.4196 72.6207 56.4833 72.6045 56.5437C72.5882 56.6042 72.5563 56.6593 72.5119 56.7034C72.4676 56.7476 72.4123 56.7792 72.3518 56.7952L71.2053 57.1038C71.1449 57.1193 71.0898 57.1507 71.0455 57.1946C71.0012 57.2386 70.9694 57.2935 70.9534 57.3538L70.6448 58.5022C70.6288 58.5627 70.5972 58.618 70.553 58.6623C70.5089 58.7067 70.4538 58.7386 70.3933 58.7549C70.3329 58.7711 70.2692 58.7711 70.2088 58.7549C70.1483 58.7386 70.0932 58.7067 70.0491 58.6623L69.2092 57.8225C69.1649 57.7785 69.1099 57.7467 69.0497 57.7303C68.9895 57.7139 68.926 57.7133 68.8655 57.7288L67.717 58.0373C67.6567 58.0536 67.5932 58.0536 67.5329 58.0375C67.4726 58.0213 67.4176 57.9896 67.3734 57.9454C67.3293 57.9013 67.2975 57.8463 67.2814 57.7859C67.2652 57.7256 67.2653 57.6621 67.2815 57.6018L67.5901 56.4534C67.6055 56.3929 67.605 56.3294 67.5885 56.2691C67.5721 56.2089 67.5403 56.1539 67.4963 56.1096L66.6565 55.2698C66.6121 55.2256 66.5802 55.1705 66.5639 55.1101C66.5477 55.0496 66.5477 54.986 66.5639 54.9255C66.5802 54.8651 66.6121 54.81 66.6565 54.7658C66.7009 54.7217 66.7561 54.69 66.8166 54.6741L67.9651 54.3655C68.0254 54.3494 68.0803 54.3176 68.1242 54.2734C68.1681 54.2291 68.1995 54.1739 68.2151 54.1135L68.5237 52.967C68.5396 52.9065 68.5713 52.8513 68.6154 52.8069C68.6596 52.7625 68.7147 52.7306 68.7751 52.7143C68.8356 52.6981 68.8992 52.6981 68.9597 52.7143C69.0201 52.7306 69.0752 52.7625 69.1194 52.8069L69.9592 53.6467C70.0035 53.6907 70.0585 53.7225 70.1187 53.7389C70.179 53.7553 70.2425 53.7559 70.303 53.7405L71.4514 53.4319C71.5117 53.4157 71.5752 53.4156 71.6355 53.4318C71.6959 53.4479 71.7509 53.4797 71.795 53.5238C71.8392 53.568 71.8709 53.623 71.8871 53.6833C71.9032 53.7436 71.9032 53.8071 71.887 53.8674Z" fill="#FCB424"/>
<path d="M46.6956 28.6754L46.387 29.8238C46.3715 29.8843 46.3721 29.9478 46.3885 30.008C46.4049 30.0683 46.4367 30.1232 46.4807 30.1675L47.3206 31.0074C47.3649 31.0515 47.3968 31.1066 47.4131 31.1671C47.4293 31.2275 47.4293 31.2912 47.4131 31.3516C47.3968 31.4121 47.3649 31.4672 47.3205 31.5113C47.2762 31.5555 47.2209 31.5871 47.1604 31.6031L46.012 31.9097C45.9518 31.926 45.897 31.9578 45.853 32.0021C45.8091 32.0463 45.7777 32.1014 45.762 32.1617L45.4534 33.3101C45.4374 33.3706 45.4058 33.4259 45.3616 33.4703C45.3175 33.5146 45.2624 33.5466 45.2019 33.5628C45.1415 33.5791 45.0778 33.5791 45.0174 33.5628C44.9569 33.5466 44.9018 33.5146 44.8577 33.4703L44.0178 32.6304C43.9735 32.5864 43.9185 32.5547 43.8583 32.5382C43.7981 32.5218 43.7346 32.5213 43.6741 32.5367L42.5256 32.8453C42.4653 32.8615 42.4018 32.8615 42.3415 32.8454C42.2812 32.8292 42.2262 32.7975 42.182 32.7533C42.1379 32.7092 42.1061 32.6542 42.09 32.5939C42.0738 32.5335 42.0739 32.47 42.0901 32.4097L42.3987 31.2613C42.4141 31.2008 42.4135 31.1373 42.3971 31.0771C42.3807 31.0168 42.3489 30.9618 42.3049 30.9175L41.4651 30.0777C41.4207 30.0335 41.3888 29.9785 41.3725 29.918C41.3563 29.8575 41.3563 29.7939 41.3725 29.7334C41.3888 29.673 41.4207 29.6179 41.4651 29.5737C41.5095 29.5296 41.5647 29.4979 41.6252 29.482L42.7737 29.1734C42.8339 29.1572 42.8887 29.1253 42.9326 29.0811C42.9765 29.0368 43.0079 28.9818 43.0237 28.9214L43.3323 27.775C43.3491 27.7163 43.3808 27.663 43.4242 27.6201C43.4676 27.5772 43.5213 27.5462 43.5802 27.5302C43.6391 27.5141 43.7011 27.5134 43.7603 27.5282C43.8195 27.5431 43.8739 27.5729 43.9182 27.6148L44.7581 28.4546C44.8022 28.4988 44.8573 28.5305 44.9176 28.5466C44.978 28.5628 45.0415 28.5627 45.1018 28.5464L46.2502 28.2398C46.3112 28.2214 46.3759 28.2197 46.4377 28.2348C46.4995 28.25 46.5561 28.2814 46.6016 28.3259C46.6471 28.3704 46.6799 28.4263 46.6964 28.4878C46.7129 28.5493 46.7126 28.614 46.6956 28.6754Z" fill="#ED3F03"/>
</g>
<defs>
<clipPath id="clip0_3866_64618">
<rect width="100" height="100" fill="white"/>
</clipPath>
</defs>
</svg>
