<svg width="20" height="20" viewBox="0 0 20 20" fill="none" xmlns="http://www.w3.org/2000/svg">
<g clip-path="url(#clip0_4283_65094)">
<path d="M5.60271 2.9758C5.02133 1.92489 3.96926 1.21875 2.98466 1.21875C2.25047 1.21875 1.50459 1.60697 0.938317 2.28386C0.402815 2.92395 0.0957031 3.72363 0.0957031 4.47776C0.0957031 5.40691 0.643442 6.28225 1.56091 6.81926C1.60834 6.84704 1.66032 6.86024 1.71166 6.86024C1.81334 6.86024 1.91242 6.8083 1.96839 6.71491C2.82702 5.28143 4.04084 4.13035 5.47855 3.38599C5.55021 3.34888 5.60386 3.28435 5.62722 3.20714C5.65062 3.12986 5.64177 3.04643 5.60271 2.9758Z" fill="#525256"/>
<path d="M2.50058 5.87968C1.58311 5.34266 1.03537 4.46733 1.03537 3.53818C1.03537 2.89637 1.25846 2.22196 1.65482 1.64062C1.39693 1.80935 1.15451 2.02554 0.938317 2.28394C0.402815 2.92404 0.0957031 3.72372 0.0957031 4.47785C0.0957031 5.407 0.643442 6.28233 1.56091 6.81935C1.60834 6.84713 1.66032 6.86033 1.71166 6.86033C1.81334 6.86033 1.91242 6.80839 1.96839 6.715C2.13978 6.42886 2.32556 6.15415 2.52426 5.89148C2.51632 5.88769 2.50831 5.88419 2.50058 5.87968Z" fill="#454549"/>
<path d="M14.4934 2.9758C15.0748 1.92489 16.1269 1.21875 17.1114 1.21875C17.8456 1.21875 18.5915 1.60697 19.1578 2.28386C19.6933 2.92395 20.0004 3.72363 20.0004 4.47776C20.0004 5.40691 19.4527 6.28225 18.5352 6.81926C18.4878 6.84704 18.4358 6.86024 18.3844 6.86024C18.2828 6.86024 18.1837 6.8083 18.1277 6.71491C17.2691 5.28143 16.0553 4.13035 14.6176 3.38599C14.5459 3.34888 14.4922 3.28435 14.4689 3.20714C14.4455 3.12986 14.4543 3.04643 14.4934 2.9758Z" fill="#525256"/>
<path d="M17.595 5.87968C18.5124 5.34266 19.0602 4.46733 19.0602 3.53818C19.0602 2.89637 18.8371 2.22196 18.4407 1.64062C18.6986 1.80935 18.941 2.02554 19.1572 2.28394C19.6927 2.92404 19.9998 3.72372 19.9998 4.47785C19.9998 5.407 19.4521 6.28233 18.5346 6.81935C18.4872 6.84713 18.4352 6.86033 18.3839 6.86033C18.2822 6.86033 18.1831 6.80839 18.1272 6.715C17.9558 6.42886 17.77 6.15415 17.5713 5.89148C17.5793 5.88769 17.5873 5.88419 17.595 5.87968Z" fill="#454549"/>
<path d="M17.4372 4.97282C16.1484 3.50697 13.8108 1.76044 9.98848 1.75004C9.98673 1.75 9.98497 1.75 9.98318 1.75H9.95432C9.95257 1.75 9.95077 1.75 9.94902 1.75004C6.12677 1.76044 3.78913 3.50697 2.50034 4.97282C0.91133 6.78013 0 9.20119 0 11.6153C0 13.8225 1.02704 15.6707 2.97011 16.9602C4.73335 18.1303 7.21112 18.7768 9.95002 18.782C9.95145 18.782 9.95293 18.782 9.95436 18.782H9.98322C9.98469 18.782 9.98613 18.782 9.98756 18.782C12.7265 18.7768 15.2042 18.1303 16.9675 16.9602C18.9105 15.6707 19.9376 13.8225 19.9376 11.6153C19.9375 9.20119 19.0262 6.78013 17.4372 4.97282Z" fill="#E0E0E0"/>
<path d="M16.9674 15.5801C15.2042 16.7502 12.7264 17.3968 9.98752 17.4019C9.98609 17.402 9.98461 17.402 9.98318 17.402H9.95432C9.95285 17.402 9.95141 17.402 9.94998 17.4019C7.21108 17.3968 4.73335 16.7502 2.97007 15.5801C1.21613 14.4162 0.20886 12.7968 0.0293759 10.8691C0.0102437 11.1176 0 11.3666 0 11.6157C0 13.8229 1.02704 15.6711 2.97011 16.9606C4.73335 18.1307 7.21112 18.7772 9.95002 18.7824C9.95145 18.7824 9.95293 18.7824 9.95436 18.7824H9.98322C9.98469 18.7824 9.98613 18.7824 9.98756 18.7824C12.7265 18.7772 15.2042 18.1307 16.9675 16.9606C18.9105 15.6711 19.9376 13.8229 19.9376 11.6157C19.9376 11.3667 19.9273 11.1176 19.9082 10.8691C19.7287 12.7968 18.7214 14.4162 16.9674 15.5801Z" fill="#C4C4C4"/>
<path d="M8.09922 7.75277C7.70019 7.25701 7.06704 6.97266 6.36209 6.97266C5.64316 6.97266 4.94125 7.22137 4.38562 7.67297C3.74644 8.19249 3.32223 8.96061 3.15885 9.89426C3.00519 10.7722 3.17507 11.5828 3.62483 12.1181C3.98763 12.55 4.49611 12.7782 5.09534 12.7782C5.75385 12.7782 6.51431 12.4402 7.18179 11.8509C7.84962 11.2613 8.32422 10.5047 8.48381 9.77512C8.65517 8.99194 8.51857 8.27376 8.09922 7.75277Z" fill="#525256"/>
<path d="M13.5519 13.8954C13.4903 13.7421 13.3161 13.668 13.163 13.7296C11.5655 14.3725 10.5842 13.3769 10.3465 13.0937V12.6378C10.3465 12.4727 10.2126 12.3389 10.0476 12.3389C9.88246 12.3389 9.74861 12.4727 9.74861 12.6378V13.0936C9.50974 13.3781 8.52873 14.3721 6.93207 13.7296C6.77894 13.6679 6.60475 13.7421 6.54317 13.8953C6.48155 14.0485 6.55573 14.2226 6.7089 14.2843C7.16656 14.4684 7.58408 14.5397 7.95644 14.5397C8.54029 14.5397 9.0129 14.3643 9.35341 14.1743C9.65706 14.0048 9.88975 13.8062 10.0476 13.6485C10.2053 13.8061 10.438 14.0048 10.7417 14.1743C11.0822 14.3643 11.5547 14.5397 12.1387 14.5397C12.511 14.5397 12.9286 14.4684 13.3862 14.2843C13.5393 14.2226 13.6136 14.0485 13.5519 13.8954Z" fill="#2B2B2D"/>
<path d="M10.0477 10.6924C9.47949 10.6924 8.42188 10.6924 8.42188 11.5164C8.42188 11.8252 8.67486 12.1382 9.21805 12.5016C9.56223 12.7318 9.90139 12.8994 9.91566 12.9065C9.95727 12.927 10.0025 12.9372 10.0477 12.9372C10.093 12.9372 10.1382 12.927 10.1798 12.9065C10.194 12.8994 10.5332 12.7318 10.8774 12.5015C11.4205 12.1382 11.6735 11.8252 11.6735 11.5164C11.6734 10.6924 10.6159 10.6924 10.0477 10.6924Z" fill="#525256"/>
<path d="M11.5245 11.0693C10.685 11.8043 9.41037 11.8043 8.57083 11.0693C8.47808 11.1816 8.42188 11.3269 8.42188 11.5161C8.42188 11.8249 8.67486 12.1379 9.21805 12.5013C9.56223 12.7314 9.90139 12.8991 9.91566 12.9061C9.95727 12.9267 10.0025 12.9369 10.0477 12.9369C10.093 12.9369 10.1382 12.9267 10.1798 12.9061C10.194 12.8991 10.5332 12.7314 10.8774 12.5012C11.4205 12.1379 11.6735 11.8249 11.6735 11.5161C11.6734 11.3269 11.6173 11.1816 11.5245 11.0693Z" fill="#454549"/>
<path d="M16.7505 9.89426C16.5871 8.96061 16.1629 8.19253 15.5238 7.67297C14.9681 7.22137 14.2662 6.97266 13.5473 6.97266C12.8424 6.97266 12.2092 7.25701 11.8102 7.75277C11.3908 8.27372 11.2542 8.99194 11.4256 9.77508C11.5852 10.5047 12.0597 11.2613 12.7276 11.8508C13.3951 12.4402 14.1556 12.7782 14.8141 12.7782C15.4133 12.7782 15.9218 12.55 16.2846 12.1181C16.7343 11.5828 16.9041 10.7722 16.7505 9.89426Z" fill="#525256"/>
<path d="M7.18179 10.453C6.51427 11.0423 5.75381 11.3804 5.09534 11.3804C4.49611 11.3804 3.98763 11.1521 3.62483 10.7203C3.41099 10.4658 3.26128 10.1486 3.17866 9.79202C3.17192 9.82594 3.16482 9.85958 3.15885 9.89394C3.00519 10.7719 3.17507 11.5825 3.62483 12.1178C3.98763 12.5496 4.49611 12.7779 5.09534 12.7779C5.75385 12.7779 6.51431 12.4399 7.18179 11.8506C7.84962 11.261 8.32422 10.5044 8.48381 9.7748C8.58689 9.30359 8.57768 8.8563 8.46333 8.46094C8.28687 9.16436 7.82419 9.88593 7.18179 10.453Z" fill="#454549"/>
<path d="M16.7304 9.79202C16.6477 10.1486 16.498 10.4658 16.2842 10.7204C15.9214 11.1522 15.4129 11.3804 14.8137 11.3804C14.1552 11.3804 13.3947 11.0424 12.7272 10.4531C12.0848 9.88597 11.6221 9.1644 11.4457 8.46094C11.3313 8.8563 11.3221 9.30359 11.4252 9.7748C11.5848 10.5044 12.0594 11.261 12.7272 11.8506C13.3947 12.4399 14.1552 12.7779 14.8137 12.7779C15.4129 12.7779 15.9214 12.5497 16.2842 12.1179C16.734 11.5825 16.9039 10.7719 16.7502 9.89394C16.7442 9.85962 16.7371 9.82594 16.7304 9.79202Z" fill="#454549"/>
<path d="M6.13012 8.78809C5.72237 8.78809 5.39062 9.11983 5.39062 9.52763C5.39062 9.93538 5.72237 10.2671 6.13012 10.2671C6.53788 10.2671 6.86962 9.93542 6.86962 9.52763C6.86962 9.11983 6.53792 8.78809 6.13012 8.78809Z" fill="#2B2B2D"/>
<path d="M13.7776 8.78809C13.3698 8.78809 13.0381 9.11983 13.0381 9.52763C13.0381 9.93538 13.3698 10.2671 13.7776 10.2671C14.1853 10.2671 14.5171 9.93542 14.5171 9.52763C14.5171 9.11983 14.1853 8.78809 13.7776 8.78809Z" fill="#2B2B2D"/>
</g>
<defs>
<clipPath id="clip0_4283_65094">
<rect width="20" height="20" fill="white"/>
</clipPath>
</defs>
</svg>
