<svg width="20" height="20" viewBox="0 0 20 20" fill="none" xmlns="http://www.w3.org/2000/svg">
<g clip-path="url(#clip0_5321_4601)">
<path d="M17.1367 9.80187C16.7504 10.7344 16.7261 11.8872 17.1123 12.8198L17.4447 13.4709H3.09702C3.09702 13.4709 0.425756 11.97 3.09702 9.29874L17.3209 9.00562L17.1367 9.80187Z" fill="#F1F2F2"/>
<path d="M17.4448 13.4711H3.0971C3.0971 13.4711 0.425923 11.97 3.0971 9.29886L17.321 9.00562L17.1366 9.80203C17.0512 10.0087 16.9833 10.2259 16.9339 10.4492H3.91456C3.41017 10.4492 3.00003 10.8593 3.00003 11.3633C3.00003 11.8677 3.41017 12.2779 3.91456 12.2779H16.9388C16.9825 12.4643 17.0403 12.6459 17.1123 12.8199L17.4448 13.4711Z" fill="#DEE1E1"/>
<path d="M17.2276 14.0802L4.11272 14.0595C2.54152 14.0595 1.19218 13.0572 1.19218 11.486C1.19218 11.139 1.13175 10.6839 1.24553 10.3764C1.64681 9.29176 2.69037 8.51855 3.91457 8.51855H17.3691C17.7235 8.51855 18.0108 8.80586 18.0108 9.16026C18.0108 9.51467 17.7235 9.80197 17.3691 9.80197H7.18636L6.19191 10.0354L5.32705 9.80197H3.91453C3.05214 9.80197 2.35304 10.5011 2.35304 11.3635C2.35304 12.2258 3.05214 12.925 3.91453 12.925H17.3691C17.7235 12.925 18.0108 13.2123 18.0108 13.5667C18.0108 13.5922 18.0093 13.6174 18.0064 13.6422C17.969 13.961 17.5564 14.0802 17.2276 14.0802Z" fill="#B7E546"/>
<path d="M18.0062 13.6421C17.9888 13.789 17.9221 13.9208 17.823 14.0203C17.7065 14.1364 17.5463 14.2084 17.3692 14.2084L10.7221 14.6068L3.91456 14.2084C2.34316 14.2084 1.06946 12.9347 1.06946 11.3633C1.06946 10.9536 1.15602 10.5641 1.31215 10.2122V10.797C1.31215 12.3684 2.58585 13.6421 4.15725 13.6421H18.0062Z" fill="#ABD641"/>
<path d="M7.1863 11.6725V9.80176H5.8529L5.37946 9.84928L5.40789 11.5916C5.40789 11.6486 5.46521 11.6877 5.51827 11.6669L5.85286 11.5851L6.22716 11.4386C6.24613 11.4312 6.26721 11.4312 6.28614 11.4386L7.07592 11.7479C7.12899 11.7686 7.1863 11.7295 7.1863 11.6725Z" fill="#EF5227"/>
<path d="M5.85291 9.802V11.5854L5.43751 11.748C5.38452 11.7686 5.32709 11.7297 5.32709 11.6727V9.802H5.85291Z" fill="#D83724"/>
<path d="M15.2925 6.88481V7.79691L15.252 8.20139C15.252 8.35792 15.125 8.48453 14.9689 8.48453L4.1891 8.44408C4.03257 8.44408 3.90597 8.31748 3.90597 8.16094L3.82507 6.88481L9.35887 6.62036L15.2925 6.88481Z" fill="#FDCD08"/>
<path d="M18.6137 6.9488C18.4461 6.9488 18.3104 6.81297 18.3104 6.64544V3.49867C18.3104 3.33114 18.4461 3.19531 18.6137 3.19531C18.7813 3.19531 18.9171 3.33114 18.9171 3.49867V6.6454C18.9171 6.81297 18.7813 6.9488 18.6137 6.9488Z" fill="#77777F"/>
<path d="M18.0715 7.64628C17.8183 8.27043 17.5635 8.88625 17.3103 9.51044C17.1589 9.88354 17.4308 10.2924 17.8303 10.2924L18.2986 10.3328H19.4375C19.837 10.3328 20.1089 9.92398 19.9576 9.55085L19.4295 8.24916L19.0974 7.64624L18.0715 7.64628Z" fill="#FDCD08"/>
<path d="M18.4792 8.4792C18.8121 8.50949 19.1611 8.42212 19.4295 8.24917L19.1455 7.53955L18.6763 7.67982L18.6764 7.6797L18.0647 7.59808C17.9874 7.78859 17.8751 8.0591 17.7978 8.24961L17.7979 8.24965C17.6219 8.68338 17.4459 9.1171 17.27 9.55082C17.1187 9.92416 17.3905 10.3327 17.7897 10.3327H18.4369C18.0377 10.3327 17.7659 9.92416 17.9171 9.55082C18.0486 9.22692 18.18 8.90305 18.3114 8.57914C18.3387 8.51192 18.407 8.4726 18.4792 8.4792Z" fill="#FAAB18"/>
<path d="M19.5474 6.93562C19.5474 6.52229 19.2838 6.17108 18.917 6.04399C18.8219 6.01103 18.6837 6.06967 18.5776 6.06967C18.0619 6.06967 17.7445 6.41514 17.7445 6.93566C17.7445 7.45619 18.1303 7.76849 18.646 7.76849C18.7521 7.76849 18.8219 7.86022 18.917 7.8273C19.2838 7.70017 19.5474 7.34896 19.5474 6.93562Z" fill="#FDCD08"/>
<path d="M18.917 7.82723C18.822 7.8604 18.7196 7.8782 18.6137 7.8782C18.0979 7.8782 17.6801 7.45592 17.6801 6.93536C17.6801 6.4152 18.0979 5.99292 18.6137 5.99292C18.7196 5.99292 18.822 6.01072 18.917 6.04388C18.5501 6.17089 18.2868 6.52238 18.2868 6.93536C18.2868 7.34873 18.5501 7.70023 18.917 7.82723Z" fill="#FAAB18"/>
<path d="M18.6884 3.82312L16.0205 4.7467L15.2925 4.67204L10.114 6.79143C9.75428 6.91597 9.36315 6.91597 9.00344 6.79143L3.82506 4.75467L3.097 4.74675L0.42893 3.82312C0.124357 3.71767 0.124357 3.28694 0.42893 3.18153L9.1046 0.178193C9.39874 0.0763447 9.7186 0.0763447 10.0127 0.178193L18.6884 3.18153C18.9929 3.28694 18.9929 3.71767 18.6884 3.82312Z" fill="#868491"/>
<path d="M16.0206 4.47305V4.74689L10.114 6.79153C9.75437 6.91611 9.36324 6.91611 9.00325 6.79153L3.09705 4.74689V4.47305C3.09705 3.89586 3.50921 3.40321 4.0775 3.30087C5.8831 2.97729 7.72712 2.81348 9.5586 2.81348C11.3901 2.81348 13.2345 2.97729 15.0401 3.30087C15.3152 3.35063 15.5647 3.49543 15.7435 3.7094C15.9215 3.92175 16.0206 4.19356 16.0206 4.47305Z" fill="#77777F"/>
<path d="M15.2924 4.47302V6.88493H3.94639L3.90594 4.55392C3.90594 4.32983 4.06652 4.13811 4.28696 4.09847C4.40252 4.07776 4.43731 3.97684 4.55307 3.95747C6.21002 3.68036 7.88444 3.5415 9.55854 3.5415C11.35 3.5415 13.1414 3.70046 14.9114 4.01758C15.0214 4.0374 15.1169 4.09524 15.1844 4.17613C15.2524 4.25703 15.2924 4.36098 15.2924 4.47302Z" fill="#868491"/>
<path d="M15.2925 7.79691V8.24184C15.2925 8.39837 15.1655 8.52497 15.0093 8.52497H4.10821C3.95184 8.52497 3.82507 8.39821 3.82507 8.24184V6.88481L4.1891 6.62036L4.55314 6.88481V7.59467C4.55314 7.70635 4.6437 7.79691 4.75538 7.79691H15.2925Z" fill="#FAAB18"/>
<path d="M4.55314 3.95776V6.88498H3.82507V4.47307C3.82507 4.24899 3.98565 4.05727 4.20609 4.01763C4.32177 3.997 4.43745 3.97677 4.55314 3.95776Z" fill="#77777F"/>
<path d="M18.2054 18.5001C17.8192 17.5676 17.8192 16.5198 18.2054 15.5873L18.3285 15.0405H1.78887C1.78887 15.0405 -0.0729859 17.0647 1.90985 19.0475L18.4362 19.1714L18.2054 18.5001Z" fill="#F1F2F2"/>
<path d="M18.4361 19.1713L1.90992 19.0475C-0.0732381 17.0648 1.78898 15.0408 1.78898 15.0408L18.408 15.0715L18.2056 15.5872C18.1308 15.7676 18.0705 15.9521 18.0248 16.1389H2.84508C2.34069 16.1389 1.93055 16.5491 1.93055 17.0531C1.93055 17.5574 2.34069 17.9676 2.84508 17.9676H18.0296C18.0749 18.148 18.1336 18.3264 18.2056 18.5003L18.4361 19.1713Z" fill="#DEE1E1"/>
<path d="M18.1576 19.7565L3.2039 19.7289C1.6327 19.7289 0.250349 18.8423 0.250349 17.2711C0.250349 16.7724 0.128399 16.0858 0.353775 15.6783C0.838543 14.8018 1.77249 14.2083 2.845 14.2083H18.4386C18.793 14.2083 19.0803 14.4956 19.0803 14.85C19.0803 15.2044 18.793 15.4917 18.4386 15.4917H14.575L13.5655 15.7151L12.7158 15.4917H2.84504C1.98265 15.4917 1.28355 16.1908 1.28355 17.0532C1.28355 17.9155 1.98265 18.6146 2.84504 18.6146H18.4386C18.793 18.6146 19.0803 18.9019 19.0803 19.2564C19.0803 19.296 19.0767 19.3347 19.0699 19.3723C19.0153 19.6714 18.4724 19.7565 18.1576 19.7565Z" fill="#EF5227"/>
<path d="M19.07 19.3723C19.0461 19.5034 18.9826 19.6199 18.8924 19.71C18.7763 19.8261 18.6158 19.8981 18.4386 19.8981H2.84511C1.2737 19.8981 0 18.6244 0 17.053C0 16.4908 0.163005 15.9666 0.444927 15.5249V16.5272C0.444927 18.0986 1.71863 19.3723 3.29003 19.3723H19.07Z" fill="#D83724"/>
<path d="M14.575 17.3771V15.4912H13.3224L12.7668 15.525L12.7966 17.2962C12.7966 17.3532 12.854 17.3923 12.907 17.3715L13.3224 17.2581L13.6159 17.1432C13.6349 17.1357 13.6559 17.1357 13.6749 17.1432L14.4646 17.4524C14.5177 17.4732 14.575 17.4341 14.575 17.3771Z" fill="#FDCD08"/>
<path d="M13.3224 15.491V17.2581L12.8261 17.4523C12.7731 17.4729 12.7157 17.4341 12.7157 17.3771V15.491H13.3224Z" fill="#FAAB18"/>
</g>
<defs>
<clipPath id="clip0_5321_4601">
<rect width="20" height="20" fill="white"/>
</clipPath>
</defs>
</svg>
