<svg width="20" height="20" viewBox="0 0 20 20" fill="none" xmlns="http://www.w3.org/2000/svg">
<g clip-path="url(#clip0_3318_61687)">
<path d="M16.2319 10.1406L14.3335 9.44916C14.2749 9.42576 14.2046 9.41404 14.1343 9.41404H1.97022C1.64205 9.41404 1.38428 9.67181 1.38428 9.99998V18.2422C1.38428 19.2148 2.1694 20 3.14209 20H14.8609C15.8336 20 16.6187 19.2148 16.6187 18.2422V10.6913C16.6187 10.4453 16.4663 10.2226 16.2319 10.1406Z" fill="#FC1A40"/>
<path d="M16.6187 10.6913V18.2422C16.6187 19.2148 15.8335 20 14.8609 20H9.00146V9.41404H14.1343C14.2046 9.41404 14.2749 9.42576 14.3335 9.44916L16.2319 10.1406C16.4663 10.2226 16.6187 10.4453 16.6187 10.6913Z" fill="#C60034"/>
<path d="M16.4074 3.81985C16.2082 3.01126 15.6106 2.37848 14.802 2.12063C14.0051 1.8745 13.1496 2.05032 12.5285 2.61278L11.1691 3.80813L10.8996 2.0152C10.7707 1.19489 10.2434 0.503439 9.45823 0.175352C9.30589 0.116719 9.15355 0.0698443 9.0012 0.0464068C8.35667 -0.0824997 7.6887 0.0581255 7.1496 0.456603C6.43475 0.972229 6.07151 1.83942 6.18866 2.70657C6.3176 3.57376 6.90354 4.31204 7.73554 4.60501L9.0012 5.06204L10.5598 5.63626C10.5715 5.63626 10.5715 5.63626 10.5715 5.63626L13.2786 6.63232C13.548 6.72611 13.8293 6.77302 14.0988 6.77302C14.6731 6.77302 15.2356 6.56201 15.6809 6.16361C16.3371 5.57767 16.6184 4.67528 16.4074 3.81985Z" fill="#FE9923"/>
<path d="M15.6812 6.1636C15.2359 6.562 14.6734 6.77302 14.0991 6.77302C13.8296 6.77302 13.5483 6.7261 13.2788 6.63231L10.5718 5.63626C10.5718 5.63626 10.5718 5.63626 10.5601 5.63626L9.00146 5.06204V0.0463638C9.15381 0.0698404 9.30615 0.116676 9.4585 0.175309C10.2436 0.503396 10.771 1.19484 10.8999 2.01516L11.1694 3.80809L12.5288 2.61274C13.1498 2.05027 14.0053 1.87445 14.8022 2.12059C15.6108 2.37844 16.2085 3.01121 16.4077 3.81981C16.6187 4.67528 16.3374 5.57766 15.6812 6.1636Z" fill="#FE8821"/>
<path d="M18.6227 9.14447L17.8258 11.3476C17.732 11.582 17.5094 11.7226 17.275 11.7226C17.2047 11.7226 17.1344 11.7109 17.0758 11.6875L11.0172 9.48436L10.4664 7.66795L9.00159 7.99603L7.71256 8.289L1.65391 6.08587C1.34923 5.96872 1.19692 5.62884 1.30235 5.33587L2.11095 3.13282C2.26329 2.68751 2.59146 2.33587 3.01333 2.13669C3.43521 1.93751 3.91564 1.91403 4.36095 2.07809L9.00163 3.7656L9.31807 3.88274C9.31807 3.88274 10.5837 6.17966 10.6189 6.17966C10.6423 6.17966 11.1462 5.89841 11.6384 5.62884C12.1305 5.35931 12.6227 5.0781 12.6227 5.0781L17.568 6.88275C18.0133 7.04681 18.3648 7.37498 18.564 7.79685C18.7633 8.21869 18.7867 8.6992 18.6227 9.14447Z" fill="#FF3E75"/>
<path d="M18.6226 9.14447L17.8257 11.3476C17.7319 11.582 17.5093 11.7226 17.2749 11.7226C17.2046 11.7226 17.1343 11.7109 17.0757 11.6875L11.0171 9.48436L10.4663 7.66795L9.00146 7.99603V3.76559L9.31791 3.88274C9.31791 3.88274 10.5835 6.17966 10.6187 6.17966C10.6422 6.17966 11.146 5.89841 11.6382 5.62884C12.1303 5.35931 12.6226 5.0781 12.6226 5.0781L17.5678 6.88275C18.0132 7.04681 18.3647 7.37498 18.5639 7.79685C18.7632 8.21869 18.7866 8.6992 18.6226 9.14447Z" fill="#FC1A40"/>
<path d="M7.24365 9.41404V20H10.7593V9.41404H7.24365Z" fill="#FCBF29"/>
<path d="M9.31787 3.88274L9.00143 4.74993L7.7124 8.28904L9.00143 8.75783L10.4663 9.28518L11.017 9.48436L12.6226 5.0781L9.31787 3.88274Z" fill="#FCBF29"/>
<path d="M10.7593 9.41404H9.00146V20H10.7593V9.41404Z" fill="#FE9923"/>
<path d="M12.6226 5.0781L11.0171 9.48436L10.4663 9.28514L9.00146 8.75779V4.74993L9.31787 3.88274L12.6226 5.0781Z" fill="#FE9923"/>
</g>
<defs>
<clipPath id="clip0_3318_61687">
<rect width="20" height="20" fill="white"/>
</clipPath>
</defs>
</svg>
