<svg width="20" height="20" viewBox="0 0 20 20" fill="none" xmlns="http://www.w3.org/2000/svg">
<path fill-rule="evenodd" clip-rule="evenodd" d="M6.91098 10.5892C6.75476 10.4329 6.66699 10.221 6.66699 10C6.66699 9.77903 6.75476 9.56711 6.91098 9.41083L11.6251 4.69667C11.702 4.61708 11.794 4.55359 11.8956 4.50992C11.9973 4.46624 12.1067 4.44325 12.2173 4.44229C12.328 4.44133 12.4377 4.46242 12.5401 4.50432C12.6425 4.54622 12.7356 4.60809 12.8138 4.68634C12.8921 4.76458 12.9539 4.85763 12.9958 4.96004C13.0377 5.06245 13.0588 5.17219 13.0579 5.28284C13.0569 5.39348 13.0339 5.50283 12.9902 5.6045C12.9466 5.70617 12.8831 5.79813 12.8035 5.875L8.67848 10L12.8035 14.125C12.9553 14.2822 13.0393 14.4927 13.0374 14.7112C13.0355 14.9297 12.9478 15.1387 12.7933 15.2932C12.6388 15.4477 12.4298 15.5353 12.2113 15.5372C11.9928 15.5391 11.7823 15.4551 11.6251 15.3033L6.91098 10.5892Z" fill="#4284F3"/>
</svg>
