<svg width="16" height="16" viewBox="0 0 16 16" fill="none" xmlns="http://www.w3.org/2000/svg">
<path d="M14 13.3333V3.99999C14 3.26466 13.402 2.66666 12.6667 2.66666H11.3333V1.33333H10V2.66666H6V1.33333H4.66667V2.66666H3.33333C2.598 2.66666 2 3.26466 2 3.99999V13.3333C2 14.0687 2.598 14.6667 3.33333 14.6667H12.6667C13.402 14.6667 14 14.0687 14 13.3333ZM6 12H4.66667V10.6667H6V12ZM6 9.33333H4.66667V7.99999H6V9.33333ZM8.66667 12H7.33333V10.6667H8.66667V12ZM8.66667 9.33333H7.33333V7.99999H8.66667V9.33333ZM11.3333 12H10V10.6667H11.3333V12ZM11.3333 9.33333H10V7.99999H11.3333V9.33333ZM12.6667 5.99999H3.33333V4.66666H12.6667V5.99999Z" fill="#4284F3"/>
</svg>
