<svg width="20" height="20" viewBox="0 0 20 20" fill="none" xmlns="http://www.w3.org/2000/svg">
<path d="M15.5252 2H5.52896C4.71484 2 4 2.62198 4 3.3582V17.0911C4 17.3375 4.07386 17.5429 4.19289 17.7016C4.33524 17.8913 4.56444 18 4.81023 17.9999C5.0426 17.9999 5.29001 17.9039 5.51848 17.7226L9.99081 14.1962C10.1289 14.0867 10.3273 14.0239 10.5336 14.0239C10.7399 14.0239 10.9379 14.0867 11.0764 14.1965L15.5338 17.7221C15.763 17.9039 15.9934 18 16.2254 18C16.6176 18 17 17.719 17 17.0911V3.3582C17 2.62198 16.3394 2 15.5252 2Z" fill="#4284F3"/>
</svg>
