<svg width="20" height="20" viewBox="0 0 20 20" fill="none" xmlns="http://www.w3.org/2000/svg">
<path d="M15.1875 12.375C14.2612 12.375 13.445 12.8307 12.9323 13.5236L8.49969 11.2539C8.57328 11.003 8.625 10.7431 8.625 10.4688C8.625 10.0967 8.54872 9.74297 8.41694 9.41762L13.0558 6.62612C13.5721 7.232 14.3309 7.625 15.1875 7.625C16.7384 7.625 18 6.36341 18 4.8125C18 3.26159 16.7384 2 15.1875 2C13.6366 2 12.375 3.26159 12.375 4.8125C12.375 5.16991 12.4486 5.50894 12.5707 5.82369L7.91797 8.62337C7.40216 8.0355 6.65428 7.65625 5.8125 7.65625C4.26159 7.65625 3 8.91784 3 10.4688C3 12.0197 4.26159 13.2812 5.8125 13.2812C6.75406 13.2812 7.58409 12.8122 8.09484 12.0998L12.5128 14.3622C12.4315 14.6248 12.375 14.8984 12.375 15.1875C12.375 16.7384 13.6366 18 15.1875 18C16.7384 18 18 16.7384 18 15.1875C18 13.6366 16.7384 12.375 15.1875 12.375Z" fill="#4284F3"/>
</svg>
