<svg width="16" height="16" viewBox="0 0 16 16" fill="none" xmlns="http://www.w3.org/2000/svg">
<path d="M8.00016 14.6666C7.07794 14.6666 6.21128 14.4915 5.40016 14.1413C4.58905 13.791 3.8835 13.3161 3.2835 12.7166C2.6835 12.117 2.20861 11.4115 1.85883 10.5999C1.50905 9.78836 1.33394 8.9217 1.3335 7.99992C1.33305 7.07814 1.50816 6.21147 1.85883 5.39992C2.2095 4.58836 2.68439 3.88281 3.2835 3.28325C3.88261 2.6837 4.58816 2.20881 5.40016 1.85859C6.21216 1.50836 7.07883 1.33325 8.00016 1.33325C8.9215 1.33325 9.78816 1.50836 10.6002 1.85859C11.4122 2.20881 12.1177 2.6837 12.7168 3.28325C13.3159 3.88281 13.7911 4.58836 14.1422 5.39992C14.4933 6.21147 14.6682 7.07814 14.6668 7.99992C14.6655 8.9217 14.4904 9.78836 14.1415 10.5999C13.7926 11.4115 13.3177 12.117 12.7168 12.7166C12.1159 13.3161 11.4104 13.7913 10.6002 14.1419C9.78994 14.4926 8.92327 14.6675 8.00016 14.6666ZM7.3335 13.2999V11.9999C6.96683 11.9999 6.65305 11.8695 6.39216 11.6086C6.13128 11.3477 6.00061 11.0337 6.00016 10.6666V9.99992L2.80016 6.79992C2.76683 6.99992 2.73639 7.19992 2.70883 7.39992C2.68127 7.59992 2.66727 7.79992 2.66683 7.99992C2.66683 9.34436 3.10861 10.5221 3.99216 11.5333C4.87572 12.5444 5.9895 13.1333 7.3335 13.2999ZM11.9335 11.5999C12.1557 11.3555 12.3557 11.0917 12.5335 10.8086C12.7113 10.5255 12.8584 10.231 12.9748 9.92525C13.0913 9.61947 13.1802 9.30547 13.2415 8.98325C13.3028 8.66103 13.3335 8.33325 13.3335 7.99992C13.3335 6.91103 13.0306 5.91658 12.4248 5.01659C11.8191 4.11659 11.0108 3.46659 10.0002 3.06659V3.33325C10.0002 3.69992 9.86972 4.01392 9.60883 4.27525C9.34794 4.53659 9.03394 4.66703 8.66683 4.66658H7.3335V5.99992C7.3335 6.18881 7.2695 6.34725 7.1415 6.47525C7.0135 6.60325 6.85527 6.66703 6.66683 6.66658H5.3335V7.99992H9.3335C9.52239 7.99992 9.68083 8.06392 9.80883 8.19192C9.93683 8.31992 10.0006 8.47814 10.0002 8.66658V10.6666H10.6668C10.9557 10.6666 11.2168 10.7528 11.4502 10.9253C11.6835 11.0977 11.8446 11.3226 11.9335 11.5999Z" fill="#A89E9F"/>
</svg>
