<svg width="20" height="20" viewBox="0 0 20 20" fill="none" xmlns="http://www.w3.org/2000/svg">
<g clip-path="url(#clip0_4283_65153)">
<path d="M17.3581 0.146131C17.7811 -0.197541 18.4135 0.103474 18.4135 0.648435V9.3207L11.2939 5.11371L17.3581 0.146131Z" fill="#FFC850"/>
<path d="M17.7665 8.93842L13.4316 6.37694L17.0434 2.30502C17.296 2.02034 17.7665 2.19893 17.7665 2.57952V8.93842Z" fill="#EBAF4B"/>
<path d="M2.64133 0.146131C2.21832 -0.197541 1.58594 0.103474 1.58594 0.648435V9.3207L8.70547 5.11371L2.64133 0.146131Z" fill="#FFC850"/>
<path d="M2.2334 8.93842L6.56828 6.37694L2.95648 2.30502C2.70395 2.02034 2.2334 2.19893 2.2334 2.57952V8.93842Z" fill="#EBAF4B"/>
<path d="M9.9998 20.0002C15.0042 20.0002 19.0611 16.1607 19.0611 11.4244C19.0611 6.68814 15.0042 2.84863 9.9998 2.84863C4.99537 2.84863 0.938477 6.68814 0.938477 11.4244C0.938477 16.1607 4.99537 20.0002 9.9998 20.0002Z" fill="#FFDC64"/>
<path d="M11.294 16.7634V17.4107C11.294 18.1256 10.7145 18.7051 9.99953 18.7051C9.28461 18.7051 8.70508 18.1256 8.70508 17.4107V16.7634L9.99953 16.1162L11.294 16.7634Z" fill="#FF8087"/>
<path d="M10.7149 13.4316H9.28566C8.97711 13.4316 8.80625 13.7893 9.00023 14.0293L9.71488 14.9134C9.86175 15.0951 10.1388 15.0951 10.2857 14.9134L11.0003 14.0293C11.1943 13.7893 11.0235 13.4316 10.7149 13.4316Z" fill="#5D5360"/>
<path d="M18.7371 17.0881C18.6868 17.0881 18.6358 17.0764 18.5881 17.0516C16.6313 16.0342 13.5689 15.4296 13.5381 15.4236C13.3627 15.3894 13.2483 15.2194 13.2824 15.044C13.3167 14.8685 13.485 14.7539 13.662 14.7883C13.7909 14.8135 16.8461 15.4163 18.8867 16.4774C19.0452 16.5599 19.107 16.7551 19.0245 16.9138C18.9668 17.0246 18.854 17.0881 18.7371 17.0881Z" fill="#E1A546"/>
<path d="M19.3845 14.8227C19.3567 14.8227 19.3284 14.819 19.3003 14.8114C17.4864 14.3238 14.1882 14.4164 14.1557 14.4178C13.9739 14.4231 13.8276 14.2827 13.8224 14.1041C13.817 13.9254 13.9575 13.7763 14.1361 13.7709C14.2752 13.7665 17.5633 13.6742 19.4685 14.1863C19.641 14.2328 19.7433 14.4102 19.6969 14.5829C19.658 14.7274 19.5274 14.8225 19.3845 14.8227Z" fill="#E1A546"/>
<path d="M12.265 19.3524C7.26062 19.3524 3.20379 15.5129 3.20379 10.7766C3.20379 7.29867 5.39262 4.30652 8.53652 2.96094C4.22816 3.62312 0.938477 7.15918 0.938477 11.4238C0.938477 16.1601 4.99531 19.9996 9.99969 19.9996C11.3293 19.9996 12.5906 19.7264 13.7282 19.2395C13.2517 19.3127 12.7633 19.3524 12.265 19.3524Z" fill="#FFC850"/>
<path d="M1.26247 17.0873C1.14556 17.0873 1.03271 17.024 0.975052 16.913C0.892552 16.7544 0.954349 16.5591 1.11283 16.4766C3.15345 15.4155 6.20865 14.8127 6.33759 14.7876C6.51314 14.7523 6.68286 14.8679 6.71716 15.0432C6.7513 15.2186 6.63689 15.3887 6.4615 15.4228C6.43068 15.4288 3.36818 16.0334 1.4115 17.0509C1.36376 17.0757 1.31275 17.0873 1.26247 17.0873Z" fill="#E1A546"/>
<path d="M0.614535 14.8225C0.471683 14.8225 0.341019 14.7272 0.302152 14.5828C0.255863 14.4101 0.358089 14.2326 0.530629 14.1862C2.43598 13.6739 5.72364 13.7668 5.86301 13.7707C6.04157 13.7761 6.18203 13.9253 6.17668 14.104C6.17129 14.2825 6.0166 14.4241 5.84344 14.4176C5.81028 14.4165 2.51153 14.3236 0.698793 14.8113C0.670628 14.8189 0.642347 14.8225 0.614535 14.8225Z" fill="#E1A546"/>
<path d="M6.27816 12.5571C5.6552 12.5571 5.14551 12.0474 5.14551 11.4244V10.7772C5.14551 10.1542 5.6552 9.64453 6.27816 9.64453C6.90113 9.64453 7.41082 10.1542 7.41082 10.7772V11.4244C7.41082 12.0473 6.90113 12.5571 6.27816 12.5571Z" fill="#4B3F4E"/>
<path d="M6.27801 9.64453C6.22262 9.64453 6.16949 9.65316 6.11621 9.66098V11.2626C6.11621 11.6201 6.40598 11.9098 6.76344 11.9098C7.1209 11.9098 7.41066 11.6201 7.41066 11.2626V10.7772C7.41066 10.1542 6.90094 9.64453 6.27801 9.64453Z" fill="#5D5360"/>
<path d="M6.2784 10.9386C6.54649 10.9386 6.76383 10.7213 6.76383 10.4532C6.76383 10.1851 6.54649 9.96777 6.2784 9.96777C6.0103 9.96777 5.79297 10.1851 5.79297 10.4532C5.79297 10.7213 6.0103 10.9386 6.2784 10.9386Z" fill="white"/>
<path d="M13.7215 12.5571C13.0986 12.5571 12.5889 12.0474 12.5889 11.4244V10.7772C12.5889 10.1542 13.0986 9.64453 13.7215 9.64453C14.3445 9.64453 14.8542 10.1542 14.8542 10.7772V11.4244C14.8542 12.0473 14.3445 12.5571 13.7215 12.5571Z" fill="#4B3F4E"/>
<path d="M13.7214 9.64453C13.666 9.64453 13.6129 9.65316 13.5596 9.66098V11.2626C13.5596 11.6201 13.8493 11.9098 14.2068 11.9098C14.5643 11.9098 14.854 11.6201 14.854 11.2626V10.7772C14.854 10.1542 14.3443 9.64453 13.7214 9.64453Z" fill="#5D5360"/>
<path d="M13.7218 10.9386C13.9899 10.9386 14.2072 10.7213 14.2072 10.4532C14.2072 10.1851 13.9899 9.96777 13.7218 9.96777C13.4537 9.96777 13.2363 10.1851 13.2363 10.4532C13.2363 10.7213 13.4537 10.9386 13.7218 10.9386Z" fill="white"/>
<path d="M10.2506 14.9273L9.53599 13.5127C9.52302 13.487 9.51575 13.4588 9.50595 13.4316H9.28567C8.97712 13.4316 8.80626 13.7893 9.00021 14.0293L9.71485 14.9134C9.85353 15.0849 10.1047 15.0886 10.2564 14.9364C10.2547 14.933 10.2524 14.9308 10.2506 14.9273Z" fill="#4B3F4E"/>
<path d="M9.99953 16.1162L8.70508 16.7634V17.4107C8.70508 17.5134 8.72004 17.612 8.74262 17.7078C9.06828 17.6674 9.38281 17.573 9.6759 17.4284V17.7343C9.6759 17.913 9.82078 18.0579 9.99953 18.0579C10.1783 18.0579 10.3232 17.913 10.3232 17.7343V17.4284C10.6163 17.5731 10.9308 17.6674 11.2564 17.7078C11.279 17.612 11.294 17.5133 11.294 17.4107V16.7634L9.99953 16.1162Z" fill="#E6646E"/>
<path d="M11.618 17.0872C11.1602 17.0872 10.719 16.9511 10.3425 16.6937C10.1408 16.5559 9.85911 16.5559 9.65716 16.6937C9.28075 16.9511 8.83958 17.0872 8.38181 17.0872C7.82481 17.0872 7.28833 16.8811 6.87118 16.5071C6.73813 16.3876 6.72708 16.183 6.84638 16.0499C6.96567 15.9169 7.16985 15.9058 7.30352 16.0251C7.84692 16.5127 8.69739 16.566 9.292 16.1593C9.71548 15.8701 10.2845 15.8701 10.7077 16.1593C11.3024 16.5658 12.153 16.5124 12.6965 16.0253C12.8293 15.9061 13.0338 15.9169 13.1534 16.0502C13.2727 16.1833 13.2615 16.3879 13.1285 16.5072C12.7113 16.8813 12.175 17.0872 11.618 17.0872Z" fill="#EBAF4B"/>
</g>
<defs>
<clipPath id="clip0_4283_65153">
<rect width="20" height="20" fill="white"/>
</clipPath>
</defs>
</svg>
