<svg width="20" height="21" viewBox="0 0 20 21" fill="none" xmlns="http://www.w3.org/2000/svg">
<path d="M14.8549 2.97754L14.859 10.0841L0.552009 10.0925L0.548828 4.62739C0.548301 3.7208 1.28281 2.98544 2.1894 2.98491L14.8549 2.97754Z" fill="#FFAB02"/>
<path d="M19.3715 3.54653L19.3791 16.6415C19.3796 17.5494 18.6467 18.2831 17.7388 18.2837L2.1995 18.2927C1.29158 18.2932 0.557836 17.5603 0.557308 16.6524L0.551758 7.11492C0.55123 6.20703 1.28412 5.47329 2.19204 5.47276L6.30384 5.47037C8.10658 5.46932 9.75595 4.44257 10.5538 2.82706C10.8285 2.26383 11.4001 1.90993 12.0242 1.90957L17.7293 1.90625C18.6372 1.90572 19.3709 2.64298 19.3715 3.54653Z" fill="#FFC90D"/>
<path d="M14.2186 8.16528L14.2218 13.6699C14.2223 14.4852 13.4903 15.1489 12.5852 15.1495C11.687 15.15 10.9542 14.4871 10.9537 13.6718C10.9532 12.8565 11.6852 12.1928 12.5834 12.1923C12.7147 12.1922 12.846 12.206 12.9704 12.2335L12.9693 10.4253C12.9691 10.0108 12.6027 9.69316 12.1951 9.74177L9.60427 10.0611C9.25882 10.1028 9.00335 10.4 8.99664 10.7455L8.97808 14.5021C8.97855 15.3174 8.24655 15.9811 7.34834 15.9816C6.42938 15.9822 5.71044 15.3331 5.70996 14.504C5.70949 13.6887 6.44149 13.025 7.34662 13.0245C7.47098 13.0244 7.60227 13.0381 7.73357 13.0726L7.73107 8.77708C7.73083 8.37633 8.02773 8.03069 8.42845 7.97517L13.3199 7.37121C13.5548 7.34345 13.7829 7.4124 13.9557 7.57811C14.1216 7.71621 14.2185 7.93726 14.2186 8.16528Z" fill="#F14F4A"/>
</svg>
