<svg width="24" height="25" viewBox="0 0 24 25" fill="none" xmlns="http://www.w3.org/2000/svg">
<g clip-path="url(#clip0_4285_71711)">
<path d="M23.621 12.2543L14.4881 11.4721C14.2875 11.455 14.1073 11.5944 14.0737 11.7929L12.7287 19.7295C12.6917 19.9476 12.4802 20.0883 12.2638 20.0423C11.8294 19.95 11.3443 19.9548 10.8537 20.0771C9.45993 20.4245 8.54943 21.5864 8.82008 22.6725C9.09074 23.7585 10.44 24.3573 11.8338 24.0099C12.9397 23.7343 13.7406 22.9458 13.8901 22.0895L15.2092 14.3061C15.2428 14.1076 15.4231 13.9682 15.6236 13.9853L21.682 14.5042C21.9073 14.5235 22.0681 14.7312 22.0303 14.9542L21.2378 19.6308C21.2008 19.849 20.989 19.9897 20.7726 19.9435C20.3373 19.8505 19.8512 19.8551 19.3594 19.9777C17.9656 20.325 17.0551 21.487 17.3258 22.5731C17.5964 23.6591 18.9457 24.2579 20.3396 23.9105C20.8294 23.7884 21.2958 23.5562 21.6723 23.2178C21.8398 23.0674 21.9892 22.896 22.1103 22.7061C22.169 22.614 22.2211 22.5176 22.265 22.4176C22.3941 22.123 22.429 21.8145 22.4826 21.4973C22.565 21.0103 23.9504 12.8161 23.9693 12.7042C24.007 12.4812 23.8462 12.2736 23.621 12.2543Z" fill="#E94444"/>
<path d="M23.9697 12.704C23.9629 12.7445 23.956 12.785 23.9492 12.8255C23.9371 12.8969 22.6124 20.7317 22.521 21.2725C22.4579 21.6456 22.4242 22.0403 22.2772 22.3898C22.2349 22.4904 22.1842 22.5874 22.1268 22.6802C22.0058 22.8756 21.8549 23.0519 21.6851 23.2063C21.3063 23.5508 20.8348 23.7869 20.3395 23.9104C19.8985 24.0201 19.4619 24.0356 19.0625 23.9703C19.1679 23.9549 19.2743 23.9336 19.3812 23.907C19.8785 23.7831 20.352 23.5475 20.7344 23.2042C20.9062 23.05 21.0592 22.8742 21.1829 22.6791C21.4529 22.2533 21.5027 21.7845 21.5847 21.2994C21.6751 20.7649 21.7655 20.2303 21.8558 19.6957C21.9706 19.017 22.0853 18.3383 22.2 17.6597C22.3181 16.9614 22.4361 16.2632 22.5542 15.5649C22.6545 14.9717 22.7548 14.3785 22.8551 13.7852C22.9165 13.4216 22.978 13.058 23.0395 12.6943C23.0491 12.6373 23.0589 12.5802 23.0684 12.5232C23.0887 12.4018 23.0515 12.2843 22.9765 12.1992L23.621 12.2543C23.8464 12.2732 24.0074 12.4811 23.9697 12.704Z" fill="#D83131"/>
<path d="M5.6842 16.3661C5.46505 17.0655 4.8958 18.3368 3.56859 18.8331C3.46021 18.8736 3.46021 19.0295 3.56859 19.07C4.8958 19.5663 5.46501 20.8375 5.6842 21.537C5.72127 21.6553 5.88941 21.6553 5.92649 21.537C6.14563 20.8375 6.71488 19.5663 8.0421 19.07C8.15048 19.0295 8.15048 18.8736 8.0421 18.8331C6.71488 18.3368 6.14568 17.0655 5.92649 16.3661C5.88941 16.2478 5.72127 16.2478 5.6842 16.3661Z" fill="#FDB441"/>
<path d="M8.04227 19.0699C6.71505 19.566 6.14595 20.8372 5.9269 21.5368C5.88968 21.6553 5.7214 21.6553 5.68418 21.5368C5.58649 21.225 5.41971 20.8009 5.14746 20.3812C5.39262 19.859 5.62516 19.345 6.36157 19.0699C6.4699 19.0293 6.4699 18.8736 6.36157 18.833C5.62516 18.5574 5.39262 18.0435 5.14746 17.5213C5.41966 17.1021 5.58649 16.6775 5.68418 16.3662C5.7214 16.2477 5.88968 16.2477 5.9269 16.3662C6.14595 17.0653 6.71501 18.3365 8.04227 18.8331C8.1506 18.8736 8.1506 19.0293 8.04227 19.0699Z" fill="#FEA613"/>
<path d="M16.1437 4.7035C15.9835 5.21472 15.5675 6.14378 14.5975 6.50645C14.5183 6.53608 14.5183 6.65003 14.5975 6.67966C15.5675 7.04233 15.9835 7.97144 16.1437 8.48261C16.1708 8.56909 16.2937 8.56909 16.3208 8.48261C16.4809 7.97139 16.897 7.04233 17.8669 6.67966C17.9462 6.65003 17.9462 6.53608 17.8669 6.50645C16.897 6.14378 16.4809 5.21467 16.3208 4.7035C16.2937 4.61706 16.1708 4.61706 16.1437 4.7035Z" fill="#FDB441"/>
<path d="M17.8666 6.67967C16.8966 7.04225 16.4807 7.97126 16.3206 8.48257C16.2934 8.56915 16.1704 8.56915 16.1432 8.48257C16.0718 8.25467 15.9499 7.94473 15.751 7.63803C15.9301 7.25637 15.9053 6.88076 16.4435 6.67967C16.5227 6.65 16.5227 6.53618 16.4435 6.50651C15.9053 6.30509 15.9301 5.92943 15.751 5.54782C15.9499 5.24145 16.0718 4.93118 16.1432 4.70361C16.1704 4.61703 16.2934 4.61703 16.3206 4.70361C16.4807 5.21459 16.8966 6.14361 17.8666 6.50651C17.9458 6.53618 17.9458 6.65 17.8666 6.67967Z" fill="#FEA613"/>
<path d="M21.4099 0.190102C21.208 0.834258 20.6838 2.00496 19.4616 2.46199C19.3618 2.4993 19.3618 2.64288 19.4616 2.68024C20.6838 3.13723 21.208 4.30798 21.4099 4.95213C21.444 5.06107 21.5989 5.06107 21.633 4.95213C21.8348 4.30798 22.3591 3.13727 23.5813 2.68024C23.6811 2.64293 23.6811 2.49935 23.5813 2.46199C22.3591 2.00501 21.8348 0.834258 21.633 0.190102C21.5989 0.0811641 21.444 0.0811641 21.4099 0.190102Z" fill="#FDB441"/>
<path d="M23.5809 2.68021C22.3586 3.13705 21.8345 4.30766 21.6328 4.952C21.5986 5.06108 21.4436 5.06108 21.4093 4.952C21.3193 4.6648 21.1657 4.27429 20.915 3.8878C21.1408 3.40691 21.1096 2.93357 21.7877 2.68021C21.8875 2.6428 21.8875 2.49941 21.7877 2.462C21.1096 2.20818 21.1408 1.73488 20.915 1.25399C21.1657 0.867926 21.3193 0.476988 21.4093 0.190207C21.4436 0.0811289 21.5985 0.0811289 21.6328 0.190207C21.8345 0.834082 22.3586 2.00469 23.5809 2.462C23.6807 2.49941 23.6807 2.6428 23.5809 2.68021Z" fill="#FEA613"/>
<path d="M10.9817 0.119565L2.07715 2.29452C1.88164 2.34228 1.75541 2.53199 1.78691 2.73078L3.04644 10.6814C3.08103 10.8999 2.92555 11.1007 2.7058 11.1263C2.26461 11.1775 1.80655 11.337 1.38064 11.6095C0.170702 12.3838 -0.321111 13.7757 0.282171 14.7184C0.885405 15.6611 2.35531 15.7977 3.5652 15.0235C4.5252 14.4092 5.03239 13.4062 4.90067 12.547L3.66547 4.74988C3.63397 4.55108 3.7602 4.36133 3.95572 4.31361L9.86262 2.87085C10.0824 2.81717 10.301 2.96267 10.3364 3.18608L11.0786 7.87086C11.1132 8.08953 10.9575 8.29044 10.7375 8.31575C10.2954 8.36666 9.83623 8.52622 9.4093 8.79941C8.19936 9.57364 7.70759 10.9655 8.31083 11.9083C8.91411 12.851 10.384 12.9876 11.5939 12.2134C11.6358 12.1866 11.6771 12.1588 11.7178 12.1302C12.1356 11.8361 12.4904 11.4436 12.7139 10.9822C12.9222 10.552 12.9892 10.0925 12.9155 9.6283C12.8508 9.22091 12.7861 8.81352 12.7214 8.40613C12.6233 7.78822 11.4858 0.625909 11.4554 0.434752C11.42 0.211346 11.2014 0.065893 10.9817 0.119565Z" fill="#E94444"/>
<path d="M11.4558 0.434522C11.4604 0.463491 12.846 9.18805 12.9117 9.60154C13.0701 10.5984 12.5583 11.5199 11.7587 12.1009C11.7049 12.14 11.6499 12.1775 11.5939 12.2133C11.211 12.4581 10.8022 12.6122 10.4029 12.6779C10.4979 12.6295 10.5919 12.5754 10.6846 12.5161C10.7591 12.4685 10.8317 12.418 10.9022 12.3648C11.7061 11.758 12.1778 10.837 12.0177 9.82902C11.9498 9.40185 11.882 8.97468 11.8141 8.54751C11.7144 7.91938 11.6146 7.29126 11.5148 6.66318C11.4029 5.95837 11.2909 5.25351 11.179 4.54869C11.0746 3.89137 10.9702 3.23404 10.8658 2.57671C10.7887 2.09108 10.7115 1.60551 10.6344 1.11988C10.6043 0.930225 10.5742 0.740569 10.544 0.550913C10.5245 0.429413 10.4517 0.329944 10.3535 0.273272L10.9819 0.11971C11.2014 0.065616 11.4203 0.211257 11.4558 0.434522Z" fill="#D83131"/>
</g>
<defs>
<clipPath id="clip0_4285_71711">
<rect width="24" height="24" fill="white" transform="translate(0 0.108398)"/>
</clipPath>
</defs>
</svg>
