<svg width="24" height="24" viewBox="0 0 24 24" fill="none" xmlns="http://www.w3.org/2000/svg">
<path d="M2.00391 8.0112H21.5743V20.2705C21.5743 21.2274 20.801 22.0007 19.8442 22.0007H3.73013C2.77329 22.0007 2 21.2274 2 20.2705V8.0112H2.00391Z" fill="#FFF4F6"/>
<path d="M2.00293 8.00729H21.5733V6.07017C21.5733 5.11333 20.8 4.34004 19.8432 4.34004H3.72916C2.77622 4.34395 2.00293 5.11723 2.00293 6.07408V8.00729Z" fill="#FF9F41"/>
<path d="M7.82275 3.24976V5.43683C7.82275 6.1281 7.26427 6.68658 6.573 6.68658C5.88173 6.68658 5.32324 6.1281 5.32324 5.43683V3.24976C5.32324 2.55848 5.88173 2 6.573 2C7.26427 2 7.82275 2.55848 7.82275 3.24976Z" fill="#B250B5"/>
<path d="M18.2505 3.24976V5.43683C18.2505 6.1281 17.692 6.68658 17.0007 6.68658C16.3095 6.68658 15.751 6.1281 15.751 5.43683V3.24976C15.751 2.55848 16.3095 2 17.0007 2C17.692 2 18.2505 2.55848 18.2505 3.24976Z" fill="#B250B5"/>
<path d="M12.607 10.7952L13.8646 12.3847C13.9857 12.5409 14.1497 12.6542 14.3371 12.7206L16.1102 13.3454C16.7273 13.5642 16.9968 14.2906 16.6648 14.8569L15.5752 16.7237C15.4971 16.8604 15.4463 17.0127 15.4346 17.1689L15.2862 19.0826C15.2393 19.7036 14.6613 20.1449 14.0481 20.0277L11.986 19.6333C11.8572 19.6098 11.7244 19.6098 11.5916 19.6333L9.52949 20.0277C8.91633 20.1449 8.34223 19.7036 8.29145 19.0826L8.14305 17.1689C8.13133 17.0127 8.08446 16.8604 8.00245 16.7237L6.91282 14.8569C6.58085 14.2906 6.85033 13.5642 7.4674 13.3454L9.24049 12.7206C9.42795 12.6542 9.58808 12.537 9.71305 12.3847L10.9706 10.7952C11.3885 10.264 12.1891 10.264 12.607 10.7952Z" fill="#FF9F41"/>
<path d="M21.5753 8.00632V20.2656C21.5753 21.2186 20.802 21.9958 19.8452 21.9958H3.73113C2.99299 21.9958 2.3603 21.531 2.11426 20.8788C2.30172 20.9491 2.50871 20.9882 2.72351 20.9882H18.8376C19.7905 20.9882 20.5677 20.2149 20.5677 19.258V8.00632H21.5753Z" fill="#EAE6F3"/>
<path d="M16.6654 14.8575L15.5757 16.7243C15.4976 16.861 15.4468 17.0133 15.4351 17.1696L15.2867 19.0832C15.2399 19.7042 14.6618 20.1455 14.0487 20.0284L11.9866 19.6339C11.8577 19.6105 11.7249 19.6105 11.5921 19.6339L9.53003 20.0284C8.92077 20.1455 8.34276 19.7042 8.29199 19.0832L8.27637 18.9036C8.39353 18.9231 8.51851 18.9231 8.64739 18.8997L10.7095 18.5052C10.8384 18.4818 10.9751 18.4818 11.1039 18.5052L13.166 18.8997C13.7792 19.0169 14.3572 18.5755 14.4041 17.9546L14.5525 16.0409C14.5642 15.8847 14.6111 15.7323 14.6931 15.5956L15.7827 13.7288C15.8647 13.5882 15.9116 13.432 15.9233 13.2836L16.1108 13.35C16.7278 13.5648 16.9934 14.2912 16.6654 14.8575Z" fill="#FF8641"/>
<path d="M7.82376 3.24943V5.43651C7.82376 6.12778 7.26528 6.68626 6.57401 6.68626C6.23032 6.68626 5.91788 6.54567 5.69137 6.31915C5.60935 6.23713 5.54296 6.14731 5.48438 6.04576C5.68746 6.19027 5.93351 6.27228 6.20298 6.27228C6.89426 6.27228 7.45274 5.7138 7.45274 5.02253V2.83545C7.45274 2.61284 7.39416 2.40585 7.29262 2.2262C7.3512 2.26916 7.40587 2.31602 7.45665 2.36679C7.68316 2.59331 7.82376 2.90185 7.82376 3.24943Z" fill="#4F1968"/>
<path d="M18.2515 3.24943V5.43651C18.2515 6.12778 17.693 6.68626 17.0017 6.68626C16.6581 6.68626 16.3456 6.54567 16.1191 6.31915C16.0371 6.23713 15.9707 6.14731 15.9121 6.04576C16.1152 6.19027 16.3612 6.27228 16.6307 6.27228C17.3181 6.27228 17.8805 5.7138 17.8805 5.02253V2.83545C17.8805 2.61284 17.8219 2.40585 17.7204 2.2262C17.7789 2.26916 17.8336 2.31602 17.8844 2.36679C18.1109 2.59331 18.2515 2.90185 18.2515 3.24943Z" fill="#4F1968"/>
<path d="M4.95548 4.34329C4.00254 4.34329 3.22535 5.11658 3.22535 6.07342V8.01054H2.00293V6.07342C2.00293 5.11658 2.77622 4.34329 3.72916 4.34329H4.95548Z" fill="#FFDF3F"/>
</svg>
