<svg width="20" height="20" viewBox="0 0 20 20" fill="none" xmlns="http://www.w3.org/2000/svg">
<path d="M6 10.3333L7.33333 11.6667L8.66667 10.3333L12.9953 11.0547C13.96 11.2157 14.6667 12.05 14.6667 13.0277V20H0V13.0277C0 12.05 0.706667 11.2157 1.67133 11.055L6 10.3333Z" fill="#E39854"/>
<path d="M19.6667 20H10.3333C10.1493 20 10 19.8507 10 19.6667V13C10 12.816 10.1493 12.6667 10.3333 12.6667H19.6667C19.8507 12.6667 20 12.816 20 13V19.6667C20 19.8507 19.8507 20 19.6667 20Z" fill="#606060"/>
<path d="M10 18.5417C10.022 18.542 10.0433 18.545 10.0657 18.545C13.443 18.545 16.2153 15.9637 16.5233 12.6667H10.3333C10.1493 12.6667 10 12.816 10 13V18.5417Z" fill="#8C8787"/>
<path d="M20 14C20 15.1047 19.1047 16 18 16H12C10.8953 16 10 15.1047 10 14V13C10 12.816 10.1493 12.6667 10.3333 12.6667H19.6667C19.8507 12.6667 20 12.816 20 13V14Z" fill="#D5CEC2"/>
<path d="M16.5233 12.6667H10.3333C10.1493 12.6667 10 12.816 10 13V14C10 15.1047 10.8953 16 12 16H15.2097C15.933 15.058 16.4067 13.9157 16.5233 12.6667Z" fill="#E7E4DD"/>
<path d="M20 18.6667V19.6667C20 19.8507 19.8507 20 19.6667 20H10.3333C10.1493 20 10 19.8507 10 19.6667V18.6667H20Z" fill="#D5CEC2"/>
<path d="M6.66683 11L6.3335 12L7.00016 13H7.66683L8.3335 12L8.00016 11" fill="#D5CEC2"/>
<path d="M9.66683 3L9.1335 3.4C8.61416 3.78933 7.9825 4 7.3335 4C6.6845 4 6.05283 3.78933 5.5335 3.4L5.00016 3L4.3335 4.33333V6.33333C4.3335 7.51067 5.01316 8.52667 6.00016 9.01767V10.3333L7.3335 11.6667L8.66683 10.3333V9.01767C9.65383 8.52633 10.3335 7.51033 10.3335 6.33333V4.33333L9.66683 3Z" fill="#FADFB2"/>
<path d="M10.3333 4.66667L10.7169 3.77767C11.0176 3.08033 10.9646 2.28067 10.5736 1.62933C10.3276 1.21967 9.96327 0.894 9.52827 0.696L8.59827 0.272333C8.20393 0.093 7.77593 0 7.34293 0C6.6876 0 6.04993 0.212667 5.5256 0.605667L4.95127 1.03933C4.48593 1.14 4.07593 1.42867 3.8256 1.846C3.51893 2.357 3.4946 2.98933 3.76127 3.52233L4.33327 4.66667V4.33333L4.99993 3L5.53327 3.4C6.0526 3.78933 6.68427 4 7.33327 4C7.98227 4 8.61393 3.78933 9.13327 3.4L9.6666 3L10.3333 4.33333V4.66667Z" fill="#C18E59"/>
<path d="M4.33333 4.66667H3.66667C3.29833 4.66667 3 4.96501 3 5.33334C3 5.70167 3.29833 6.00001 3.66667 6.00001H4.33333" fill="#EFBE9A"/>
<path d="M10.3335 4.66667H11.0002C11.3685 4.66667 11.6668 4.96501 11.6668 5.33334C11.6668 5.70167 11.3685 6.00001 11.0002 6.00001H10.3335" fill="#EFBE9A"/>
<path d="M3 13.9997H3.66667V19.9993H3V13.9997Z" fill="#C16B3F"/>
<path d="M7.66683 13L8.3335 14.6667L7.3335 19L6.3335 14.6667L7.00016 13" fill="#E7E4DD"/>
<path d="M15.0002 17.3333C14.6318 17.3333 14.3335 17.035 14.3335 16.6667V14.6667H15.6668V16.6667C15.6668 17.035 15.3685 17.3333 15.0002 17.3333Z" fill="#F2C351"/>
<path d="M17.0002 12.6663L16.9998 11.333C16.9998 11.149 16.8505 10.9997 16.6665 10.9997H13.3335C13.1495 10.9997 13.0002 11.149 13.0002 11.333V12.666L12.3335 12.6663V11.333C12.3335 10.7817 12.7822 10.333 13.3335 10.333H16.6665C17.2178 10.333 17.6665 10.7817 17.6665 11.333L17.6668 12.666L17.0002 12.6663Z" fill="#8C8787"/>
<path d="M15.6668 15.3207V14.6667H14.3335V16.6667C14.3335 16.7477 14.3502 16.8243 14.3765 16.8963C14.8852 16.443 15.3212 15.9123 15.6668 15.3207Z" fill="#F7D881"/>
</svg>
