<svg width="14" height="14" viewBox="0 0 14 14" fill="none" xmlns="http://www.w3.org/2000/svg">
<path d="M7 14C10.866 14 14 10.866 14 7C14 3.13401 10.866 0 7 0C3.13401 0 0 3.13401 0 7C0 10.866 3.13401 14 7 14Z" fill="#DD2B17"/>
<path fill-rule="evenodd" clip-rule="evenodd" d="M7.13891 2.7192L8.00783 5.41108C8.04743 5.53375 8.15705 5.6134 8.28595 5.61315L11.1146 5.60771C11.1789 5.60757 11.2337 5.64728 11.2536 5.70847C11.2735 5.76967 11.2525 5.83395 11.2004 5.87169L8.90873 7.52992C8.8043 7.6055 8.76244 7.73434 8.8025 7.85687L9.68177 10.5454C9.70175 10.6066 9.68094 10.6709 9.62888 10.7087C9.57682 10.7465 9.50923 10.7464 9.45722 10.7085L7.17199 9.04148C7.06784 8.96552 6.93235 8.96552 6.82823 9.04148L4.543 10.7085C4.49102 10.7464 4.42342 10.7465 4.37133 10.7087C4.31927 10.6709 4.29844 10.6065 4.31845 10.5454L5.19772 7.85687C5.23778 7.73434 5.19591 7.6055 5.09149 7.52992L2.79986 5.87169C2.74772 5.83395 2.72677 5.7697 2.74668 5.70847C2.76656 5.64728 2.8213 5.60757 2.88564 5.60771L5.7143 5.61315C5.84319 5.6134 5.95282 5.53375 5.99241 5.41108L6.86134 2.7192C6.88111 2.65795 6.93577 2.61816 7.00011 2.61816C7.06448 2.61816 7.11911 2.65795 7.13891 2.7192Z" fill="white"/>
</svg>
