<svg width="20" height="20" viewBox="0 0 20 20" fill="none" xmlns="http://www.w3.org/2000/svg">
<path d="M2.82102 14.0089L2.50633 16.6139C2.4916 16.7248 2.5008 16.8376 2.53332 16.9446C2.56584 17.0517 2.62093 17.1505 2.69487 17.2345C2.76881 17.3185 2.85989 17.3856 2.96197 17.4315C3.06404 17.4773 3.17476 17.5007 3.28665 17.5001C3.31997 17.5002 3.35327 17.4981 3.38633 17.4939L5.99133 17.1792C6.53898 17.1098 7.04788 16.8598 7.43758 16.4689L14.1876 9.71886C14.2462 9.66026 14.2791 9.58079 14.2791 9.49792C14.2791 9.41506 14.2462 9.33559 14.1876 9.27698L10.7245 5.81073C10.6659 5.75215 10.5864 5.71924 10.5035 5.71924C10.4207 5.71924 10.3412 5.75215 10.2826 5.81073L3.53133 12.5626C3.14035 12.9523 2.89041 13.4612 2.82102 14.0089Z" fill="white"/>
<path d="M17.0255 4.59035L15.4099 2.97473C15.2595 2.82423 15.0809 2.70484 14.8843 2.62338C14.6877 2.54193 14.477 2.5 14.2642 2.5C14.0515 2.5 13.8408 2.54193 13.6442 2.62338C13.4476 2.70484 13.269 2.82423 13.1186 2.97473L11.6017 4.4916C11.5432 4.55021 11.5103 4.62968 11.5103 4.71254C11.5103 4.7954 11.5432 4.87488 11.6017 4.93348L15.0667 8.39848C15.1254 8.45706 15.2048 8.48997 15.2877 8.48997C15.3706 8.48997 15.45 8.45706 15.5086 8.39848L17.0255 6.8816C17.176 6.73119 17.2954 6.55259 17.3768 6.35602C17.4583 6.15945 17.5002 5.94876 17.5002 5.73598C17.5002 5.5232 17.4583 5.3125 17.3768 5.11593C17.2954 4.91936 17.176 4.74077 17.0255 4.59035Z" fill="white"/>
<path d="M17.5 16.875C17.5 16.7092 17.4342 16.5503 17.3169 16.4331C17.1997 16.3158 17.0408 16.25 16.875 16.25H9.6875C9.52174 16.25 9.36277 16.3158 9.24556 16.4331C9.12835 16.5503 9.0625 16.7092 9.0625 16.875C9.0625 17.0408 9.12835 17.1997 9.24556 17.3169C9.36277 17.4342 9.52174 17.5 9.6875 17.5H16.875C17.0408 17.5 17.1997 17.4342 17.3169 17.3169C17.4342 17.1997 17.5 17.0408 17.5 16.875Z" fill="white"/>
</svg>
