<svg width="20" height="20" viewBox="0 0 20 20" fill="none" xmlns="http://www.w3.org/2000/svg">
<g clip-path="url(#clip0_4283_65229)">
<path d="M18.0005 18.6655C17.8645 18.6662 17.7287 18.6585 17.5939 18.6421C17.5238 18.6354 17.4538 18.6255 17.3838 18.6154C16.1973 18.4388 15.3407 17.809 14.3342 17.6889L14.081 17.7656C13.9482 17.7318 13.8135 17.7061 13.6776 17.6889L13.561 17.7223L10.4747 18.6488C10.2299 18.7097 9.97995 18.7476 9.72822 18.762C9.5549 18.7488 9.3915 18.7288 9.23817 18.7021C9.11154 18.6821 8.99162 18.6554 8.87826 18.6289L5.66869 17.6889C5.53367 17.7044 5.40002 17.7301 5.26881 17.7656C5.21205 17.7789 5.15545 17.7955 5.09869 17.8122C4.15887 18.0856 3.2723 18.6655 2.00248 18.6655C1.91857 18.6662 1.83481 18.6585 1.75257 18.6421C1.71519 18.6363 1.67842 18.6275 1.64257 18.6154C0.289445 18.2589 0.0528123 15.8958 0.66934 15.3325C0.885986 15.1093 1.07197 14.8583 1.22255 14.586C1.28251 14.4894 1.33927 14.3859 1.39922 14.2793H18.6037C18.6637 14.3859 18.7203 14.4894 18.7802 14.586C18.9308 14.8583 19.1169 15.1093 19.3336 15.3325C20.0002 15.9424 19.6668 18.6655 18.0005 18.6655Z" fill="#1566BF"/>
<path d="M17.3838 18.6154C17.2623 18.6495 17.1366 18.6664 17.0106 18.6655C16.8747 18.6662 16.7389 18.6585 16.6038 18.6421C15.3973 18.5254 14.5375 17.9089 13.561 17.7223C13.491 17.7089 13.4176 17.699 13.3444 17.6889L13.0911 17.7656C12.9584 17.7318 12.8237 17.7061 12.6877 17.6889L9.48487 18.6488C9.40157 18.6688 9.31827 18.6855 9.23817 18.7021C9.07278 18.7315 8.90588 18.7515 8.73836 18.762C8.45183 18.741 8.1676 18.6964 7.8884 18.6289L5.09869 17.8122L4.67883 17.6889C4.5438 17.7044 4.41015 17.7301 4.27879 17.7656C3.43891 17.9722 2.66234 18.4621 1.64257 18.6154C0.289445 18.2589 0.0528123 15.8958 0.66934 15.3325C0.885986 15.1093 1.07197 14.8583 1.22255 14.586C1.28251 14.4894 1.33927 14.3859 1.39922 14.2793H17.6138C17.6738 14.3859 17.7304 14.4894 17.7904 14.586C17.941 14.8583 18.1271 15.1093 18.3437 15.3325C18.9569 15.8926 18.7236 18.2455 17.3838 18.6154Z" fill="#2295F2"/>
<path d="M19.667 10.9997C19.6779 12.0659 19.3743 13.1116 18.7939 14.0059C18.7339 14.0993 18.6706 14.1893 18.6039 14.2792H1.39946C1.33279 14.1893 1.26948 14.0993 1.20952 14.0059C0.629148 13.1116 0.325385 12.0659 0.336217 10.9997C0.355288 9.74804 0.692464 8.52201 1.31616 7.43679L4.49568 4.03391C5.61736 3.27672 6.882 2.75723 8.21193 2.50747L10.9682 2.47742L11.5948 2.4707C12.9963 2.70444 14.331 3.23751 15.5076 4.03391L18.6873 7.43679C19.3108 8.52201 19.6481 9.74804 19.667 10.9997Z" fill="#1566BF"/>
<path d="M18.6673 10.9998C18.6786 12.0637 18.3806 13.1082 17.8097 14.006C17.7507 14.0994 17.6884 14.576 17.6231 14.6659H1.38057C1.3139 14.576 1.25288 14.0994 1.19383 14.006C0.622922 13.1082 0.324957 12.0637 0.336247 10.9998C0.354402 9.7503 0.685322 8.52549 1.2988 7.43691L4.42141 4.03404C5.51944 3.27837 6.76226 2.75857 8.07129 2.50759L10.7783 2.47754C12.1436 2.716 13.4412 3.24694 14.5821 4.03404L17.7047 7.43691C18.3182 8.52549 18.6491 9.7503 18.6673 10.9998Z" fill="#2295F2"/>
<path d="M13.6779 17.6885C13.8138 17.7057 13.9485 17.7313 14.0813 17.7652L11.1315 18.6484C10.6729 18.761 10.1992 18.7993 9.72852 18.7616C9.98025 18.7471 10.2302 18.7093 10.475 18.6484L13.6779 17.6885Z" fill="#4482C3"/>
<path d="M9.72796 18.7616C9.2219 18.7966 8.71354 18.7516 8.22136 18.6284L5.26855 17.7652C5.39976 17.7297 5.53341 17.704 5.66844 17.6885L8.87801 18.6284C9.15721 18.696 9.44144 18.7406 9.72796 18.7616Z" fill="#4482C3"/>
<path d="M9.0018 16.5455V17.9987C9.00211 18.2147 8.9603 18.4286 8.87853 18.6286C8.66676 19.1431 8.21348 19.519 7.66866 19.6318C7.44866 19.6762 7.2221 19.6762 7.00209 19.6318C6.22461 19.4757 5.66621 18.7916 5.66896 17.9987V16.1456C5.66911 15.946 5.75867 15.7572 5.91291 15.6307C6.06701 15.5042 6.26992 15.4534 6.46551 15.4923L8.46522 15.8923C8.77692 15.9543 9.00165 16.2277 9.0018 16.5455Z" fill="#2295F2"/>
<path d="M14.334 16.1456V17.9186C14.336 18.7194 13.7957 19.4202 13.0208 19.6217C12.8856 19.6548 12.7467 19.6693 12.6075 19.665C12.5224 19.6618 12.4377 19.6519 12.3543 19.6351C12.0265 19.5721 11.7249 19.4131 11.4877 19.1785C11.3368 19.0256 11.2159 18.8459 11.131 18.6486C11.0452 18.4427 11.001 18.2217 11.001 17.9987V16.5455C11.0013 16.2277 11.2259 15.9543 11.5377 15.8923L13.5374 15.4923C13.733 15.4534 13.9358 15.5042 14.09 15.6307C14.2443 15.7572 14.3338 15.946 14.334 16.1456Z" fill="#2295F2"/>
<path d="M9.03894 3.04709C8.8081 3.01826 8.59466 2.90933 8.43568 2.73952C8.06204 2.33216 7.63973 1.97225 7.17852 1.66773C7.05525 1.59083 6.9959 1.44299 7.0319 1.30233C7.06776 1.16166 7.19073 1.06035 7.33582 1.05212C7.90581 1.01275 8.47687 1.10963 9.00217 1.33437C9.18113 0.848437 9.58513 0.47968 10.0854 0.345878C10.2017 0.318263 10.3237 0.35549 10.4049 0.443217C10.4859 0.531096 10.5132 0.655744 10.4763 0.769407C10.3889 1.06112 10.3414 1.3632 10.3353 1.66773C10.8205 1.33925 11.3699 1.11787 11.9472 1.0184C12.0842 0.99597 12.2209 1.06096 12.29 1.18149C12.3591 1.30187 12.3463 1.45261 12.2578 1.55971C11.9582 1.89215 11.7026 2.26183 11.4976 2.65957C11.3073 3.05579 10.8827 3.28358 10.4473 3.22285L9.03894 3.04709Z" fill="#1566BF"/>
<path d="M4.94871 6.81317L4.5055 7.33648C4.35309 7.46829 4.18389 7.57921 4.00218 7.66633C3.35728 7.82713 2.68506 7.84529 2.03253 7.71973C1.81161 7.67136 1.59862 7.59294 1.39922 7.48645C0.802677 7.15645 0.335971 6.51978 0.335971 5.33326C0.335056 5.0237 0.352906 4.71429 0.38937 4.40671C0.41256 4.16184 0.448108 3.91819 0.496015 3.67683C0.689929 2.52341 1.13222 1.42599 1.79254 0.460694C1.87584 0.354354 2.01498 0.308888 2.14497 0.345505C2.27481 0.381968 2.37001 0.493191 2.38572 0.627298C2.60389 2.21431 3.57972 3.59642 5.00211 4.33348C5.00211 4.33348 5.5953 5.72002 4.94871 6.81317Z" fill="#FDC008"/>
<path d="M19.6668 5.33326C19.6668 6.51978 19.2003 7.15645 18.6037 7.48645C18.4043 7.59294 18.1912 7.67136 17.9704 7.71973C17.3177 7.84529 16.6455 7.82713 16.0006 7.66633C14.3342 6.66655 15.0008 4.33348 15.0008 4.33348C16.4232 3.59642 17.3989 2.21431 17.6171 0.627298C17.6329 0.493191 17.728 0.381968 17.858 0.345505C17.9879 0.308888 18.1271 0.354354 18.2104 0.460694C18.8706 1.42599 19.313 2.52341 19.5069 3.67683C19.5548 3.91819 19.5904 4.16184 19.6136 4.40671C19.65 4.71429 19.6679 5.0237 19.6668 5.33326Z" fill="#FDC008"/>
<path d="M7.00178 6C6.8904 5.99985 6.77903 6.00656 6.66857 6.01999C5.15586 6.19544 4.01465 7.47671 4.01465 8.99949C4.01465 10.5224 5.15586 11.8035 6.66857 11.9791C6.77903 11.9926 6.8904 11.9993 7.00178 11.9991C8.65836 11.9991 10.0014 10.6562 10.0014 8.99949C10.0014 7.34291 8.65836 6 7.00178 6Z" fill="#F4F4F4"/>
<path d="M13.0018 6C12.8904 5.99985 12.779 6.00656 12.6684 6.01999C11.1557 6.19544 10.0146 7.47671 10.0146 8.99949C10.0146 10.5224 11.1557 11.8035 12.6684 11.9791C12.779 11.9926 12.8904 11.9993 13.0018 11.9991C14.6584 11.9991 16.0013 10.6562 16.0013 8.99949C16.0013 7.34291 14.6584 6 13.0018 6Z" fill="#F4F4F4"/>
<path d="M9.00137 8.99971C9.00137 10.1041 8.1061 10.9996 7.00166 10.9996C5.89722 10.9996 5.00195 10.1041 5.00195 8.99971C5.00195 7.89527 5.89722 7 7.00166 7C8.1061 7 9.00137 7.89527 9.00137 8.99971Z" fill="#E81E63"/>
<path d="M15.0005 8.99971C15.0005 10.1041 14.1053 10.9996 13.0008 10.9996C11.8964 10.9996 11.001 10.1041 11.001 8.99971C11.001 7.89527 11.8964 7 13.0008 7C14.1053 7 15.0005 7.89527 15.0005 8.99971Z" fill="#E81E63"/>
<path d="M8.00181 8.99978C8.00181 9.55207 7.55418 9.99971 7.00188 9.99971C6.44974 9.99971 6.00195 9.55207 6.00195 8.99978C6.00195 8.44763 6.44974 8 7.00188 8C7.55418 8 8.00181 8.44763 8.00181 8.99978Z" fill="#37474F"/>
<path d="M14.0007 8.99978C14.0007 9.55207 13.5531 9.99971 13.0009 9.99971C12.4486 9.99971 12.001 9.55207 12.001 8.99978C12.001 8.44763 12.4486 8 13.0009 8C13.5531 8 14.0007 8.44763 14.0007 8.99978Z" fill="#37474F"/>
<path d="M6.66881 7.66677C6.66881 8.21907 6.22102 8.6667 5.66888 8.6667C5.11658 8.6667 4.66895 8.21907 4.66895 7.66677C4.66895 7.11463 5.11658 6.66699 5.66888 6.66699C6.22102 6.66699 6.66881 7.11463 6.66881 7.66677Z" fill="#F4F4F4"/>
<path d="M12.6677 7.66677C12.6677 8.21907 12.22 8.6667 11.6679 8.6667C11.1156 8.6667 10.668 8.21907 10.668 7.66677C10.668 7.11463 11.1156 6.66699 11.6679 6.66699C12.22 6.66699 12.6677 7.11463 12.6677 7.66677Z" fill="#F4F4F4"/>
<path d="M20.0007 5.33357C20.0007 3.02964 19.0868 1.03421 18.4726 0.255347C18.3064 0.0451083 18.0307 -0.0452119 17.7724 0.0260373C17.5141 0.097134 17.3237 0.316069 17.2886 0.581537C17.131 1.79995 16.4847 2.90179 15.4982 3.63381C14.4716 2.97365 13.3359 2.501 12.144 2.23766C12.2537 2.08937 12.366 1.95145 12.4637 1.83351L12.5149 1.77142C12.6925 1.55645 12.7177 1.25375 12.5778 1.01254C12.438 0.771332 12.1628 0.642565 11.888 0.689861C11.4933 0.761568 11.1093 0.883317 10.7456 1.05221C10.7609 0.985537 10.7789 0.921917 10.7943 0.867907C10.8672 0.633258 10.8062 0.377554 10.6351 0.201033C10.4725 0.0278681 10.227 -0.0404823 9.99832 0.0237488C9.5101 0.153432 9.09298 0.470773 8.83743 0.906507C8.34586 0.752108 7.83033 0.688488 7.31602 0.719306C7.02477 0.735173 6.77761 0.938394 6.70606 1.22125C6.63175 1.5032 6.75244 1.8004 7.00234 1.95068C7.18054 2.06313 7.3505 2.18762 7.51131 2.32371C6.44776 2.59727 5.4344 3.03819 4.50938 3.63015C3.52501 2.89721 2.87812 1.79796 2.71518 0.581537C2.68009 0.316069 2.48953 0.0972866 2.23139 0.0261899C1.97309 -0.0449068 1.6974 0.045566 1.53141 0.255652C0.917168 1.03421 0.00328571 3.02964 0.00328571 5.33357C0.00328571 6.31687 0.303234 7.05607 0.88879 7.53742C0.324136 8.60524 0.0206784 9.79176 0.00328571 10.9996C-0.00983515 12.1762 0.340003 13.3284 1.0052 14.2991C0.853242 14.5847 0.664973 14.8494 0.444817 15.0863C-0.0966463 15.5823 -0.0813896 16.7931 0.244191 17.6321C0.581824 18.4987 1.22276 18.9985 2.00299 18.9985C2.81649 18.9701 3.61579 18.7785 4.35376 18.4349C4.6737 18.2979 5.00248 18.1824 5.33798 18.0893C5.37749 18.975 5.99539 19.7288 6.85618 19.9415C7.71682 20.154 8.61468 19.7746 9.06201 19.0092C9.68556 19.1338 10.327 19.1404 10.9528 19.0285C11.0373 19.1687 11.138 19.2987 11.2527 19.4154C11.6287 19.7898 12.1378 19.9995 12.6683 19.9984H12.6959C12.6989 19.9984 12.7012 19.9967 12.704 19.9967C13.7584 19.9771 14.6166 19.1427 14.666 18.0893C15.0015 18.1824 15.3303 18.2979 15.6502 18.4349C16.388 18.7785 17.1875 18.9701 18.001 18.9985C18.7812 18.9985 19.4221 18.4987 19.7596 17.6321C20.0854 16.7945 20.1009 15.5837 19.5598 15.0894C19.3393 14.8514 19.1507 14.5858 18.9988 14.2991C19.664 13.3284 20.0138 12.1762 20.0007 10.9996C19.9833 9.79176 19.6798 8.60524 19.1152 7.53742C19.7007 7.05607 20.0007 6.31687 20.0007 5.33357ZM17.9492 0.667586C18.5376 1.53158 18.9422 2.5071 19.1381 3.53388C18.7728 3.40435 18.3885 3.33676 18.001 3.33386C17.8168 3.33386 17.6676 3.48308 17.6676 3.66723C17.6676 3.85122 17.8168 4.00043 18.001 4.00043C18.4408 4.00608 18.8738 4.1112 19.2674 4.30771C19.3108 4.64808 19.333 4.9906 19.3341 5.33357C19.3341 6.13181 19.1048 6.71248 18.6524 7.05881C18.6155 7.08704 18.5762 7.11114 18.5372 7.13601C18.2768 5.97756 17.6893 5.13996 16.817 4.70301C16.6526 4.62016 16.4519 4.68653 16.3691 4.851C16.2863 5.01562 16.3526 5.2161 16.5171 5.29894C17.3884 5.7362 17.757 6.62979 17.9102 7.3937C17.321 7.5069 16.7145 7.49424 16.1305 7.35632C14.964 6.6182 15.191 5.03439 15.2889 4.56143C16.7424 3.75816 17.7292 2.31364 17.9492 0.667586ZM15.6679 8.99978C15.6679 10.4724 14.4742 11.6662 13.0016 11.6662C11.529 11.6662 10.3352 10.4724 10.3352 8.99978C10.3352 7.5272 11.529 6.3335 13.0016 6.3335C14.4734 6.33518 15.6662 7.52796 15.6679 8.99978ZM8.09885 2.87235C8.28788 3.06763 8.41024 3.21089 8.41314 3.21456C8.53123 3.35583 8.74146 3.3746 8.88274 3.25651C9.02402 3.13858 9.04279 2.92819 8.9247 2.78691C8.46837 2.24972 7.94033 1.77782 7.35538 1.3845C7.8671 1.3488 8.38018 1.43378 8.85314 1.63243C8.94057 1.67591 9.04279 1.67881 9.13265 1.64036C9.22236 1.60176 9.29086 1.52578 9.3197 1.43256C9.45975 1.05877 9.7713 0.775299 10.1567 0.671247C10.0598 0.994691 10.0078 1.32988 10.002 1.66752C10.002 1.79369 10.0732 1.90903 10.1861 1.96563C10.2992 2.02208 10.4342 2.00988 10.5352 1.93405C10.978 1.63868 11.4773 1.43882 12.0017 1.34743L11.951 1.40876C11.5724 1.8654 11.0018 2.55531 11.0018 3.33386C11.0018 3.51801 11.1511 3.66723 11.3351 3.66723C11.5193 3.66723 11.6685 3.51801 11.6685 3.33386C11.6738 3.16543 11.7127 2.99959 11.7831 2.84626C12.8735 3.05772 13.9189 3.45683 14.8727 4.02576L14.8637 4.03018C14.7746 4.07061 14.7078 4.14827 14.6811 4.24241C14.5275 4.83941 14.4965 5.46127 14.59 6.07048C13.789 5.63535 12.8443 5.54793 11.977 5.82881C11.1096 6.10984 10.3958 6.73445 10.002 7.55664C9.62178 6.75917 8.93919 6.1463 8.10541 5.85414C7.27163 5.56181 6.35576 5.61445 5.56088 6.0003C5.62069 5.38972 5.53433 4.77365 5.30884 4.2032C5.27619 4.12661 5.21608 4.06512 5.14025 4.03079L5.13186 4.02683C6.05001 3.48018 7.05269 3.09006 8.09885 2.87235ZM7.00234 6.3335C8.47493 6.3335 9.66862 7.5272 9.66862 8.99978C9.66862 10.4724 8.47493 11.6662 7.00234 11.6662C5.52976 11.6662 4.33606 10.4724 4.33606 8.99978C4.33774 7.52796 5.53052 6.33518 7.00234 6.3335ZM0.669855 5.33357C0.670923 4.9906 0.693198 4.64808 0.736528 4.30771C1.13015 4.1112 1.56314 4.00608 2.00299 4.00043C2.18714 4.00043 2.33636 3.85122 2.33636 3.66723C2.33636 3.48308 2.18714 3.33386 2.00299 3.33386C1.61547 3.33676 1.23115 3.40435 0.865753 3.53388C1.06134 2.50801 1.46596 1.53341 2.05471 0.670942C2.27655 2.32417 3.27221 3.77295 4.73595 4.57272C4.84534 4.89235 5.10958 5.85398 4.6737 6.61987C4.52327 6.76695 4.38717 6.92791 4.2671 7.10077C4.15024 7.19948 4.02238 7.284 3.88584 7.35266C3.29769 7.49485 2.68604 7.50919 2.09194 7.39477C2.24527 6.63055 2.61357 5.73589 3.4855 5.29833C3.64997 5.21549 3.71633 5.01501 3.63349 4.85039C3.55064 4.68577 3.35002 4.61955 3.18555 4.7024C2.31332 5.13996 1.72578 5.97756 1.46534 7.1354C1.42705 7.11068 1.38845 7.08704 1.35183 7.05942C0.899775 6.71386 0.669855 6.13349 0.669855 5.33357ZM18.3415 14.0731C18.0139 14.4573 17.6229 14.7823 17.1853 15.034C17.0206 15.1164 16.9537 15.3166 17.036 15.4813C17.1184 15.6461 17.3185 15.7129 17.4833 15.6307C17.874 15.4188 18.2306 15.149 18.5409 14.8308C18.6976 15.1027 18.8886 15.3533 19.1091 15.5767C19.3243 15.774 19.4458 16.5969 19.1384 17.3881C19.0007 17.7416 18.6721 18.3319 18.001 18.3319C17.2725 18.3023 16.5572 18.1269 15.8978 17.8156C15.5008 17.6443 15.0892 17.5085 14.668 17.4101V15.3323C14.668 15.1483 14.5188 14.9991 14.3348 14.9991C14.1506 14.9991 14.0014 15.1483 14.0014 15.3323V17.6653C14.0014 17.6698 14.0038 17.673 14.0038 17.6774C14.0038 17.6817 14.0014 17.6847 14.0014 17.6887V17.9987C13.999 18.5995 13.5948 19.1245 13.0146 19.2804L13.0016 18.6583C12.9978 18.4768 12.8497 18.3319 12.6683 18.3319H12.6612C12.5729 18.3337 12.4888 18.3707 12.4277 18.4344C12.3665 18.4984 12.3331 18.5838 12.3351 18.6723L12.348 19.2885C12.1137 19.2327 11.8989 19.1141 11.7268 18.9455C11.6053 18.8224 11.508 18.6779 11.4395 18.5193C11.3704 18.3543 11.335 18.1774 11.3351 17.9987V15.999C11.3351 15.8148 11.1859 15.6656 11.0018 15.6656C10.8178 15.6656 10.6686 15.8148 10.6686 15.999V17.9987C10.6686 18.131 10.6815 18.2631 10.7072 18.3929C10.2398 18.4614 9.76443 18.4549 9.2991 18.3736C9.32305 18.2501 9.33526 18.1246 9.33541 17.9987V15.999C9.33541 15.8148 9.1862 15.6656 9.00205 15.6656C8.81805 15.6656 8.66884 15.8148 8.66884 15.999V17.9987C8.66991 18.6064 8.25782 19.137 7.66891 19.2868V18.6653C7.66891 18.4811 7.5197 18.3319 7.3357 18.3319C7.15155 18.3319 7.00234 18.4811 7.00234 18.6653V19.2848C6.41099 19.1399 5.99707 18.6074 6.00241 17.9987V17.6887C6.00241 17.6847 6.00012 17.6814 6.00012 17.6774C6.00012 17.6734 6.00241 17.6698 6.00241 17.6653V15.3323C6.00241 15.1483 5.8532 14.9991 5.6692 14.9991C5.48505 14.9991 5.33584 15.1483 5.33584 15.3323V17.4101C4.91475 17.5085 4.50313 17.6443 4.10599 17.8156C3.44675 18.1269 2.73151 18.3023 2.00299 18.3319C1.3317 18.3319 1.00306 17.7416 0.865447 17.3893C0.558176 16.5981 0.679467 15.7753 0.896114 15.5767C1.11627 15.3539 1.30683 15.1037 1.46306 14.8325C1.77338 15.1507 2.12978 15.4205 2.52066 15.6324C2.68528 15.7146 2.8856 15.6478 2.96783 15.483C3.05022 15.3182 2.98324 15.1181 2.81862 15.0357C2.38167 14.7835 1.99079 14.4588 1.66277 14.0756C1.00505 13.1859 0.656277 12.1058 0.669855 10.9996C0.686485 9.91336 0.956988 8.8463 1.4597 7.88329C1.90001 8.06103 2.37145 8.14876 2.84624 8.14098C3.16922 8.13991 3.4916 8.1094 3.80909 8.04989C3.31233 9.71487 4.17922 11.4818 5.7998 12.1081C7.42038 12.7342 9.25013 12.0093 10.002 10.4429C10.7525 12.0115 12.5836 12.7385 14.2055 12.1117C15.8275 11.485 16.6941 9.71563 16.1949 8.04989C16.5124 8.1094 16.8346 8.13991 17.1577 8.14098C17.6325 8.14876 18.104 8.06103 18.5441 7.88329C19.047 8.8463 19.3175 9.91336 19.3341 10.9996C19.3472 12.105 18.9988 13.1843 18.3415 14.0731Z" fill="black"/>
<path d="M7.00208 10.3333C7.73838 10.3333 8.33522 9.73642 8.33522 9.00013C8.33522 8.26384 7.73838 7.66699 7.00208 7.66699C6.26579 7.66699 5.66895 8.26384 5.66895 9.00013C5.66895 9.73642 6.26579 10.3333 7.00208 10.3333ZM7.00208 8.33356C7.37023 8.33356 7.66865 8.63198 7.66865 9.00013C7.66865 9.36828 7.37023 9.6667 7.00208 9.6667C6.63394 9.6667 6.33551 9.36828 6.33551 9.00013C6.33551 8.63198 6.63394 8.33356 7.00208 8.33356Z" fill="black"/>
<path d="M13.0011 7.66699C12.2648 7.66699 11.668 8.26384 11.668 9.00013C11.668 9.73642 12.2648 10.3333 13.0011 10.3333C13.7374 10.3333 14.3342 9.73642 14.3342 9.00013C14.3342 8.26384 13.7374 7.66699 13.0011 7.66699ZM13.0011 9.6667C12.633 9.6667 12.3345 9.36828 12.3345 9.00013C12.3345 8.63198 12.633 8.33356 13.0011 8.33356C13.3693 8.33356 13.6677 8.63198 13.6677 9.00013C13.6677 9.36828 13.3693 9.6667 13.0011 9.6667Z" fill="black"/>
<path d="M13.0014 12.999C12.8173 12.999 12.6681 13.1482 12.6681 13.3322C12.6681 13.7004 12.3696 13.9988 12.0015 13.9988H8.00208C7.63394 13.9988 7.33551 13.7004 7.33551 13.3322C7.33551 13.1482 7.1863 12.999 7.00215 12.999C6.81816 12.999 6.66895 13.1482 6.66895 13.3322C6.66895 14.0685 7.26579 14.6654 8.00208 14.6654H12.0015C12.7378 14.6654 13.3346 14.0685 13.3346 13.3322C13.3346 13.1482 13.1854 12.999 13.0014 12.999Z" fill="black"/>
</g>
<defs>
<clipPath id="clip0_4283_65229">
<rect width="20" height="20" fill="white"/>
</clipPath>
</defs>
</svg>
