<svg width="14" height="14" viewBox="0 0 14 14" fill="none" xmlns="http://www.w3.org/2000/svg">
<path d="M0.907335 13.9997C0.675145 13.9997 0.442789 13.9109 0.266072 13.734C-0.0886906 13.3794 -0.0886906 12.806 0.266072 12.4514L12.4514 0.265947C12.806 -0.0886491 13.3793 -0.0886491 13.7339 0.265947C14.0887 0.620544 14.0887 1.19388 13.7339 1.54847L1.5486 13.734C1.37072 13.9117 1.13953 13.9997 0.907335 13.9997Z" fill="#F44336"/>
<path d="M13.0927 13.9997C12.8605 13.9997 12.6283 13.9109 12.4514 13.734L0.266072 1.54847C-0.0886906 1.19388 -0.0886906 0.620544 0.266072 0.265947C0.620668 -0.0886491 1.19384 -0.0886491 1.5486 0.265947L13.7339 12.4514C14.0887 12.806 14.0887 13.3794 13.7339 13.734C13.557 13.9117 13.3249 13.9997 13.0927 13.9997Z" fill="#F44336"/>
</svg>
