<svg width="18" height="17" viewBox="0 0 18 17" fill="none" xmlns="http://www.w3.org/2000/svg">
<path d="M17.7041 6.64609C17.6372 6.43432 17.5081 6.24757 17.3337 6.11007C17.1593 5.97257 16.9476 5.89067 16.726 5.875L12.019 5.49453L10.2049 1.1039C10.1203 0.898106 9.97639 0.7221 9.79152 0.598239C9.60666 0.474378 9.38915 0.408249 9.16663 0.408249C8.94411 0.408249 8.7266 0.474378 8.54174 0.598239C8.35687 0.7221 8.21299 0.898106 8.12835 1.1039L6.31429 5.49297L1.60726 5.875C1.38552 5.89078 1.17365 5.97291 0.999214 6.11071C0.824774 6.24851 0.695824 6.4356 0.629131 6.64765C0.559609 6.85915 0.554265 7.0865 0.613771 7.30102C0.673277 7.51555 0.79497 7.70766 0.963506 7.85312L4.55726 10.9477L3.46351 15.5766C3.41218 15.7932 3.42628 16.0202 3.50402 16.2288C3.58177 16.4374 3.71965 16.6182 3.90022 16.7484C4.07857 16.8806 4.29266 16.9557 4.51446 16.9641C4.73626 16.9725 4.95541 16.9136 5.14319 16.7953L9.16663 14.3219L13.1963 16.7992C13.3841 16.9175 13.6033 16.9764 13.8251 16.968C14.0468 16.9596 14.2609 16.8845 14.4393 16.7523C14.6199 16.6221 14.7577 16.4413 14.8355 16.2327C14.9132 16.0241 14.9273 15.7971 14.876 15.5805L13.7823 10.9516L17.3698 7.85312C17.5386 7.70754 17.6605 7.51516 17.72 7.30032C17.7795 7.08547 17.774 6.8578 17.7041 6.64609ZM16.7557 7.14375L12.9518 10.425C12.8869 10.481 12.8386 10.5537 12.8121 10.6353C12.7857 10.7168 12.7821 10.8041 12.8018 10.8875L13.9643 15.793C13.9745 15.83 13.9728 15.8693 13.9595 15.9053C13.9462 15.9413 13.9219 15.9722 13.8901 15.9937C13.8612 16.016 13.8262 16.0288 13.7898 16.0302C13.7533 16.0316 13.7174 16.0216 13.6869 16.0016L9.41194 13.375C9.33815 13.3297 9.25323 13.3057 9.16663 13.3057C9.08003 13.3057 8.99512 13.3297 8.92132 13.375L4.64632 16.0008C4.61586 16.0208 4.57992 16.0308 4.54351 16.0294C4.50709 16.028 4.47202 16.0153 4.44319 15.993C4.41068 15.972 4.38561 15.9413 4.37158 15.9052C4.35755 15.8692 4.35527 15.8296 4.36507 15.7922L5.52757 10.8867C5.54725 10.8033 5.54367 10.716 5.51722 10.6345C5.49078 10.553 5.44247 10.4802 5.37757 10.4242L1.57366 7.14297C1.54382 7.11867 1.52229 7.08567 1.51207 7.04856C1.50185 7.01146 1.50344 6.97209 1.51663 6.93594C1.52682 6.90029 1.54788 6.86872 1.57687 6.84561C1.60586 6.8225 1.64133 6.80902 1.67835 6.80703L6.6721 6.4039C6.75815 6.39692 6.8406 6.3663 6.91035 6.31543C6.98011 6.26456 7.03446 6.19542 7.06741 6.11562L8.99163 1.45937C9.00504 1.42491 9.02856 1.39529 9.05909 1.37441C9.08961 1.35354 9.12574 1.34237 9.16272 1.34237C9.19971 1.34237 9.23583 1.35354 9.26636 1.37441C9.29689 1.39529 9.3204 1.42491 9.33382 1.45937L11.258 6.11562C11.291 6.19542 11.3453 6.26456 11.4151 6.31543C11.4849 6.3663 11.5673 6.39692 11.6533 6.4039L16.6471 6.80703C16.6841 6.80902 16.7196 6.8225 16.7486 6.84561C16.7776 6.86872 16.7986 6.90029 16.8088 6.93594C16.8226 6.9718 16.8249 7.01108 16.8154 7.04832C16.8059 7.08556 16.785 7.11891 16.7557 7.14375Z" fill="#4284F3"/>
</svg>
