<svg width="19" height="18" viewBox="0 0 19 18" fill="none" xmlns="http://www.w3.org/2000/svg">
<path d="M17.8039 7.97265L14.2882 11.0062L15.3593 15.543C15.4184 15.7892 15.4032 16.0475 15.3156 16.2851C15.228 16.5228 15.0719 16.7291 14.8671 16.8781C14.6623 17.0271 14.4179 17.112 14.1648 17.1221C13.9118 17.1323 13.6614 17.0672 13.4453 16.9352L9.49995 14.507L5.5523 16.9352C5.33622 17.0665 5.08613 17.1309 4.8335 17.1204C4.58087 17.1099 4.337 17.0248 4.13261 16.876C3.92822 16.7271 3.77243 16.5211 3.68488 16.2839C3.59732 16.0467 3.58191 15.7889 3.64058 15.543L4.71558 11.0062L1.19995 7.97265C1.00878 7.80743 0.870518 7.58954 0.802438 7.3462C0.734358 7.10287 0.739475 6.84487 0.817151 6.60442C0.894826 6.36398 1.04162 6.15175 1.23919 5.99423C1.43677 5.83672 1.67637 5.7409 1.92808 5.71875L6.53745 5.34687L8.31558 1.04375C8.41182 0.809227 8.57563 0.608627 8.78618 0.467447C8.99673 0.326267 9.2445 0.250885 9.498 0.250885C9.7515 0.250885 9.99927 0.326267 10.2098 0.467447C10.4204 0.608627 10.5842 0.809227 10.6804 1.04375L12.4578 5.34687L17.0671 5.71875C17.3193 5.74008 17.5596 5.83536 17.7579 5.99266C17.9562 6.14995 18.1037 6.36227 18.1819 6.60301C18.26 6.84374 18.2654 7.10219 18.1973 7.34597C18.1292 7.58975 17.9907 7.80802 17.7992 7.97343L17.8039 7.97265Z" fill="white"/>
</svg>
