<svg width="13" height="14" viewBox="0 0 13 14" fill="none" xmlns="http://www.w3.org/2000/svg">
<path d="M11.6608 3.99683C11.4436 2.76769 10.3272 1.6513 9.0983 1.43437C8.35248 1.30964 7.3374 1.19401 5.95122 1.19271C4.56504 1.19115 3.54996 1.31042 2.80414 1.43437C1.57499 1.65104 0.458601 2.76716 0.241678 3.99683C0.11694 4.74265 0.00131725 5.75774 1.51848e-05 7.14392C-0.00154729 8.53009 0.117722 9.54518 0.241678 10.291C0.458862 11.5201 1.57525 12.6365 2.80414 12.8535C3.54996 12.9782 4.56504 13.0938 5.95122 13.0951C7.3374 13.0967 8.35248 12.9774 9.0983 12.8535C10.3275 12.6363 11.4438 11.5199 11.6608 10.291C11.7855 9.54518 11.9011 8.53009 11.9024 7.14392C11.904 5.75774 11.7834 4.74187 11.6608 3.99683Z" fill="#C1E1F3"/>
<path d="M5.95121 1.19161C4.56503 1.19317 3.54994 1.30932 2.80412 1.43327C1.57497 1.65072 0.458586 2.76685 0.241663 3.99651C0.116925 4.74234 0.00130206 5.75742 0 7.1436C0.00130206 8.30139 0.0825508 9.20008 0.181768 9.89954C0.948162 10.1808 1.7583 10.3243 2.57444 10.3232C6.40328 10.3232 9.50766 7.21912 9.50766 3.39001C9.50818 2.73768 9.41651 2.08873 9.23579 1.46218C9.18996 1.4515 9.14386 1.44187 9.09751 1.43354C8.35273 1.30906 7.33764 1.19291 5.95147 1.19161H5.95121Z" fill="#CFECF9"/>
<path d="M11.7684 4.7476C11.7351 4.47104 11.6984 4.22157 11.6611 3.99683C11.444 2.76768 10.3276 1.6513 9.09868 1.43437C8.35286 1.30964 7.33777 1.19401 5.9516 1.19271C4.56542 1.19115 3.55033 1.31042 2.80451 1.43437C1.57537 1.65104 0.458979 2.76716 0.242056 3.99683C0.204556 4.22157 0.167838 4.47078 0.134766 4.74708C0.147526 4.74656 2.45764 4.6312 5.9542 4.6312C9.45076 4.6312 11.757 4.74708 11.7684 4.7476Z" fill="#DD4247"/>
<path d="M9.39086 4.66948C9.46821 4.2549 9.50909 3.82756 9.50909 3.39059C9.50909 2.72159 9.41404 2.07525 9.23722 1.46328C9.19113 1.4526 9.14503 1.44271 9.09868 1.43437C8.35286 1.30964 7.33777 1.19401 5.9516 1.19271C4.56542 1.19115 3.55033 1.31042 2.80451 1.43437C1.57537 1.65104 0.458979 2.76716 0.242056 3.99683C0.204556 4.22157 0.167838 4.47078 0.134766 4.74708C0.147526 4.74656 2.45764 4.6312 5.9542 4.6312C7.29611 4.6312 8.46223 4.64838 9.39086 4.66922V4.66948Z" fill="#E55353"/>
<path d="M3.99943 0.961711C3.99943 0.614669 3.71809 0.333336 3.37105 0.333336C3.02401 0.333336 2.74268 0.614669 2.74268 0.961711V1.94789C2.74268 2.29494 3.02401 2.57627 3.37105 2.57627C3.71809 2.57627 3.99943 2.29494 3.99943 1.94789V0.961711Z" fill="#34344F"/>
<path d="M9.16105 0.961711C9.16105 0.614669 8.87971 0.333336 8.53267 0.333336C8.18563 0.333336 7.9043 0.614669 7.9043 0.961711V1.94789C7.9043 2.29494 8.18563 2.57627 8.53267 2.57627C8.87971 2.57627 9.16105 2.29494 9.16105 1.94789V0.961711Z" fill="#34344F"/>
<path d="M6.58048 0.961711C6.58048 0.614669 6.29915 0.333336 5.95211 0.333336C5.60506 0.333336 5.32373 0.614669 5.32373 0.961711V1.94789C5.32373 2.29494 5.60506 2.57627 5.95211 2.57627C6.29915 2.57627 6.58048 2.29494 6.58048 1.94789V0.961711Z" fill="#34344F"/>
<path d="M4.0171 10.0776C3.98897 10.237 3.84418 10.3818 3.68481 10.4099C3.58794 10.4261 3.45643 10.4412 3.27648 10.4412C3.0968 10.4412 2.96503 10.4258 2.86842 10.4099C2.70905 10.3818 2.56426 10.237 2.53613 10.0776C2.51999 9.98076 2.50488 9.84925 2.50488 9.6693C2.50488 9.48962 2.52025 9.35785 2.53613 9.26098C2.56426 9.1016 2.70905 8.95681 2.86842 8.92869C2.96503 8.91254 3.0968 8.89744 3.27648 8.89744C3.45617 8.89744 3.58794 8.9128 3.68481 8.92869C3.84418 8.95681 3.98897 9.1016 4.0171 9.26098C4.03324 9.35785 4.04835 9.48936 4.04835 9.6693C4.04835 9.84899 4.03298 9.98076 4.0171 10.0776ZM4.0171 7.55267C3.98897 7.71204 3.84418 7.85683 3.68481 7.88496C3.58794 7.9011 3.45643 7.91621 3.27648 7.91621C3.0968 7.91621 2.96503 7.90084 2.86842 7.88496C2.70905 7.85683 2.56426 7.71204 2.53613 7.55267C2.51999 7.45606 2.50488 7.32429 2.50488 7.1446C2.50488 6.96492 2.52025 6.83315 2.53613 6.73628C2.56426 6.5769 2.70905 6.43212 2.86842 6.40399C2.96503 6.38785 3.0968 6.37274 3.27648 6.37274C3.45617 6.37274 3.58794 6.38811 3.68481 6.40399C3.84418 6.43212 3.98897 6.5769 4.0171 6.73628C4.03324 6.83315 4.04835 6.96466 4.04835 7.1446C4.04835 7.32429 4.03298 7.45606 4.0171 7.55267ZM6.36003 7.88496C6.26316 7.9011 6.13165 7.91621 5.9517 7.91621C5.77202 7.91621 5.64025 7.90084 5.54338 7.88496C5.384 7.85683 5.23921 7.71204 5.21109 7.55267C5.19494 7.45606 5.17984 7.32429 5.17984 7.1446C5.17984 6.96492 5.1952 6.83315 5.21109 6.73628C5.23921 6.5769 5.384 6.43212 5.54338 6.40399C5.63999 6.38785 5.77176 6.37274 5.9517 6.37274C6.13139 6.37274 6.26316 6.38811 6.36003 6.40399C6.5194 6.43212 6.66419 6.5769 6.69231 6.73628C6.70846 6.83315 6.72356 6.96466 6.72356 7.1446C6.72356 7.32429 6.7082 7.45606 6.69231 7.55267C6.66419 7.71204 6.5194 7.85683 6.36003 7.88496Z" fill="#34344F"/>
<path d="M9.60021 7.63031C7.93331 7.63031 6.58203 8.98159 6.58203 10.6485C6.58203 12.3154 7.93331 13.6667 9.60021 13.6667C11.2671 13.6667 12.6184 12.3154 12.6184 10.6485C12.6184 8.98159 11.2671 7.63031 9.60021 7.63031Z" fill="#F9973E"/>
<path d="M11.0516 11.6404C10.9428 11.7998 10.7662 11.8855 10.5868 11.8855C10.4774 11.8855 10.3667 11.8537 10.2696 11.7873L9.28265 11.1126C9.12926 11.0076 9.0376 10.8339 9.0376 10.648V9.19022C9.0376 8.87955 9.28942 8.62747 9.60035 8.62747C9.91128 8.62747 10.1631 8.87929 10.1631 9.19022V10.3511L10.905 10.8584C11.1615 11.0337 11.2274 11.3839 11.0519 11.6404H11.0516Z" fill="white"/>
</svg>
