<svg width="20" height="20" viewBox="0 0 20 20" fill="none" xmlns="http://www.w3.org/2000/svg">
<path d="M3.33331 7.5H16.6666L15.9708 15.1508C15.9332 15.5649 15.7421 15.95 15.4351 16.2305C15.1282 16.5109 14.7274 16.6665 14.3116 16.6667H5.68831C5.27251 16.6665 4.87179 16.5109 4.56481 16.2305C4.25783 15.95 4.06678 15.5649 4.02915 15.1508L3.33331 7.5Z" stroke="white" stroke-width="1.4" stroke-linejoin="round"/>
<path d="M6.66663 9.16659V6.66659C6.66663 5.78253 7.01782 4.93468 7.64294 4.30956C8.26806 3.68444 9.1159 3.33325 9.99996 3.33325C10.884 3.33325 11.7319 3.68444 12.357 4.30956C12.9821 4.93468 13.3333 5.78253 13.3333 6.66659V9.16659" stroke="white" stroke-width="1.4" stroke-linecap="round"/>
</svg>
