<svg width="14" height="14" viewBox="0 0 14 14" fill="none" xmlns="http://www.w3.org/2000/svg">
<path fill-rule="evenodd" clip-rule="evenodd" d="M9.62498 12.7395L9.60282 12.7442H9.60048C9.59115 12.7465 9.5824 12.7488 9.57307 12.75L9.5719 12.7506L9.60107 12.7448L9.62498 12.7395Z" fill="#FF2A68"/>
<path d="M12.8333 8.75C12.4927 8.75 12.2057 8.75 11.9583 8.75467C11.417 8.764 11.067 8.79492 10.7654 8.89292C10.3277 9.03516 9.92985 9.27896 9.60441 9.60441C9.27896 9.92985 9.03516 10.3277 8.89292 10.7654C8.79492 11.067 8.76458 11.417 8.75467 11.9583C8.75 12.2057 8.75 12.4927 8.75 12.8333C9.03175 12.8333 9.3065 12.8047 9.5725 12.7505L9.6005 12.7447H9.60283L9.625 12.7388C10.3871 12.5711 11.0854 12.1888 11.6372 11.637C12.1891 11.0852 12.5715 10.3871 12.7394 9.625C12.8007 9.34325 12.8333 9.05042 12.8333 8.75Z" fill="#FF2A68"/>
<path fill-rule="evenodd" clip-rule="evenodd" d="M1.16669 7.00008C1.16669 9.74992 1.16669 11.1248 2.02069 11.9788C2.87585 12.8334 4.25019 12.8334 7.00002 12.8334H7.87502V12.6817C7.87444 11.7443 7.87385 11.0688 8.06052 10.4948C8.10135 10.3712 8.14744 10.2498 8.19994 10.1314C7.8171 10.2789 7.4103 10.3545 7.00002 10.3542C6.27519 10.3537 5.56992 10.119 4.98927 9.68517C4.89598 9.61601 4.83398 9.51263 4.81692 9.39776C4.79985 9.2829 4.82912 9.16596 4.89827 9.07267C4.96743 8.97938 5.07081 8.91738 5.18567 8.90031C5.30054 8.88325 5.41748 8.91251 5.51077 8.98167C5.93544 9.29667 6.44819 9.47925 7.00002 9.47925C7.55185 9.47925 8.0646 9.29667 8.48927 8.98225C8.5625 8.92786 8.6509 8.89772 8.74211 8.89604C8.83331 8.89437 8.92276 8.92125 8.99794 8.97292C9.41876 8.55604 9.9314 8.24358 10.4948 8.06058C11.0688 7.87392 11.7443 7.8745 12.6823 7.87508H12.8334V7.00008C12.8334 4.25025 12.8334 2.87533 11.9788 2.02075C11.1254 1.16675 9.74985 1.16675 7.00002 1.16675C4.25019 1.16675 2.87527 1.16675 2.02069 2.02075C1.16669 2.87591 1.16669 4.25025 1.16669 7.00008ZM8.75002 7.00008C9.07202 7.00008 9.33335 6.60808 9.33335 6.12508C9.33335 5.64208 9.07202 5.25008 8.75002 5.25008C8.42802 5.25008 8.16669 5.64208 8.16669 6.12508C8.16669 6.60808 8.42802 7.00008 8.75002 7.00008ZM5.25002 7.00008C5.57202 7.00008 5.83335 6.60808 5.83335 6.12508C5.83335 5.64208 5.57202 5.25008 5.25002 5.25008C4.92802 5.25008 4.66669 5.64208 4.66669 6.12508C4.66669 6.60808 4.92802 7.00008 5.25002 7.00008Z" fill="#FF2A68"/>
</svg>
