<svg width="17" height="19" viewBox="0 0 17 19" fill="none" xmlns="http://www.w3.org/2000/svg">
<path fill-rule="evenodd" clip-rule="evenodd" d="M8.5 5.97461C7.6712 5.97461 6.87634 6.30385 6.29029 6.8899C5.70424 7.47595 5.375 8.27081 5.375 9.09961C5.375 9.92841 5.70424 10.7233 6.29029 11.3093C6.87634 11.8954 7.6712 12.2246 8.5 12.2246C9.3288 12.2246 10.1237 11.8954 10.7097 11.3093C11.2958 10.7233 11.625 9.92841 11.625 9.09961C11.625 8.27081 11.2958 7.47595 10.7097 6.8899C10.1237 6.30385 9.3288 5.97461 8.5 5.97461ZM6.625 9.09961C6.625 8.60233 6.82254 8.12541 7.17417 7.77378C7.52581 7.42215 8.00272 7.22461 8.5 7.22461C8.99728 7.22461 9.47419 7.42215 9.82582 7.77378C10.1775 8.12541 10.375 8.60233 10.375 9.09961C10.375 9.59689 10.1775 10.0738 9.82582 10.4254C9.47419 10.7771 8.99728 10.9746 8.5 10.9746C8.00272 10.9746 7.52581 10.7771 7.17417 10.4254C6.82254 10.0738 6.625 9.59689 6.625 9.09961Z" fill="#4284F3"/>
<path fill-rule="evenodd" clip-rule="evenodd" d="M8.47882 0.141602C8.10798 0.141602 7.79882 0.141602 7.54548 0.158268C7.28654 0.169051 7.03115 0.22255 6.78965 0.316602C6.51153 0.431676 6.25879 0.600413 6.04589 0.813174C5.83298 1.02594 5.66408 1.27855 5.54882 1.5566C5.42798 1.84827 5.39548 2.1566 5.38215 2.4916C5.38082 2.61412 5.34838 2.73429 5.28789 2.84084C5.2274 2.94739 5.14084 3.03683 5.03632 3.10077C4.92872 3.15952 4.80795 3.18996 4.68536 3.18923C4.56277 3.1885 4.44237 3.15663 4.33548 3.0966C4.03882 2.93993 3.75548 2.8141 3.44215 2.77243C3.14377 2.73319 2.84058 2.75309 2.5499 2.83102C2.25921 2.90895 1.98672 3.04337 1.74798 3.2266C1.54613 3.389 1.37241 3.58355 1.23382 3.80243C1.09215 4.0141 0.93715 4.2816 0.75215 4.60244L0.731316 4.6391C0.545483 4.95993 0.391316 5.22743 0.27965 5.45577C0.162983 5.6941 0.0713162 5.9291 0.0379829 6.1891C-0.0415169 6.79159 0.121549 7.40099 0.491316 7.88327C0.683816 8.1341 0.93465 8.3166 1.21798 8.49494C1.32362 8.55739 1.41162 8.64568 1.47373 8.75152C1.53583 8.85736 1.56999 8.97726 1.57298 9.09993C1.56999 9.22261 1.53583 9.34251 1.47373 9.44835C1.41162 9.55418 1.32362 9.64248 1.21798 9.70493C0.93465 9.88327 0.68465 10.0658 0.491316 10.3166C0.30808 10.5553 0.173662 10.8278 0.0957354 11.1185C0.0178093 11.4092 -0.00209814 11.7124 0.0371496 12.0108C0.0713163 12.2708 0.16215 12.5058 0.278816 12.7441C0.391316 12.9724 0.545483 13.2399 0.731316 13.5608L0.75215 13.5974C0.93715 13.9183 1.09215 14.1858 1.23382 14.3974C1.38132 14.6166 1.53965 14.8141 1.74798 14.9724C1.98666 15.1558 2.25912 15.2904 2.54981 15.3685C2.8405 15.4465 3.14372 15.4666 3.44215 15.4274C3.75548 15.3858 4.03882 15.2608 4.33548 15.1033C4.44225 15.0433 4.5625 15.0115 4.68495 15.0107C4.80739 15.01 4.92801 15.0404 5.03548 15.0991C5.14058 15.1625 5.22769 15.2518 5.28852 15.3585C5.34935 15.4651 5.38187 15.5855 5.38298 15.7083C5.39548 16.0433 5.42798 16.3516 5.54965 16.6433C5.66472 16.9214 5.83346 17.1741 6.04622 17.387C6.25898 17.5999 6.5116 17.7688 6.78965 17.8841C7.03132 17.9841 7.28132 18.0233 7.54548 18.0408C7.79882 18.0583 8.10798 18.0583 8.47882 18.0583H8.52048C8.89132 18.0583 9.20048 18.0583 9.45382 18.0416C9.71882 18.0233 9.96798 17.9841 10.2097 17.8833C10.4878 17.7682 10.7405 17.5995 10.9534 17.3867C11.1663 17.1739 11.3352 16.9213 11.4505 16.6433C11.5713 16.3516 11.6038 16.0433 11.6172 15.7083C11.6183 15.5856 11.6507 15.4653 11.7112 15.3586C11.7717 15.2519 11.8583 15.1623 11.963 15.0983C12.0707 15.0396 12.1915 15.0093 12.314 15.0102C12.4366 15.0111 12.557 15.0431 12.6638 15.1033C12.9605 15.2599 13.2438 15.3858 13.5572 15.4266C14.1596 15.5061 14.769 15.343 15.2513 14.9733C15.4597 14.8133 15.618 14.6166 15.7655 14.3974C15.9072 14.1858 16.0622 13.9183 16.2472 13.5974L16.268 13.5608C16.4538 13.2399 16.608 12.9724 16.7197 12.7441C16.8363 12.5058 16.928 12.2699 16.9613 12.0108C17.0408 11.4083 16.8778 10.7989 16.508 10.3166C16.3155 10.0658 16.0647 9.88327 15.7813 9.70493C15.6757 9.64248 15.5877 9.55418 15.5256 9.44835C15.4635 9.34251 15.4293 9.22261 15.4263 9.09993C15.4263 8.86827 15.553 8.63827 15.7813 8.49494C16.0647 8.3166 16.3147 8.1341 16.508 7.88327C16.6912 7.64453 16.8256 7.37204 16.9036 7.08136C16.9815 6.79067 17.0014 6.48748 16.9622 6.1891C16.9225 5.93303 16.8408 5.68525 16.7205 5.45577C16.5782 5.17889 16.4273 4.90654 16.268 4.6391L16.2472 4.60244C16.0949 4.33084 15.9343 4.06405 15.7655 3.80243C15.6269 3.58378 15.4532 3.38951 15.2513 3.22743C15.0126 3.04405 14.7402 2.90948 14.4495 2.83141C14.1588 2.75335 13.8556 2.7333 13.5572 2.77243C13.2438 2.8141 12.9605 2.9391 12.6638 3.0966C12.557 3.15648 12.4368 3.18827 12.3144 3.189C12.1919 3.18973 12.0713 3.15937 11.9638 3.10077C11.859 3.03703 11.7721 2.94768 11.7113 2.84112C11.6505 2.73455 11.6178 2.61428 11.6163 2.4916C11.6038 2.1566 11.5713 1.84827 11.4496 1.5566C11.3346 1.27848 11.1658 1.02574 10.9531 0.81284C10.7403 0.599936 10.4877 0.43103 10.2097 0.315768C9.96798 0.215768 9.71798 0.176602 9.45382 0.159102C9.20048 0.141602 8.89132 0.141602 8.52048 0.141602H8.47882ZM7.26798 1.47077C7.33215 1.4441 7.42965 1.41993 7.63048 1.40577C7.83632 1.3916 8.10298 1.3916 8.49965 1.3916C8.89632 1.3916 9.16298 1.3916 9.36882 1.40577C9.56965 1.41993 9.66715 1.4441 9.73132 1.47077C9.98715 1.5766 10.1896 1.7791 10.2955 2.03493C10.3288 2.11493 10.3563 2.24077 10.3672 2.53827C10.3921 3.19827 10.733 3.8341 11.338 4.18327C11.943 4.53327 12.6638 4.50993 13.248 4.2016C13.5113 4.06243 13.6338 4.02327 13.7205 4.01243C13.9943 3.97626 14.2713 4.05029 14.4905 4.21827C14.5455 4.26077 14.6155 4.33327 14.728 4.49993C14.8438 4.6716 14.9771 4.90243 15.1755 5.24577C15.3738 5.5891 15.5063 5.82077 15.5972 6.00577C15.6863 6.1866 15.7138 6.28327 15.7221 6.35243C15.7583 6.62624 15.6843 6.9032 15.5163 7.12243C15.463 7.1916 15.368 7.27827 15.1163 7.4366C14.5563 7.78827 14.1763 8.4016 14.1763 9.09993C14.1763 9.79827 14.5563 10.4116 15.1163 10.7633C15.368 10.9216 15.463 11.0083 15.5163 11.0774C15.6847 11.2966 15.758 11.5733 15.7221 11.8474C15.7138 11.9166 15.6855 12.0141 15.5972 12.1941C15.5063 12.3799 15.3738 12.6108 15.1755 12.9541C14.9771 13.2974 14.843 13.5283 14.728 13.6999C14.6155 13.8666 14.5455 13.9391 14.4905 13.9816C14.2713 14.1496 13.9943 14.2236 13.7205 14.1874C13.6338 14.1766 13.5122 14.1374 13.248 13.9983C12.6646 13.6899 11.943 13.6666 11.338 14.0158C10.733 14.3658 10.3921 15.0016 10.3672 15.6616C10.3563 15.9591 10.3288 16.0849 10.2955 16.1649C10.2431 16.2914 10.1664 16.4064 10.0696 16.5032C9.97275 16.6 9.85781 16.6768 9.73132 16.7291C9.66715 16.7558 9.56965 16.7799 9.36882 16.7941C9.16298 16.8083 8.89632 16.8083 8.49965 16.8083C8.10298 16.8083 7.83632 16.8083 7.63048 16.7941C7.42965 16.7799 7.33215 16.7558 7.26798 16.7291C7.14149 16.6768 7.02655 16.6 6.92974 16.5032C6.83294 16.4064 6.75617 16.2914 6.70382 16.1649C6.67048 16.0849 6.64298 15.9591 6.63215 15.6616C6.60715 15.0016 6.26632 14.3658 5.66132 14.0166C5.05632 13.6666 4.33548 13.6899 3.75132 13.9983C3.48798 14.1374 3.36548 14.1766 3.27882 14.1874C3.00501 14.2236 2.72805 14.1496 2.50882 13.9816C2.45382 13.9391 2.38382 13.8666 2.27132 13.6999C2.11458 13.4559 1.96534 13.2072 1.82382 12.9541C1.62548 12.6108 1.49298 12.3791 1.40215 12.1941C1.31298 12.0133 1.28548 11.9166 1.27715 11.8474C1.24097 11.5736 1.31501 11.2967 1.48298 11.0774C1.53632 11.0083 1.63132 10.9216 1.88298 10.7633C2.44298 10.4116 2.82298 9.79827 2.82298 9.09993C2.82298 8.4016 2.44298 7.78827 1.88298 7.4366C1.63132 7.27827 1.53632 7.1916 1.48298 7.12243C1.31501 6.9032 1.24097 6.62624 1.27715 6.35243C1.28548 6.28327 1.31382 6.18577 1.40215 6.00577C1.49298 5.81993 1.62548 5.5891 1.82382 5.24577C2.02215 4.90243 2.15632 4.6716 2.27132 4.49993C2.38382 4.33327 2.45382 4.26077 2.50882 4.21827C2.72805 4.05029 3.00501 3.97626 3.27882 4.01243C3.36548 4.02327 3.48715 4.06243 3.75132 4.2016C4.33465 4.50993 5.05632 4.53327 5.66132 4.18327C6.26632 3.8341 6.60715 3.19827 6.63215 2.53827C6.64298 2.24077 6.67048 2.11493 6.70382 2.03493C6.80965 1.7791 7.01215 1.5766 7.26798 1.47077Z" fill="#4284F3"/>
</svg>
