<svg width="20" height="20" viewBox="0 0 20 20" fill="none" xmlns="http://www.w3.org/2000/svg">
<path d="M12.7587 12.2408C12.2709 11.7527 11.4788 11.7527 10.9913 12.2408L7.60719 15.6249H6.25V17.4999H8.75C9.06969 17.4999 9.39 17.3777 9.63375 17.134L12.7587 14.009C13.2472 13.5205 13.2472 12.7293 12.7587 12.2408Z" fill="#F0C8A0"/>
<path d="M8.48889 14.7393L10.9886 12.2396L12.7561 14.0071L10.2564 16.5068L8.48889 14.7393Z" fill="#00325A"/>
<path d="M5.625 9.375C7.35089 9.375 8.75 7.97589 8.75 6.25C8.75 4.52411 7.35089 3.125 5.625 3.125C3.89911 3.125 2.5 4.52411 2.5 6.25C2.5 7.97589 3.89911 9.375 5.625 9.375Z" fill="#FAB400"/>
<path d="M7.1875 5.9375H6.25V5C6.25 4.8275 6.11 4.6875 5.9375 4.6875H5.3125C5.14 4.6875 5 4.8275 5 5V5.9375H4.0625C3.89 5.9375 3.75 6.0775 3.75 6.25V6.875C3.75 7.0475 3.89 7.1875 4.0625 7.1875H5V8.125C5 8.2975 5.14 8.4375 5.3125 8.4375H5.9375C6.11 8.4375 6.25 8.2975 6.25 8.125V7.1875H7.1875C7.36 7.1875 7.5 7.0475 7.5 6.875V6.25C7.5 6.0775 7.36 5.9375 7.1875 5.9375Z" fill="#DC9600"/>
<path d="M7.1875 5.625H6.25V4.6875C6.25 4.515 6.11 4.375 5.9375 4.375H5.3125C5.14 4.375 5 4.515 5 4.6875V5.625H4.0625C3.89 5.625 3.75 5.765 3.75 5.9375V6.5625C3.75 6.735 3.89 6.875 4.0625 6.875H5V7.8125C5 7.985 5.14 8.125 5.3125 8.125H5.9375C6.11 8.125 6.25 7.985 6.25 7.8125V6.875H7.1875C7.36 6.875 7.5 6.735 7.5 6.5625V5.9375C7.5 5.765 7.36 5.625 7.1875 5.625Z" fill="#F0F0F0"/>
<path d="M13.125 12.5H8.75V13.125C8.75 14.1606 9.58938 15 10.625 15H13.125V12.5Z" fill="#0A5078"/>
<path d="M15 12.5H13.125V15H14.375V16.875H16.25V13.75C16.25 13.0597 15.6903 12.5 15 12.5Z" fill="#F0C8A0"/>
<path d="M13.125 15V12.5H13.4375V15H13.125Z" fill="#D2AA82"/>
<path d="M11.25 6.875V7.5H10V6.875H11.25Z" fill="#D2AA82"/>
<path d="M8.75 8.4375V12.5H13.125V7.5H9.6875C9.16969 7.5 8.75 7.91969 8.75 8.4375Z" fill="#C80A50"/>
<path d="M13.125 7.5H10.8616L10.2744 8.08719C9.90813 8.45344 9.90813 9.04687 10.2744 9.41312C10.6406 9.77937 11.2341 9.77937 11.6003 9.41312L13.125 7.88844V7.5Z" fill="#A00028"/>
<path d="M12.5 4.375V6.25C12.5 6.59531 12.2203 6.875 11.875 6.875H10C9.65469 6.875 9.375 6.59531 9.375 6.25V4.375H12.5Z" fill="#F0C8A0"/>
<path d="M12.5 6.25V4.375H12.1875V5.54906L10.8616 6.875H11.875C12.2203 6.875 12.5 6.59531 12.5 6.25Z" fill="#D2AA82"/>
<path d="M12.5 4.375H11.5625C11.39 4.375 11.25 4.515 11.25 4.6875C11.25 4.86 11.11 5 10.9375 5H10.625V6.25C10.625 6.59531 10.3453 6.875 10 6.875C9.65469 6.875 9.375 6.59531 9.375 6.25V4.375C9.375 3.68469 9.93469 3.125 10.625 3.125H11.875C12.2203 3.125 12.5 3.40469 12.5 3.75V4.375Z" fill="#0A5078"/>
<path d="M17.5 18.125V18.4375C17.5 18.61 17.36 18.75 17.1875 18.75H15C14.6547 18.75 14.375 18.4703 14.375 18.125V16.875H16.25C16.9403 16.875 17.5 17.4347 17.5 18.125Z" fill="#C80A50"/>
<path d="M4.375 18.75H4.0625C3.89 18.75 3.75 18.61 3.75 18.4375V16.25C3.75 15.9047 4.02969 15.625 4.375 15.625H5.625V17.5C5.625 18.1903 5.06531 18.75 4.375 18.75Z" fill="#C80A50"/>
<path d="M10.625 5V5.625H10.3125C10.14 5.625 10 5.485 10 5.3125C10 5.14 10.14 5 10.3125 5H10.625Z" fill="#D2AA82"/>
<path d="M14.375 16.25H16.25V16.875H14.375V16.25Z" fill="#FAB400"/>
<path d="M8.75 12.1875H13.125V12.5H8.75V12.1875Z" fill="#A00028"/>
<path d="M5.625 15.625H6.25V17.5H5.625V15.625Z" fill="#FAB400"/>
<path d="M13.4375 1.25C12.9197 1.25 12.5 1.66969 12.5 2.1875V5.54906L10.2747 7.77437C9.90844 8.14062 9.90844 8.73406 10.2747 9.10031C10.6409 9.46656 11.2344 9.46656 11.6006 9.10031L14.1006 6.60031C14.2834 6.4175 14.375 6.1775 14.375 5.9375V2.1875C14.375 1.66969 13.9553 1.25 13.4375 1.25Z" fill="#F0C8A0"/>
<path d="M12.1875 3.20874V4.37499H12.5V3.74999C12.5 3.51874 12.3744 3.31687 12.1875 3.20874Z" fill="#00325A"/>
<path d="M7.5 10.3125C7.32719 10.3125 7.1875 10.4525 7.1875 10.625V11.875C7.1875 12.7366 6.48656 13.4375 5.625 13.4375H4.375V12.8125C4.375 12.6941 4.30812 12.5859 4.20219 12.5328C4.09656 12.4803 3.96937 12.4916 3.875 12.5625L2.625 13.5C2.54625 13.5591 2.5 13.6516 2.5 13.75C2.5 13.8484 2.54625 13.9409 2.625 14L3.875 14.9375C3.93 14.9787 3.99625 15 4.0625 15C4.11 15 4.15812 14.9891 4.20219 14.9672C4.30812 14.9141 4.375 14.8059 4.375 14.6875V14.0625H5.625C6.83094 14.0625 7.8125 13.0812 7.8125 11.875V10.625C7.8125 10.4525 7.67281 10.3125 7.5 10.3125Z" fill="#00A0C8"/>
<path d="M17.4375 5.12496L16.5 3.87496C16.3822 3.71746 16.1178 3.71746 16 3.87496L15.0625 5.12496C14.9913 5.21965 14.98 5.34621 15.0328 5.45215C15.0859 5.55809 15.1941 5.62496 15.3125 5.62496H15.9375V6.87496C15.9375 7.73652 15.2366 8.43746 14.375 8.43746H13.75C13.5772 8.43746 13.4375 8.57746 13.4375 8.74996C13.4375 8.92246 13.5772 9.06246 13.75 9.06246H14.375C15.5809 9.06246 16.5625 8.08121 16.5625 6.87496V5.62496H17.1875C17.3059 5.62496 17.4141 5.55809 17.4672 5.45215C17.5197 5.34621 17.5084 5.21965 17.4375 5.12496Z" fill="#00A0C8"/>
</svg>
