<svg width="20" height="20" viewBox="0 0 20 20" fill="none" xmlns="http://www.w3.org/2000/svg">
<path d="M18.9846 6.65391L17.6123 7.4043L16.8619 8.77656L16.1115 7.4043L14.7393 6.65391L16.1115 5.90352L16.8619 4.53125L17.6123 5.90352L18.9846 6.65391Z" fill="#F7D694"/>
<path d="M7.26582 16.4195L5.89355 17.1699L5.14316 18.5422L4.39277 17.1699L3.02051 16.4195L4.39277 15.6691L5.14316 14.2969L5.89355 15.6691L7.26582 16.4195Z" fill="#F7D694"/>
<path d="M13.0734 9.38828L10.691 10.691L9.38828 13.0734L8.08555 10.691L5.70312 9.38828L8.08555 8.08555L9.38828 5.70312L10.691 8.08555L13.0734 9.38828Z" fill="#FCD884"/>
<path d="M16.2502 16.8619L14.8779 17.6123L14.1275 18.9846L13.3771 17.6123L12.0049 16.8619L13.3771 16.1115L14.1275 14.7393L14.8779 16.1115L16.2502 16.8619Z" fill="#FFCD02"/>
<path d="M5.26094 3.13828L3.88867 3.88867L3.13828 5.26094L2.38789 3.88867L1.01562 3.13828L2.38789 2.38789L3.13828 1.01562L3.88867 2.38789L5.26094 3.13828Z" fill="#FFCD02"/>
</svg>
