<svg width="20" height="20" viewBox="0 0 20 20" fill="none" xmlns="http://www.w3.org/2000/svg">
<path d="M10 2C5.58175 2 2 5.58175 2 10C2 14.4185 5.58175 18 10 18C14.4185 18 18 14.4185 18 10C18 5.58175 14.4185 2 10 2ZM10 17.0157C6.14025 17.0157 3 13.8597 3 9.99997C3 6.14022 6.14025 2.99997 10 2.99997C13.8597 2.99997 17 6.14023 17 9.99997C17 13.8597 13.8597 17.0157 10 17.0157ZM13.1927 7.07275L8.49898 11.796L6.38523 9.68225C6.18998 9.487 5.87348 9.487 5.67798 9.68225C5.48273 9.8775 5.48273 10.194 5.67798 10.3892L8.15273 12.8643C8.34798 13.0592 8.66448 13.0592 8.85998 12.8643C8.88248 12.8418 8.90175 12.8172 8.91925 12.7917L13.9003 7.77998C14.0953 7.58473 14.0953 7.26823 13.9003 7.07275C13.7048 6.8775 13.3883 6.8775 13.1927 7.07275Z" fill="#4284F3"/>
</svg>
