<svg width="19" height="18" viewBox="0 0 19 18" fill="none" xmlns="http://www.w3.org/2000/svg">
<mask id="mask0_3318_72627" style="mask-type:luminance" maskUnits="userSpaceOnUse" x="0" y="0" width="19" height="18">
<path d="M9.33334 17.3333C10.4279 17.3347 11.5119 17.1198 12.5232 16.701C13.5344 16.2821 14.4529 15.6675 15.2258 14.8925C16.0008 14.1195 16.6154 13.2011 17.0343 12.1898C17.4532 11.1786 17.6681 10.0946 17.6667 9C17.6681 7.90544 17.4532 6.82141 17.0343 5.81018C16.6154 4.79894 16.0008 3.88046 15.2258 3.1075C14.4529 2.33251 13.5344 1.71791 12.5232 1.29903C11.5119 0.880152 10.4279 0.665245 9.33334 0.666663C8.23879 0.665268 7.15475 0.880185 6.14352 1.29906C5.13229 1.71794 4.2138 2.33253 3.44084 3.1075C2.66587 3.88046 2.05129 4.79894 1.63241 5.81018C1.21353 6.82141 0.998612 7.90544 1.00001 9C0.998589 10.0946 1.2135 11.1786 1.63238 12.1898C2.05126 13.2011 2.66585 14.1195 3.44084 14.8925C4.2138 15.6675 5.13229 16.2821 6.14352 16.7009C7.15475 17.1198 8.23879 17.3347 9.33334 17.3333Z" fill="white" stroke="white" stroke-linejoin="round"/>
<path d="M6 9L8.5 11.5L13.5 6.5" stroke="black" stroke-linecap="round" stroke-linejoin="round"/>
</mask>
<g mask="url(#mask0_3318_72627)">
<path d="M-0.666992 -1H19.333V19H-0.666992V-1Z" fill="white"/>
</g>
</svg>
