<svg width="20" height="20" viewBox="0 0 20 20" fill="none" xmlns="http://www.w3.org/2000/svg">
<g clip-path="url(#clip0_3714_64195)">
<path d="M2.96875 20C4.58405 20 5.89844 18.6465 5.89844 17.0312C5.89844 15.416 4.58405 14.0625 2.96875 14.0625C1.35345 14.0625 0 15.416 0 17.0312C0 18.6465 1.35345 20 2.96875 20Z" fill="#1F1F1F"/>
<path d="M9.45312 19.4141C9.45312 19.6118 9.43634 19.8055 9.42337 20H12.939C12.9483 19.8044 12.9688 19.6118 12.9688 19.4141C12.9688 12.6294 7.37061 7.03125 0.585938 7.03125C0.388184 7.03125 0.195618 7.0517 0 7.061V10.5766C0.19455 10.5637 0.388184 10.5469 0.585938 10.5469C5.43243 10.5469 9.45312 14.5676 9.45312 19.4141Z" fill="#1F1F1F"/>
<path d="M0.585938 0C0.388031 0 0.196381 0.0238037 0 0.029602V3.54538C0.196075 3.53806 0.388184 3.51562 0.585938 3.51562C9.30923 3.51562 16.4844 10.6908 16.4844 19.4141C16.4844 19.6118 16.4619 19.8039 16.4546 20H19.9704C19.9762 19.8036 20 19.612 20 19.4141C20 8.73505 11.2648 0 0.585938 0Z" fill="#1F1F1F"/>
</g>
<defs>
<clipPath id="clip0_3714_64195">
<rect width="20" height="20" fill="white"/>
</clipPath>
</defs>
</svg>
