<svg width="20" height="20" viewBox="0 0 20 20" fill="none" xmlns="http://www.w3.org/2000/svg">
<path d="M15 13.125V17.5C15 17.6658 15.0658 17.8247 15.1831 17.9419C15.3003 18.0592 15.4592 18.125 15.625 18.125H18.125C18.2908 18.125 18.4497 18.0592 18.5669 17.9419C18.6842 17.8247 18.75 17.6658 18.75 17.5V13.125L16.875 11.875L15 13.125ZM17.1094 13.4838C17.2438 13.5382 17.3552 13.6377 17.4244 13.7652C17.4935 13.8927 17.5162 14.0402 17.4885 14.1826C17.4608 14.325 17.3844 14.4533 17.2725 14.5455C17.1606 14.6378 17.02 14.6882 16.875 14.6882C16.73 14.6882 16.5894 14.6378 16.4775 14.5455C16.3656 14.4533 16.2892 14.325 16.2615 14.1826C16.2338 14.0402 16.2565 13.8927 16.3256 13.7652C16.3948 13.6377 16.5062 13.5382 16.6406 13.4838L16.875 13.125L17.1094 13.4838Z" fill="#F6E05C"/>
<path d="M8.75 14.4531H5.625C5.56284 14.4531 5.50323 14.4284 5.45927 14.3845C5.41532 14.3405 5.39062 14.2809 5.39062 14.2188C5.39062 14.1566 5.41532 14.097 5.45927 14.053C5.50323 14.0091 5.56284 13.9844 5.625 13.9844H8.75C8.81216 13.9844 8.87177 14.0091 8.91573 14.053C8.95968 14.097 8.98438 14.1566 8.98438 14.2188C8.98438 14.2809 8.95968 14.3405 8.91573 14.3845C8.87177 14.4284 8.81216 14.4531 8.75 14.4531Z" fill="#D72332"/>
<path d="M18.75 7.8125C18.75 9.88356 14.8325 11.5625 10 11.5625C5.1675 11.5625 1.25 9.88356 1.25 7.8125H18.75Z" fill="#F05660"/>
<path d="M10.3125 11.5591C15 11.4884 18.75 9.83862 18.75 7.8125H2.5C2.5 9.83862 5.625 11.4884 10.3125 11.5591Z" fill="#E13C46"/>
<path d="M10 1.5625C11.2432 1.5625 12.4355 2.05636 13.3146 2.93544C14.1936 3.81451 14.6875 5.0068 14.6875 6.25V7.8125H5.3125V6.25C5.3125 5.0068 5.80636 3.81451 6.68544 2.93544C7.56451 2.05636 8.7568 1.5625 10 1.5625Z" fill="#F05660"/>
<path d="M10.3125 1.57837C7.87003 1.73987 6.5625 3.76674 6.5625 6.25009V7.81259H14.6875V6.25009C14.687 5.06166 14.2347 3.91786 13.4224 3.05042C12.61 2.18298 11.4983 1.65676 10.3125 1.57837Z" fill="#E13C46"/>
<path d="M4.6875 6.5625H15.3125V7.8125H4.6875V6.5625Z" fill="#FFF096"/>
<path d="M9.0625 13.125H10.9375C11.4348 13.125 11.9117 13.3225 12.2633 13.6742C12.615 14.0258 12.8125 14.5027 12.8125 15V15.625C12.8125 16.1223 12.615 16.5992 12.2633 16.9508C11.9117 17.3025 11.4348 17.5 10.9375 17.5C10.1087 17.5 9.31384 17.1708 8.72779 16.5847C8.14174 15.9987 7.8125 15.2038 7.8125 14.375C7.8125 14.0435 7.9442 13.7255 8.17862 13.4911C8.41304 13.2567 8.73098 13.125 9.0625 13.125Z" fill="#414650"/>
<path d="M3.4375 17.5C2.94022 17.5 2.46331 17.3025 2.11167 16.9508C1.76004 16.5992 1.5625 16.1223 1.5625 15.625V15C1.5625 14.5027 1.76004 14.0258 2.11167 13.6742C2.46331 13.3225 2.94022 13.125 3.4375 13.125H5.3125C5.64402 13.125 5.96196 13.2567 6.19638 13.4911C6.4308 13.7255 6.5625 14.0435 6.5625 14.375C6.5625 15.2038 6.23326 15.9987 5.64721 16.5847C5.06116 17.1708 4.2663 17.5 3.4375 17.5Z" fill="#414650"/>
<path d="M10.9375 13.5938C11.3103 13.5942 11.6678 13.7425 11.9314 14.0061C12.195 14.2697 12.3433 14.6272 12.3438 15V15.625C12.3433 15.9978 12.195 16.3553 11.9314 16.6189C11.6678 16.8825 11.3103 17.0308 10.9375 17.0312C10.2333 17.0304 9.55813 16.7503 9.06016 16.2523C8.5622 15.7544 8.28208 15.0792 8.28125 14.375C8.28148 14.1679 8.36387 13.9693 8.51033 13.8228C8.65679 13.6764 8.85537 13.594 9.0625 13.5938H10.9375ZM10.9375 13.125H9.0625C8.73098 13.125 8.41304 13.2567 8.17862 13.4911C7.9442 13.7255 7.8125 14.0435 7.8125 14.375C7.8125 15.2038 8.14174 15.9987 8.72779 16.5847C9.31384 17.1708 10.1087 17.5 10.9375 17.5C11.4348 17.5 11.9117 17.3025 12.2633 16.9508C12.615 16.5992 12.8125 16.1223 12.8125 15.625V15C12.8125 14.5027 12.615 14.0258 12.2633 13.6742C11.9117 13.3225 11.4348 13.125 10.9375 13.125Z" fill="#E13C46"/>
<path d="M5.3125 13.5938C5.51963 13.594 5.71821 13.6764 5.86467 13.8228C6.01113 13.9693 6.09352 14.1679 6.09375 14.375C6.09292 15.0792 5.8128 15.7544 5.31484 16.2523C4.81687 16.7503 4.14173 17.0304 3.4375 17.0312C3.06467 17.0308 2.70723 16.8825 2.4436 16.6189C2.17997 16.3553 2.03167 15.9978 2.03125 15.625V15C2.03167 14.6272 2.17997 14.2697 2.4436 14.0061C2.70723 13.7425 3.06467 13.5942 3.4375 13.5938H5.3125ZM5.3125 13.125H3.4375C2.94022 13.125 2.46331 13.3225 2.11167 13.6742C1.76004 14.0258 1.5625 14.5027 1.5625 15V15.625C1.5625 16.1223 1.76004 16.5992 2.11167 16.9508C2.46331 17.3025 2.94022 17.5 3.4375 17.5C4.2663 17.5 5.06116 17.1708 5.64721 16.5847C6.23326 15.9987 6.5625 15.2038 6.5625 14.375C6.5625 14.0435 6.4308 13.7255 6.19638 13.4911C5.96196 13.2567 5.64402 13.125 5.3125 13.125Z" fill="#E13C46"/>
<path d="M16.875 13.672C16.8128 13.672 16.7532 13.6473 16.7093 13.6033C16.6653 13.5594 16.6406 13.4998 16.6406 13.4376V12.4088C16.6426 11.822 16.4801 11.2464 16.1715 10.7473C15.863 10.2481 15.4208 9.84538 14.895 9.58475C14.8394 9.55691 14.7972 9.50812 14.7775 9.44912C14.7579 9.39011 14.7625 9.32573 14.7903 9.27012C14.8182 9.21452 14.867 9.17225 14.926 9.15262C14.985 9.13298 15.0494 9.1376 15.105 9.16543C15.7087 9.46484 16.2165 9.92739 16.5707 10.5007C16.925 11.0739 17.1116 11.735 17.1094 12.4088V13.4376C17.1094 13.4998 17.0847 13.5594 17.0407 13.6033C16.9968 13.6473 16.9372 13.672 16.875 13.672Z" fill="#414650"/>
<path d="M5.3125 7.1875H15.3125V7.8125H5.3125V7.1875Z" fill="#F6E05C"/>
</svg>
