<svg width="20" height="20" viewBox="0 0 20 20" fill="none" xmlns="http://www.w3.org/2000/svg">
<path d="M10.0062 19.5C11.4662 19.5 12.6262 18.32 12.6462 16.86H7.36621C7.38621 18.32 8.54621 19.5 10.0062 19.5Z" fill="#4284F3"/>
<path d="M17.2262 13.04L15.5462 10.3C15.2662 9.84 15.1262 9.32 15.1262 8.78V7.68C15.1262 5.38 13.6662 3.26 11.4862 2.6V1.98C11.4862 1.16 10.8262 0.5 10.0062 0.5C9.18625 0.5 8.52625 1.16 8.52625 1.98V2.6C6.42625 3.24 4.88625 5.18 4.88625 7.48V8.78C4.88625 9.32 4.74625 9.84 4.46625 10.3L2.78625 13.04C2.46625 13.56 2.44625 14.2 2.74625 14.74C3.04625 15.28 3.60625 15.6 4.20625 15.6H15.7662C16.3862 15.6 16.9262 15.28 17.2262 14.74C17.5462 14.2 17.5462 13.56 17.2262 13.04Z" fill="#4284F3"/>
</svg>
