<svg width="18" height="16" viewBox="0 0 18 16" fill="none" xmlns="http://www.w3.org/2000/svg">
<path d="M9 8.0104V8.01873M5.66667 8.0104V8.01873M12.3333 8.0104V8.01873M1.5 14.6771L2.58333 11.4271C1.64704 10.0423 1.30833 8.40241 1.63018 6.81232C1.95204 5.22223 2.91255 3.79013 4.33314 2.7823C5.75373 1.77446 7.53772 1.25948 9.35341 1.3331C11.1691 1.40672 12.8929 2.06393 14.2044 3.18253C15.5159 4.30114 16.3257 5.80502 16.4834 7.41456C16.6411 9.02409 16.1358 10.6298 15.0616 11.933C13.9873 13.2363 12.4172 14.1484 10.6432 14.4999C8.86911 14.8513 7.01184 14.6182 5.41667 13.8437L1.5 14.6771Z" stroke="white" stroke-width="1.5" stroke-linecap="round" stroke-linejoin="round"/>
</svg>
