<svg width="17" height="20" viewBox="0 0 17 20" fill="none" xmlns="http://www.w3.org/2000/svg">
<path d="M16.0197 18.2951V18.4539C16.0197 18.8639 15.8568 19.2572 15.5668 19.5471C15.2769 19.8371 14.8836 20 14.4736 20H3.60254C3.60254 20 5.44989 19.802 7.51519 18.3486C9.77764 16.7563 11.4536 16.749 11.4838 16.749H14.4736C14.8836 16.749 15.2769 16.9119 15.5668 17.2018C15.8568 17.4918 16.0197 17.885 16.0197 18.2951Z" fill="#C24E38"/>
<path d="M8.09998 0C6.82532 0.000790016 5.60316 0.507803 4.70227 1.40954C3.80137 2.31128 3.2955 3.53391 3.2959 4.80857C3.2959 6.75551 4.44202 8.40816 6.10488 9.18367H6.10529L9.98324 9.23225C11.002 8.79727 11.8394 8.02395 12.3539 7.04295C12.8684 6.06194 13.0284 4.93341 12.807 3.84803C12.5856 2.76265 11.9963 1.78697 11.1387 1.08586C10.2811 0.384752 9.20771 0.00119519 8.09998 0Z" fill="#6ADDC7"/>
<path d="M4.52039 4.80858C4.52019 3.63992 4.94558 2.51119 5.71704 1.63335C6.4885 0.755507 7.55323 0.18864 8.71222 0.0386991C8.0349 -0.0477461 7.34693 0.01108 6.69411 0.211261C6.0413 0.411443 5.43861 0.748387 4.92617 1.19966C4.41373 1.65094 4.0033 2.2062 3.7222 2.82847C3.4411 3.45074 3.29577 4.12576 3.2959 4.80858C3.2959 6.75552 4.44202 8.40817 6.10488 9.18368H7.32937C5.66651 8.40817 4.52039 6.75552 4.52039 4.80858Z" fill="#55A394"/>
<path d="M14.3532 14.2947L13.6785 11.5143C13.5152 10.9282 13.2973 10.5106 12.8548 10.2041C12.5863 10.0175 12.2348 9.87224 11.7626 9.75469C11.3684 9.66091 10.9691 9.58991 10.5667 9.54204C9.71197 14.0118 6.0483 15.0567 6.0483 15.0567L5.95605 16.749H11.5659L13.4499 16.0192C13.7844 15.8907 14.0606 15.6447 14.2268 15.3273C14.3931 15.0099 14.438 14.6428 14.3532 14.2947Z" fill="#FB6771"/>
<path d="M10.6614 5.37021C10.6614 5.37021 11.6703 5.35102 10.8687 6.67919C10.8059 6.78409 10.752 6.86654 10.7369 6.9498C10.5875 7.76 9.90137 7.24123 9.90137 7.24123C10.0618 6.94805 10.1456 6.61911 10.145 6.2849V5.60164H10.1732C10.2666 5.60168 10.3589 5.58094 10.4434 5.54091C10.5278 5.50088 10.6023 5.44257 10.6614 5.37021Z" fill="#EFC597"/>
<path d="M10.8045 4.68489V4.96898C10.8046 5.13659 10.7381 5.29739 10.6197 5.41603C10.5013 5.53466 10.3406 5.60142 10.173 5.60163H10.1449V4.74571C10.1449 4.5988 10.1104 4.45393 10.0441 4.32283C9.97779 4.19173 9.88158 4.07806 9.76323 3.99102C9.65366 3.91446 9.52258 3.87472 9.38895 3.87755C9.23965 3.88047 9.09265 3.91482 8.95752 3.97836C8.48405 4.29632 7.99589 4.31224 7.40038 3.95387C7.3167 3.89387 7.17262 3.85836 7.0265 3.85836C6.88527 3.85836 6.74201 3.89142 6.64976 3.96775C6.50236 4.06103 6.38091 4.19006 6.29671 4.34283C6.21251 4.49561 6.16828 4.66718 6.16813 4.84163V5.60163C6.00058 5.60133 5.84001 5.53452 5.72169 5.41589C5.60337 5.29727 5.53698 5.13652 5.53711 4.96898V4.68489C5.53711 3.77673 5.99466 3.21918 6.6914 2.74449C6.76655 2.6934 6.82974 2.62662 6.8766 2.54876C6.92346 2.47089 6.95287 2.38379 6.96282 2.29346C7.00486 1.91265 7.21752 1.29469 8.15588 1.29428C9.02691 1.29428 9.26609 1.92897 9.33099 2.30326C9.34555 2.38643 9.3771 2.4657 9.42365 2.53614C9.47021 2.60658 9.53079 2.66666 9.6016 2.71265C10.3253 3.18285 10.8045 3.75632 10.8045 4.68489Z" fill="#6D7486"/>
<path d="M6.04883 13.7184V12.3682C6.04883 12.3682 9.06475 12.3106 9.77658 9.02408C9.84149 9.09675 9.91045 9.1657 9.98311 9.23061C10.1717 9.39714 10.3745 9.51714 10.5672 9.54204C9.7125 14.0118 6.04883 15.0567 6.04883 15.0567V13.7184Z" fill="#FC8692"/>
<path d="M9.19536 7.98449L6.99617 7.90245C6.86964 8.38898 6.48556 8.86653 6.10515 9.18041H6.10475C6.08597 9.19592 6.0676 9.21061 6.04883 9.22531V12.3682C6.04883 12.3682 9.06475 12.3106 9.77658 9.02408C9.46271 8.67429 9.22271 8.23347 9.19536 7.98449Z" fill="#EFC597"/>
<path d="M6.048 15.5661L5.15167 15.0567L4.08228 14.4486L4.0831 14.4473L4.00351 9.81102C2.93412 10.1249 2.56596 10.6331 2.32106 11.5143L1.64637 14.2947C1.56156 14.6428 1.60649 15.0099 1.77274 15.3273C1.93899 15.6447 2.21517 15.8907 2.54963 16.0192L4.44433 16.749H6.11943V16.7416L6.58718 15.8727L6.048 15.5661Z" fill="#EFC597"/>
<path d="M6.471 7.34205C6.471 7.34205 5.791 7.59103 5.66896 6.94981C5.65305 6.86654 5.59998 6.78409 5.53713 6.67919C4.73549 5.35103 5.70039 5.39348 5.70039 5.39348C5.75939 5.45905 5.83153 5.51148 5.91212 5.54734C5.9927 5.58321 6.07994 5.60171 6.16815 5.60164V6.28491C6.16755 6.65878 6.27253 7.02521 6.471 7.34205Z" fill="#EFC597"/>
<path d="M5.43329 9.54203C5.24962 9.56448 5.07778 9.58815 4.91615 9.61387C4.60822 9.66028 4.30353 9.72613 4.00391 9.81101L4.0835 14.4473L4.08268 14.4486L5.15207 15.0567L6.0484 15.5661L6.0488 15.5657V9.2253C5.8186 9.4053 5.5937 9.52244 5.43329 9.54203Z" fill="#E75163"/>
<path d="M9.76307 3.99102C9.6535 3.91446 9.52242 3.87473 9.38879 3.87755C9.23949 3.88047 9.09248 3.91482 8.95736 3.97837C8.48389 4.29633 7.99572 4.31225 7.40021 3.95388C7.31654 3.89388 7.17246 3.85837 7.02634 3.85837C6.88511 3.85837 6.74185 3.89143 6.6496 3.96776C6.5022 4.06104 6.38075 4.19006 6.29655 4.34284C6.21235 4.49561 6.16812 4.66719 6.16797 4.84163V6.2849C6.16797 6.54601 6.2194 6.80457 6.31932 7.04581C6.41925 7.28705 6.56571 7.50625 6.75035 7.69089C6.93499 7.87552 7.15418 8.02199 7.39542 8.12191C7.63666 8.22184 7.89522 8.27327 8.15634 8.27327C8.41745 8.27327 8.67601 8.22184 8.91725 8.12191C9.15849 8.02199 9.37769 7.87552 9.56232 7.69089C9.74696 7.50625 9.89342 7.28705 9.99335 7.04581C10.0933 6.80457 10.1447 6.54601 10.1447 6.2849V4.74571C10.1447 4.5988 10.1102 4.45394 10.0439 4.32284C9.97763 4.19173 9.88142 4.07806 9.76307 3.99102Z" fill="#FFD8B7"/>
<path d="M1.52612 16.7347C0.672245 16.7347 0 17.4412 0 18.2951V18.4539C0 19.3078 0.672245 20 1.52612 20H3.68449C3.68449 20 5.53184 19.7949 7.59714 18.3414C9.85959 16.7492 11.5355 16.7347 11.5657 16.7347H1.52612Z" fill="#ED6337"/>
<path d="M2.87087 14.2947L3.54556 11.5143C3.65777 11.1105 3.79614 10.7852 4.01573 10.5209L4.00348 9.81102C2.93409 10.1249 2.56593 10.6331 2.32103 11.5143L1.64634 14.2947C1.56154 14.6419 1.60655 15.0081 1.77292 15.3244C1.93928 15.6408 2.21552 15.8854 2.54965 16.0122L4.44434 16.7347H5.66883L3.77413 16.0122C3.44002 15.8854 3.16379 15.6407 2.99743 15.3244C2.83108 15.0081 2.78607 14.6419 2.87087 14.2947Z" fill="#CEA882"/>
<path d="M1.22449 18.4539V18.2951C1.22449 17.4412 1.89673 16.7347 2.75061 16.7347H1.52612C0.672245 16.7347 0 17.4412 0 18.2951V18.4539C0 19.3078 0.672245 20 1.52612 20H2.75061C1.89673 20 1.22449 19.3078 1.22449 18.4539Z" fill="#CC593A"/>
<path d="M6.10668 13.9655C6.07853 13.9658 6.05038 13.9646 6.02235 13.962C5.95775 13.9553 5.89845 13.9232 5.85751 13.8728C5.81657 13.8224 5.79734 13.7577 5.80404 13.6931C5.81075 13.6285 5.84285 13.5692 5.89327 13.5283C5.94369 13.4873 6.00832 13.4681 6.07292 13.4748C6.09231 13.4764 6.97692 13.5322 8.08884 12.411C8.13469 12.3654 8.1967 12.3398 8.26136 12.3398C8.32601 12.3397 8.38805 12.3652 8.43396 12.4108C8.47986 12.4563 8.5059 12.5181 8.5064 12.5828C8.50689 12.6474 8.4818 12.7097 8.4366 12.7559C7.32896 13.8728 6.38802 13.9655 6.10668 13.9655Z" fill="#D37F8B"/>
<path d="M6.96662 16.0943C6.90805 16.0943 6.85142 16.0733 6.807 16.0352C6.76257 15.997 6.7333 15.9442 6.72447 15.8863C6.71565 15.8284 6.72787 15.7693 6.75891 15.7196C6.78996 15.6699 6.83777 15.6331 6.89368 15.6156C7.90143 15.3008 8.52707 14.843 8.87441 14.5144C9.24968 14.1593 9.39013 13.8744 9.39151 13.8716C9.41975 13.8135 9.46976 13.769 9.53067 13.7476C9.59157 13.7263 9.65845 13.7298 9.71676 13.7575C9.77507 13.7852 9.8201 13.8347 9.84204 13.8954C9.86399 13.9561 9.86109 14.023 9.83396 14.0816C9.80849 14.1357 9.18527 15.413 7.03968 16.0831C7.01603 16.0905 6.9914 16.0943 6.96662 16.0943Z" fill="#C9616B"/>
<path d="M12.5272 14.099C12.4945 14.0429 12.4409 14.0021 12.3781 13.9855C12.3153 13.969 12.2486 13.978 12.1925 14.0107L9.40284 15.6362C9.34673 15.6689 9.3059 15.7225 9.28934 15.7853C9.27278 15.8481 9.28185 15.915 9.31456 15.9711C9.34726 16.0272 9.40092 16.068 9.46372 16.0846C9.52653 16.1011 9.59334 16.0921 9.64946 16.0594L10.4164 15.6125C10.9155 15.8646 11.4673 15.9946 12.0264 15.9917C12.0936 15.9917 12.1624 15.9899 12.2325 15.9859C12.2648 15.9844 12.2965 15.9765 12.3258 15.9627C12.355 15.9489 12.3812 15.9294 12.4029 15.9054C12.4246 15.8814 12.4413 15.8533 12.4521 15.8228C12.4629 15.7923 12.4675 15.76 12.4657 15.7277C12.4639 15.6954 12.4557 15.6638 12.4416 15.6347C12.4275 15.6055 12.4078 15.5795 12.3836 15.558C12.3594 15.5366 12.3312 15.5201 12.3006 15.5096C12.27 15.4991 12.2376 15.4948 12.2053 15.4969C11.7749 15.521 11.3441 15.4566 10.9395 15.3076L12.4391 14.4339C12.4952 14.4011 12.536 14.3474 12.5525 14.2846C12.569 14.2218 12.5599 14.155 12.5272 14.099Z" fill="#C9616B"/>
<path d="M1.45276 18.102H1.34255C1.2776 18.102 1.21531 18.0762 1.16939 18.0303C1.12346 17.9844 1.09766 17.9221 1.09766 17.8571C1.09766 17.7922 1.12346 17.7299 1.16939 17.684C1.21531 17.638 1.2776 17.6122 1.34255 17.6122H1.45276C1.51771 17.6122 1.58 17.638 1.62593 17.684C1.67185 17.7299 1.69766 17.7922 1.69766 17.8571C1.69766 17.9221 1.67185 17.9844 1.62593 18.0303C1.58 18.0762 1.51771 18.102 1.45276 18.102Z" fill="#F4F8FC"/>
<path d="M5.37494 18.102H2.24392C2.17897 18.102 2.11668 18.0762 2.07075 18.0303C2.02483 17.9844 1.99902 17.9221 1.99902 17.8571C1.99902 17.7922 2.02483 17.7299 2.07075 17.684C2.11668 17.638 2.17897 17.6122 2.24392 17.6122H5.37494C5.43989 17.6122 5.50218 17.638 5.54811 17.684C5.59404 17.7299 5.61984 17.7922 5.61984 17.8571C5.61984 17.9221 5.59404 17.9844 5.54811 18.0303C5.50218 18.0762 5.43989 18.102 5.37494 18.102Z" fill="#F4F8FC"/>
<path d="M4.89822 11.7077C4.96317 11.7077 5.02546 11.6819 5.07139 11.636C5.11731 11.5901 5.14312 11.5278 5.14312 11.4628V9.61387C5.14312 9.60162 5.15091 9.58966 5.14916 9.57787C5.06601 9.58946 4.98087 9.60138 4.90271 9.61382C4.81816 9.62743 4.73503 9.64144 4.65332 9.65587V11.4628C4.65331 11.495 4.65965 11.5268 4.67195 11.5565C4.68426 11.5863 4.70229 11.6133 4.72503 11.636C4.74778 11.6587 4.77478 11.6768 4.80449 11.6891C4.83421 11.7014 4.86605 11.7077 4.89822 11.7077Z" fill="#BA475A"/>
<path d="M5.38823 13.3469C5.38823 13.282 5.36243 13.2197 5.3165 13.1738C5.27058 13.1278 5.20829 13.102 5.14334 13.102C5.07838 13.102 5.01609 13.1278 4.97017 13.1738C4.92424 13.2197 4.89844 13.282 4.89844 13.3469V14.9175L5.14774 15.0567L5.35836 15.1778C5.37871 15.1407 5.38901 15.099 5.38823 15.0567V13.3469Z" fill="#BA475A"/>
<path d="M10.0968 16.3743C10.1162 16.4092 10.1264 16.4486 10.1262 16.4886C10.1255 16.557 10.0982 16.6224 10.05 16.6711C10.0019 16.7197 9.93668 16.7476 9.86827 16.749H7.70215C7.98378 16.7335 8.19766 16.4555 7.98868 16.2135L8.29766 15.9845C8.43742 15.88 8.59799 15.8067 8.76851 15.7696C8.93903 15.7324 9.11554 15.7323 9.2861 15.7693C9.45666 15.8063 9.6173 15.8794 9.75716 15.9838C9.89703 16.0881 10.0129 16.2213 10.0968 16.3743Z" fill="#EFC597"/>
<path d="M7.98922 16.2135C8.1982 16.4555 7.98433 16.7335 7.70269 16.749H6.11984V16.7416C6.07674 16.7417 6.03438 16.7305 5.99694 16.7092C5.9595 16.6878 5.92829 16.6571 5.90639 16.62C5.88449 16.5828 5.87267 16.5406 5.87209 16.4976C5.87152 16.4545 5.8822 16.412 5.9031 16.3743C5.97402 16.2461 6.07197 16.1348 6.19016 16.0482C6.30835 15.9615 6.44396 15.9017 6.58759 15.8727C6.71247 15.8477 6.84018 15.8398 6.96718 15.8494C7.3378 15.8743 7.67739 16.0192 7.81698 16.0861C7.87199 16.1116 7.92234 16.1461 7.96596 16.1882C7.97412 16.1963 7.98188 16.2049 7.98922 16.2135Z" fill="#FFD8B7"/>
<path d="M10.7433 14.0179C10.7162 14.0355 10.6929 14.0583 10.6746 14.085C10.6564 14.1117 10.6436 14.1417 10.637 14.1733C10.6304 14.205 10.6301 14.2376 10.6362 14.2693C10.6423 14.3011 10.6546 14.3313 10.6724 14.3582C10.6902 14.3852 10.7132 14.4084 10.74 14.4264C10.7668 14.4445 10.7969 14.457 10.8286 14.4634C10.8602 14.4697 10.8929 14.4698 10.9246 14.4635C10.9563 14.4571 10.9864 14.4446 11.0132 14.4266C11.9262 13.8237 12.5767 12.9001 12.8943 11.756C13.0166 11.3164 13.0859 10.8638 13.1006 10.4077C13.0251 10.3328 12.9431 10.2646 12.8555 10.2041C12.7884 10.1577 12.7186 10.1151 12.6467 10.0765C12.621 10.1184 12.6085 10.167 12.6109 10.2161C12.6122 10.2408 12.7079 12.7206 10.7433 14.0179Z" fill="#C9616B"/>
<path d="M10.4173 12.4769C10.3704 12.5218 10.3433 12.5835 10.3419 12.6485C10.3404 12.7134 10.3649 12.7762 10.4098 12.8231C10.4547 12.8701 10.5165 12.8972 10.5814 12.8986C10.6463 12.9 10.7092 12.8756 10.7561 12.8307C11.877 11.7572 11.9946 10.1687 12.0068 9.82107C11.9293 9.79799 11.848 9.77587 11.7631 9.7547C11.687 9.73572 11.6073 9.71756 11.5248 9.69997C11.5206 9.71794 11.5185 9.73633 11.5184 9.75478C11.5183 9.77144 11.5058 11.4347 10.4173 12.4769Z" fill="#C9616B"/>
</svg>
