<svg width="20" height="20" viewBox="0 0 20 20" fill="none" xmlns="http://www.w3.org/2000/svg">
<g clip-path="url(#clip0_4519_85479)">
<path d="M5.03883 4.03123L6.77321 4.98045C6.99586 5.10155 7.0779 5.37889 6.9568 5.60155C6.91383 5.67967 6.85133 5.74217 6.77321 5.78514L5.03883 6.73045C4.96071 6.77342 4.89821 6.83592 4.85524 6.91405L3.90602 8.64842C3.78493 8.87108 3.50758 8.95311 3.28493 8.83202C3.2068 8.78905 3.1443 8.72655 3.10133 8.64842L2.15602 6.91405C2.11305 6.83592 2.05055 6.77342 1.97243 6.73045L0.238053 5.78514C0.0153964 5.66405 -0.0666349 5.3867 0.0544589 5.16405C0.0974276 5.08592 0.159928 5.02342 0.238053 4.98045L1.97243 4.03123C2.05055 3.98827 2.11305 3.92577 2.15602 3.84764L3.10524 2.11717C3.22633 1.89452 3.50758 1.81248 3.73024 1.93748C3.80446 1.98045 3.86696 2.04295 3.90993 2.11717L4.85915 3.84764C4.89821 3.92577 4.96071 3.98827 5.03883 4.03123Z" fill="white"/>
<path d="M17.949 13.2893L19.6834 14.2385C19.906 14.3596 19.9881 14.637 19.867 14.8596C19.824 14.9378 19.7615 15.0003 19.6834 15.0432L17.949 15.9924C17.8709 16.0354 17.8084 16.0979 17.7654 16.176L16.8162 17.9104C16.6951 18.1331 16.4138 18.2151 16.1912 18.094C16.1131 18.051 16.0506 17.9885 16.0076 17.9104L15.0662 16.1721C15.0232 16.094 14.9607 16.0315 14.8826 15.9885L13.1482 15.0393C12.9256 14.9182 12.8435 14.637 12.9646 14.4143C13.0076 14.3362 13.0701 14.2737 13.1482 14.2307L14.8826 13.2815C14.9607 13.2385 15.0232 13.176 15.0662 13.0979L16.0154 11.3674C16.1365 11.1448 16.4177 11.0628 16.6404 11.1839C16.7185 11.2268 16.781 11.2893 16.824 11.3674L17.7732 13.1018C17.8084 13.1839 17.8709 13.2464 17.949 13.2893Z" fill="white"/>
<path d="M10.4414 2.04737L11.5781 2.66846C11.7227 2.75049 11.7773 2.93408 11.6992 3.07862C11.6719 3.1294 11.6289 3.16846 11.5781 3.19971L10.4414 3.8208C10.3906 3.84815 10.3477 3.89112 10.3203 3.9419L9.69922 5.07861C9.61719 5.22315 9.4336 5.27783 9.28906 5.19971C9.23828 5.17237 9.19922 5.1294 9.16797 5.07861L8.54688 3.9419C8.51953 3.89112 8.47656 3.84815 8.42578 3.8208L7.28906 3.19971C7.14453 3.12158 7.08985 2.93799 7.16797 2.78955C7.19531 2.73877 7.23828 2.6958 7.28906 2.66846L8.42578 2.04737C8.47656 2.02002 8.51953 1.97705 8.54688 1.92627L9.16797 0.789553C9.25 0.645022 9.4336 0.590334 9.57813 0.668459C9.62891 0.695803 9.66797 0.738772 9.69922 0.789553L10.3203 1.92627C10.3477 1.97705 10.3906 2.02002 10.4414 2.04737Z" fill="white"/>
<path d="M19.5547 2.56641L17.9492 0.960942C17.3555 0.367192 16.3906 0.363286 15.793 0.957036C15.793 0.957036 15.793 0.957036 15.7891 0.960942L1.47656 15.2773C0.882814 15.8711 0.878907 16.8359 1.47656 17.4336L3.08203 19.0391C3.67578 19.6328 4.64063 19.6367 5.23828 19.0391L19.5547 4.72266C20.1484 4.12891 20.1484 3.16407 19.5547 2.56641ZM13.9727 7.98047L12.5352 6.54297L16.7734 2.30079L18.2109 3.73829L13.9727 7.98047Z" fill="white"/>
</g>
<defs>
<clipPath id="clip0_4519_85479">
<rect width="20" height="20" fill="white"/>
</clipPath>
</defs>
</svg>
