<svg width="20" height="20" viewBox="0 0 20 20" fill="none" xmlns="http://www.w3.org/2000/svg">
<path d="M10.4426 17.9835C19.1872 17.4816 20.8129 5.16631 12.5155 2.40082C10.2195 1.6324 7.58696 1.98191 5.57829 3.33691H5.57885C4.64793 3.95586 3.8571 4.76309 3.25737 5.70651C2.65763 6.64993 2.26233 7.7086 2.09694 8.81421L2.09644 8.81386C1.30947 13.7491 5.45059 18.3098 10.4426 17.9835ZM16.9146 12.9148C16.6292 13.5906 16.2455 14.2206 15.7761 14.7844C15.7429 14.5868 15.8344 14.3579 15.6981 14.1735C15.5503 13.8853 15.4134 13.5913 15.2593 13.3065C15.202 13.2006 15.2178 13.1397 15.3022 13.0635C16.2063 12.2702 15.4004 12.692 15.4892 11.5582C15.4924 11.5276 15.4863 11.4967 15.4717 11.4695C15.4572 11.4424 15.4348 11.4202 15.4075 11.4059C14.979 11.1323 14.4195 11.0383 13.9767 11.3424C13.4247 11.6033 12.6374 11.4037 12.4589 10.7702C12.301 10.3491 12.3204 9.92387 12.3162 9.49382C12.3417 9.2619 12.6598 9.22297 12.6082 8.95491C12.6205 8.61453 12.5095 8.25523 12.8314 8.03308C12.8561 8.01131 12.8855 7.99559 12.9173 7.98717C12.9491 7.97875 12.9824 7.97785 13.0146 7.98456C13.3087 8.02013 13.6059 7.95082 13.854 7.78882C14.117 7.62205 14.4418 7.73001 14.7332 7.69204C14.872 7.68215 14.9749 7.72294 15.0604 7.83105C15.2285 8.04331 15.4915 8.10564 15.7124 8.23457C15.7868 8.27793 15.8267 8.22326 15.8615 8.1783C16.0471 7.93885 16.3316 7.8584 16.581 7.72071C16.7168 7.64287 16.9892 7.94004 17.221 7.95059C17.6831 9.56786 17.5759 11.3682 16.9146 12.9148ZM16.806 6.83646C16.5291 6.87289 16.7153 6.60985 16.5724 6.47223C16.4289 6.34417 16.2925 6.20848 16.1636 6.06573C16.0968 5.99445 16.0537 5.98299 15.9765 6.05913C15.7693 6.26417 15.7809 6.24241 16.0226 6.48743C16.3047 6.79759 16.5174 6.79241 16.0069 7.00794C15.8907 7.06025 15.781 7.17944 15.6542 7.00722C15.5775 6.903 15.473 6.83298 15.4854 6.67243C15.5045 6.42488 15.3156 6.2454 15.2282 6.03166C15.2021 5.96789 15.156 6.01282 15.1314 6.04422C14.9475 6.2806 14.6698 6.37197 14.4182 6.50328C13.9837 6.88322 14.0829 6.84183 13.5063 6.82532C13.4529 6.82761 13.4372 6.76324 13.414 6.72562C13.1237 6.2503 13.18 6.13443 13.4808 5.6857C13.5914 5.61932 14.0803 5.69593 14.1727 5.79246C14.2143 5.83579 14.2484 5.88628 14.3083 5.96183C14.3544 5.77782 14.331 5.63684 14.3358 5.49796C14.4138 4.92809 14.8926 5.1849 15.2325 5.06113C15.3932 4.93832 15.4591 4.87719 15.4251 4.81693C15.9933 5.40956 16.4599 6.09191 16.806 6.83646ZM15.3786 4.76923C15.1466 4.61817 14.6311 4.45891 14.6174 4.08563C14.8865 4.29574 15.1408 4.52415 15.3786 4.76923ZM4.70751 4.69702C5.14003 4.26387 5.62395 3.8853 6.14848 3.56977C6.32686 3.66083 6.45412 3.99583 6.67787 3.87679C6.91651 3.75157 7.17085 3.65225 7.34217 3.42834C7.43922 3.31044 7.60906 3.40068 7.73582 3.36491C8.2342 3.29744 8.36894 3.86489 8.55536 4.20247C8.5389 4.21632 8.53024 4.2296 8.52308 4.22878C8.09064 4.17999 7.69412 4.31884 7.30223 4.46974C7.17349 4.51932 7.07426 4.52353 6.99372 4.39957C6.89419 4.24627 6.7663 4.24185 6.60751 4.30797C6.46043 4.41194 5.93201 4.4299 5.96852 4.63855C6.00438 4.83458 5.84961 5.1687 6.20148 5.10191C6.36636 5.04455 6.5081 5.53178 6.60886 5.25166C6.82508 4.37561 7.73661 5.1401 8.43946 4.58033C8.69804 4.42691 8.91071 4.93226 9.01119 5.11027C9.08755 5.27728 9.14278 5.47391 9.41128 5.41566C9.24291 5.58409 9.07339 5.75139 8.90691 5.92163C8.85861 5.97103 8.81472 5.9552 8.76049 5.93636C8.55118 5.8637 8.33901 5.79911 8.13042 5.72441C8.03092 5.68877 7.98319 5.68529 7.98545 5.81861C8.15576 6.73548 7.3747 5.85121 6.83227 6.5388C6.15541 7.21904 6.67922 7.78989 5.74898 8.50501C5.69337 8.55607 5.64718 8.56222 5.5922 8.52184C5.18808 8.23498 4.28013 8.07911 3.97825 8.54803C3.97392 8.56216 3.97287 8.57709 3.97516 8.59168C3.97746 8.60628 3.98305 8.62016 3.99151 8.63228C4.15318 8.89142 4.16587 9.3274 4.47283 8.8927C4.5642 8.81483 4.67153 8.84105 4.7651 8.8566C4.86354 8.87295 4.81465 8.9772 4.8122 9.03783C4.82611 9.27961 5.17389 9.32269 5.10547 9.59486C5.06644 9.79177 5.31447 9.68294 5.42346 9.71597C5.59964 9.74138 5.73331 9.68244 5.84625 9.54485C5.93191 9.4405 6.4236 9.3696 6.53683 9.43674C6.6266 9.5272 6.66431 9.66853 6.72871 9.77899C6.83575 9.99377 6.84037 9.9981 6.99793 9.82835C7.35997 9.54415 7.86886 9.76901 8.21335 9.96635C8.48398 10.118 8.39459 10.6592 8.79773 10.5814C8.87516 10.5631 8.91705 10.6291 8.9595 10.6769C9.25233 11.0351 9.72515 10.9923 9.89835 11.4835C10.0099 11.6884 9.99801 11.868 9.90319 12.0707C9.8358 12.4515 9.64857 12.732 9.25321 12.8386C8.93972 12.9512 9.46862 13.4627 8.75104 13.6667C8.56701 13.7068 8.54317 13.8477 8.567 14.013C8.64312 14.4387 8.53975 14.76 8.07152 14.8722C7.93305 14.9179 7.95773 15.1021 7.89201 15.207C7.56897 15.7957 7.86262 16.2253 8.27401 16.6376C7.91292 16.6589 7.52158 16.6956 7.39677 16.3069C7.24084 15.854 7.09973 15.3972 6.8685 14.9738C6.79085 14.8316 6.84084 14.6664 6.83883 14.5122C6.78247 13.8813 6.13821 13.4091 6.25922 12.7368C6.30613 12.4001 5.82591 12.881 5.32869 12.2682C5.16296 12.0716 4.77735 11.5965 4.84394 11.3502C4.98006 11.0109 4.99441 10.6016 5.30866 10.3661C5.44252 10.262 5.4547 9.93756 5.20504 10.0005C4.56373 10.1078 4.70076 9.62589 4.32516 9.71739C4.07082 9.74445 3.88723 9.66109 3.68957 9.48314C3.09655 8.93773 2.92655 9.34185 2.58678 8.93748C2.8148 7.33131 3.55917 5.84292 4.70751 4.69702Z" fill="#4284F3"/>
</svg>
