<svg width="24" height="24" viewBox="0 0 24 24" fill="none" xmlns="http://www.w3.org/2000/svg">
<path d="M17.4836 12.528C19.3843 12.528 20.9252 10.9871 20.9252 9.08641C20.9252 7.18566 19.3843 5.64481 17.4836 5.64481C15.5828 5.64481 14.042 7.18566 14.042 9.08641C14.042 10.9871 15.5828 12.528 17.4836 12.528Z" fill="#FFB236"/>
<path d="M6.51582 12.528C8.41656 12.528 9.95742 10.9871 9.95742 9.08641C9.95742 7.18566 8.41656 5.64481 6.51582 5.64481C4.61508 5.64481 3.07422 7.18566 3.07422 9.08641C3.07422 10.9871 4.61508 12.528 6.51582 12.528Z" fill="#FFB236"/>
<path d="M19.2293 17.8632L12.0293 18.5256L4.82928 17.8632C4.82928 17.8632 3.60048 20.4288 4.84608 21.864C6.49968 23.784 8.64048 22.1424 12.0461 22.104C15.4421 22.1376 17.5853 23.784 19.2461 21.864C20.4701 20.4288 19.2293 17.8632 19.2293 17.8632Z" fill="#CC7A21"/>
<path d="M5.40527 16.0488H18.6053V17.8656C18.6053 18.6294 18.3018 19.362 17.7617 19.9021C17.2216 20.4422 16.4891 20.7456 15.7253 20.7456H8.28527C7.52145 20.7456 6.78891 20.4422 6.24881 19.9021C5.7087 19.362 5.40527 18.6294 5.40527 17.8656V16.0488Z" fill="#FFEADC"/>
<path d="M6.35539 16.0488H17.6354V16.8C17.6354 17.5638 17.332 18.2964 16.7919 18.8365C16.2517 19.3766 15.5192 19.68 14.7554 19.68H9.23059C8.46676 19.68 7.73422 19.3766 7.19412 18.8365C6.65401 18.2964 6.35059 17.5638 6.35059 16.8V16.0488H6.35539Z" fill="#D01B2C"/>
<path d="M11.9999 7.188C14.3804 7.188 16.3103 6.20374 16.3103 4.9896C16.3103 3.77546 14.3804 2.7912 11.9999 2.7912C9.61928 2.7912 7.68945 3.77546 7.68945 4.9896C7.68945 6.20374 9.61928 7.188 11.9999 7.188Z" fill="#CC7A21"/>
<path d="M11.9998 7.1904C13.8356 7.1904 15.3238 6.43072 15.3238 5.4936C15.3238 4.55648 13.8356 3.7968 11.9998 3.7968C10.164 3.7968 8.67578 4.55648 8.67578 5.4936C8.67578 6.43072 10.164 7.1904 11.9998 7.1904Z" fill="#D01B2C"/>
<path d="M3.79895 12.9144V13.4592C3.79895 13.4592 3.74135 16.7712 6.13175 16.32C7.74423 15.984 9.31118 15.4579 10.7997 14.7528V10.032L3.79895 12.9144Z" fill="#A01223"/>
<path d="M3.36035 5.22479C3.36035 5.22479 3.84035 7.21679 4.58915 7.51679C5.33795 7.81679 6.93875 6.66719 6.93875 6.66719L3.36035 5.22479Z" fill="#CC7A21"/>
<path d="M6.74387 12.3C8.5187 12.3 9.95747 10.8612 9.95747 9.0864C9.95747 7.31158 8.5187 5.8728 6.74387 5.8728C4.96905 5.8728 3.53027 7.31158 3.53027 9.0864C3.53027 10.8612 4.96905 12.3 6.74387 12.3Z" fill="white"/>
<path d="M6.74363 12.0312C8.37 12.0312 9.68843 10.7128 9.68843 9.0864C9.68843 7.46003 8.37 6.1416 6.74363 6.1416C5.11726 6.1416 3.79883 7.46003 3.79883 9.0864C3.79883 10.7128 5.11726 12.0312 6.74363 12.0312Z" fill="#D01B2C"/>
<path d="M6.74408 11.7504C8.21536 11.7504 9.40808 10.5577 9.40808 9.08639C9.40808 7.61511 8.21536 6.42239 6.74408 6.42239C5.27279 6.42239 4.08008 7.61511 4.08008 9.08639C4.08008 10.5577 5.27279 11.7504 6.74408 11.7504Z" fill="white"/>
<path d="M6.74366 10.9824C7.79079 10.9824 8.63966 10.1335 8.63966 9.0864C8.63966 8.03927 7.79079 7.1904 6.74366 7.1904C5.69652 7.1904 4.84766 8.03927 4.84766 9.0864C4.84766 10.1335 5.69652 10.9824 6.74366 10.9824Z" fill="#2D2023"/>
<path d="M8.67155 9.18719C8.67155 9.18719 8.64035 7.91999 6.22355 6.87839C3.80675 5.83679 3.26915 5.80559 3.31955 4.68239C3.36995 3.55919 4.08035 1.33919 7.17395 2.46239C10.2676 3.58559 11.5684 8.35679 11.5204 8.76479C11.4724 9.17279 10.1692 10.8 8.67155 9.18719Z" fill="#FFB236"/>
<path d="M6.74373 10.3272C7.429 10.3272 7.98453 9.77167 7.98453 9.0864C7.98453 8.40112 7.429 7.8456 6.74373 7.8456C6.05845 7.8456 5.50293 8.40112 5.50293 9.0864C5.50293 9.77167 6.05845 10.3272 6.74373 10.3272Z" fill="#D01B2C"/>
<path d="M6.74408 9.684C7.07413 9.684 7.34168 9.41645 7.34168 9.0864C7.34168 8.75636 7.07413 8.4888 6.74408 8.4888C6.41404 8.4888 6.14648 8.75636 6.14648 9.0864C6.14648 9.41645 6.41404 9.684 6.74408 9.684Z" fill="#2D2023"/>
<path d="M6.23065 9.0936C6.42814 9.0936 6.58825 8.9335 6.58825 8.736C6.58825 8.53851 6.42814 8.3784 6.23065 8.3784C6.03315 8.3784 5.87305 8.53851 5.87305 8.736C5.87305 8.9335 6.03315 9.0936 6.23065 9.0936Z" fill="white"/>
<path d="M20.201 12.9144V13.4592C20.201 13.4592 20.2586 16.7712 17.8682 16.3224C16.2556 15.9856 14.6887 15.4587 13.2002 14.7528V10.032L20.201 12.9144Z" fill="#A01223"/>
<path d="M12.0001 12.6552C13.6225 12.6552 14.9377 11.8858 14.9377 10.9368C14.9377 9.98775 13.6225 9.2184 12.0001 9.2184C10.3777 9.2184 9.0625 9.98775 9.0625 10.9368C9.0625 11.8858 10.3777 12.6552 12.0001 12.6552Z" fill="#FFEADC"/>
<path d="M8.52737 9.88081C8.52737 9.88081 7.89377 10.7904 6.12737 10.7184C4.36097 10.6464 3.50177 10.356 3.21617 11.2584C2.93057 12.1608 2.84897 12.876 5.29697 13.3776C7.74497 13.8792 10.1498 11.9376 10.0754 10.4976C10.001 9.05761 8.52737 9.88081 8.52737 9.88081Z" fill="#FFB236"/>
<path d="M12.3384 2.4C12.1137 2.3712 11.8863 2.3712 11.6616 2.4H10.1328V3.5592C10.1328 4.212 10.9704 5.2392 12 5.2392C13.0296 5.2392 13.8672 4.2144 13.8672 3.5592V2.4H12.3384Z" fill="#D1C6BF"/>
<path d="M20.6399 5.22479C20.6399 5.22479 20.1599 7.21679 19.4111 7.51679C18.6623 7.81679 17.0615 6.66719 17.0615 6.66719L20.6399 5.22479Z" fill="#CC7A21"/>
<path d="M17.2556 12.3C19.0304 12.3 20.4692 10.8612 20.4692 9.0864C20.4692 7.31158 19.0304 5.8728 17.2556 5.8728C15.4808 5.8728 14.042 7.31158 14.042 9.0864C14.042 10.8612 15.4808 12.3 17.2556 12.3Z" fill="white"/>
<path d="M17.2563 12.0312C18.8827 12.0312 20.2011 10.7128 20.2011 9.0864C20.2011 7.46003 18.8827 6.1416 17.2563 6.1416C15.63 6.1416 14.3115 7.46003 14.3115 9.0864C14.3115 10.7128 15.63 12.0312 17.2563 12.0312Z" fill="#D01B2C"/>
<path d="M17.2558 11.7504C18.7271 11.7504 19.9198 10.5577 19.9198 9.08639C19.9198 7.61511 18.7271 6.42239 17.2558 6.42239C15.7845 6.42239 14.5918 7.61511 14.5918 9.08639C14.5918 10.5577 15.7845 11.7504 17.2558 11.7504Z" fill="white"/>
<path d="M17.2564 10.9824C18.3035 10.9824 19.1524 10.1335 19.1524 9.0864C19.1524 8.03927 18.3035 7.1904 17.2564 7.1904C16.2092 7.1904 15.3604 8.03927 15.3604 9.0864C15.3604 10.1335 16.2092 10.9824 17.2564 10.9824Z" fill="#2D2023"/>
<path d="M15.4727 9.88081C15.4727 9.88081 16.1063 10.7904 17.8727 10.7184C19.6391 10.6464 20.5127 10.356 20.7863 11.2584C21.0599 12.1608 21.1535 12.876 18.7055 13.3776C16.2575 13.8792 13.8527 11.9376 13.9295 10.4976C14.0063 9.05761 15.4727 9.88081 15.4727 9.88081Z" fill="#FFB236"/>
<path d="M15.3286 9.18719C15.3286 9.18719 15.3598 7.91999 17.7766 6.87839C20.1934 5.83679 20.731 5.80559 20.6806 4.68239C20.6302 3.55919 19.9198 1.33919 16.8262 2.46239C13.7326 3.58559 12.4318 8.35679 12.4798 8.76479C12.5278 9.17279 13.831 10.8 15.3286 9.18719Z" fill="#FFB236"/>
<path d="M14.6619 10.9752C15.31 10.9752 15.8355 10.4498 15.8355 9.80161C15.8355 9.15344 15.31 8.62801 14.6619 8.62801C14.0137 8.62801 13.4883 9.15344 13.4883 9.80161C13.4883 10.4498 14.0137 10.9752 14.6619 10.9752Z" fill="#D01B2C"/>
<path d="M15.3608 9.89486C15.5471 9.72537 15.5341 9.40748 15.3316 9.18482C15.1291 8.96217 14.8138 8.91907 14.6275 9.08856C14.4411 9.25805 14.4542 9.57594 14.6567 9.7986C14.8592 10.0213 15.1744 10.0644 15.3608 9.89486Z" fill="#FFA73E"/>
<path d="M15.2146 9.6709C15.3019 9.59153 15.288 9.43418 15.1837 9.31945C15.0793 9.20472 14.924 9.17605 14.8367 9.25542C14.7495 9.3348 14.7633 9.49215 14.8676 9.60688C14.972 9.72161 15.1273 9.75027 15.2146 9.6709Z" fill="#D01B2C"/>
<path d="M9.33864 10.9752C9.9868 10.9752 10.5122 10.4498 10.5122 9.80161C10.5122 9.15344 9.9868 8.62801 9.33864 8.62801C8.69048 8.62801 8.16504 9.15344 8.16504 9.80161C8.16504 10.4498 8.69048 10.9752 9.33864 10.9752Z" fill="#D01B2C"/>
<path d="M9.34915 9.80231C9.55164 9.57966 9.56472 9.26176 9.37836 9.09227C9.192 8.92278 8.87676 8.96588 8.67427 9.18854C8.47177 9.41119 8.45869 9.72909 8.64506 9.89858C8.83142 10.0681 9.14665 10.025 9.34915 9.80231Z" fill="#FFA73E"/>
<path d="M9.14071 9.61328C9.24506 9.49855 9.25889 9.3412 9.17162 9.26183C9.08435 9.18245 8.92901 9.21112 8.82467 9.32585C8.72033 9.44058 8.70649 9.59793 8.79376 9.6773C8.88104 9.75667 9.03637 9.72801 9.14071 9.61328Z" fill="#D01B2C"/>
<path d="M11.9999 10.7184C13.3466 10.7184 14.4383 9.62669 14.4383 8.28C14.4383 6.93331 13.3466 5.8416 11.9999 5.8416C10.6532 5.8416 9.56152 6.93331 9.56152 8.28C9.56152 9.62669 10.6532 10.7184 11.9999 10.7184Z" fill="white"/>
<path d="M12.0004 10.2072C13.0648 10.2072 13.9276 9.34436 13.9276 8.28C13.9276 7.21564 13.0648 6.3528 12.0004 6.3528C10.9361 6.3528 10.0732 7.21564 10.0732 8.28C10.0732 9.34436 10.9361 10.2072 12.0004 10.2072Z" fill="#158777"/>
<path d="M11.9996 9.3216C12.5749 9.3216 13.0412 8.85526 13.0412 8.28C13.0412 7.70474 12.5749 7.2384 11.9996 7.2384C11.4243 7.2384 10.958 7.70474 10.958 8.28C10.958 8.85526 11.4243 9.3216 11.9996 9.3216Z" fill="white"/>
<path d="M12.0004 8.7648C12.2682 8.7648 12.4852 8.54774 12.4852 8.28C12.4852 8.01225 12.2682 7.7952 12.0004 7.7952C11.7327 7.7952 11.5156 8.01225 11.5156 8.28C11.5156 8.54774 11.7327 8.7648 12.0004 8.7648Z" fill="#EE1D32"/>
<path d="M14.9207 13.0032C14.9207 14.2656 13.6127 13.92 11.9999 13.92C10.3871 13.92 9.0791 14.2656 9.0791 13.0032C9.0791 11.7408 10.3871 10.7184 11.9999 10.7184C13.6127 10.7184 14.9207 11.7408 14.9207 13.0032Z" fill="#158777"/>
<path d="M14.6403 13.7232C14.5809 13.4443 14.4216 13.1967 14.1923 13.0271C13.963 12.8575 13.6797 12.7776 13.3956 12.8023C13.1115 12.8271 12.8463 12.9549 12.6498 13.1616C12.4534 13.3684 12.3393 13.6398 12.3291 13.9248C13.3491 13.9488 14.2107 14.0616 14.6403 13.7232Z" fill="#0C514A"/>
<path d="M9.36035 13.7232C9.41977 13.4443 9.5791 13.1967 9.80836 13.0271C10.0376 12.8575 10.321 12.7776 10.6051 12.8023C10.8892 12.8271 11.1544 12.9549 11.3508 13.1616C11.5473 13.3684 11.6613 13.6398 11.6716 13.9248C10.6516 13.9488 9.78995 14.0616 9.36035 13.7232Z" fill="#0C514A"/>
<path d="M17.2564 10.3272C17.9417 10.3272 18.4972 9.77167 18.4972 9.0864C18.4972 8.40112 17.9417 7.8456 17.2564 7.8456C16.5711 7.8456 16.0156 8.40112 16.0156 9.0864C16.0156 9.77167 16.5711 10.3272 17.2564 10.3272Z" fill="#D01B2C"/>
<path d="M17.2558 9.684C17.5858 9.684 17.8534 9.41645 17.8534 9.0864C17.8534 8.75636 17.5858 8.4888 17.2558 8.4888C16.9258 8.4888 16.6582 8.75636 16.6582 9.0864C16.6582 9.41645 16.9258 9.684 17.2558 9.684Z" fill="#2D2023"/>
<path d="M17.7697 9.0936C17.9672 9.0936 18.1273 8.9335 18.1273 8.736C18.1273 8.53851 17.9672 8.3784 17.7697 8.3784C17.5722 8.3784 17.4121 8.53851 17.4121 8.736C17.4121 8.9335 17.5722 9.0936 17.7697 9.0936Z" fill="white"/>
<path d="M20.2004 13.4592C20.2004 13.4592 19.0868 15.8256 16.8164 15.2352C14.9252 14.7552 15.3212 14.1792 13.4372 13.8408C12.4848 13.67 11.5096 13.67 10.5572 13.8408C8.67318 14.1792 9.06918 14.7432 7.17798 15.2352C4.90758 15.8256 3.79398 13.4592 3.79398 13.4592C2.59398 13.9392 2.22438 15.5688 2.40438 16.9056C2.58438 18.2424 3.20118 18.6024 4.99878 18.7824C6.79638 18.9624 7.39878 18.3024 9.00438 17.4192C9.91371 16.9029 10.9501 16.6534 11.9948 16.6992C13.0394 16.6534 14.0759 16.9029 14.9852 17.4192C16.6004 18.2928 17.1908 18.9624 18.9908 18.7824C20.7908 18.6024 21.4124 18.24 21.5996 16.9056C21.7868 15.5712 21.4076 13.944 20.2004 13.4592Z" fill="#FFB236"/>
<path d="M16.817 15.2352C16.2644 15.1099 15.7391 14.8854 15.2666 14.5728C15.2666 14.5728 17.8634 16.6272 19.5026 15.8904C21.1418 15.1536 20.201 13.4592 20.201 13.4592C20.201 13.4592 19.0874 15.8256 16.817 15.2352Z" fill="#CC7A21"/>
<path d="M7.18297 15.2352C7.73555 15.1099 8.26083 14.8854 8.73337 14.5728C8.73337 14.5728 6.13657 16.6272 4.49737 15.8904C2.85817 15.1536 3.79897 13.4592 3.79897 13.4592C3.79897 13.4592 4.91257 15.8256 7.18297 15.2352Z" fill="#CC7A21"/>
<path d="M16.4539 17.7384C16.1181 17.2309 15.6889 16.7919 15.1891 16.4448C14.2566 15.7846 13.1421 15.43 11.9995 15.43C10.8569 15.43 9.74248 15.7846 8.80993 16.4448C8.31014 16.7919 7.88092 17.2309 7.54513 17.7384C7.40485 17.916 7.3348 18.1389 7.34833 18.3648C7.82833 18.1248 8.32993 17.7888 9.00913 17.4192C9.91845 16.9029 10.9549 16.6534 11.9995 16.6992C13.0442 16.6534 14.0806 16.9029 14.9899 17.4192C15.6691 17.7888 16.1683 18.1176 16.6507 18.3648C16.6643 18.1389 16.5942 17.916 16.4539 17.7384Z" fill="#CC7A21"/>
<path d="M13.8672 2.4C13.8672 3.0504 13.0296 4.08 12 4.08C10.9704 4.08 10.1328 3.0528 10.1328 2.4C10.1328 1.7472 10.9704 1.2 12 1.2C13.0296 1.2 13.8672 1.7352 13.8672 2.4Z" fill="#FFEADC"/>
<path d="M13.0223 2.5008C12.9977 2.75486 12.8793 2.99065 12.6903 3.16221C12.5013 3.33377 12.2552 3.42881 11.9999 3.42881C11.7447 3.42881 11.4986 3.33377 11.3096 3.16221C11.1205 2.99065 11.0022 2.75486 10.9775 2.5008C10.9775 2.1432 11.4359 1.8528 11.9999 1.8528C12.5639 1.8528 13.0223 2.1432 13.0223 2.5008Z" fill="#EE1D32"/>
</svg>
