<svg width="18" height="16" viewBox="0 0 18 16" fill="none" xmlns="http://www.w3.org/2000/svg">
<path d="M7.02019 15.8856C10.7698 15.8856 13.8094 12.8459 13.8094 9.09636C13.8094 5.34677 10.7698 2.30713 7.02019 2.30713C3.2706 2.30713 0.230957 5.34677 0.230957 9.09636C0.230957 12.8459 3.2706 15.8856 7.02019 15.8856Z" fill="#B0EF8F"/>
<path d="M7.09695 14.3438L7.01083 14.1971C5.69545 11.9559 2.19999 7.19986 2.16468 7.15209L2.11426 7.08359L3.30514 5.90667L7.07483 8.53894C9.44833 5.45898 11.6626 3.34352 13.107 2.10817C14.6871 0.756823 15.7156 0.134708 15.726 0.128746L15.7493 0.114746H17.7694L17.5765 0.286592C12.6138 4.70682 7.2348 14.1016 7.18122 14.196L7.09695 14.3438Z" fill="#009045"/>
</svg>
