<svg width="41" height="40" viewBox="0 0 41 40" fill="none" xmlns="http://www.w3.org/2000/svg">
<g clip-path="url(#clip0_3535_63634)">
<path d="M31.75 0H9.25C4.4175 0 0.5 3.9175 0.5 8.75V31.25C0.5 36.0825 4.4175 40 9.25 40H31.75C36.5825 40 40.5 36.0825 40.5 31.25V8.75C40.5 3.9175 36.5825 0 31.75 0Z" fill="#FF4B55"/>
<path d="M20.8563 11.4555L22.9004 17.5843L29.3609 17.6344C29.7222 17.6372 29.872 18.0982 29.5814 18.3128L24.3842 22.1507L26.3329 28.3105C26.4419 28.6549 26.0497 28.9398 25.7558 28.7298L20.4997 24.973L15.2436 28.7298C14.9497 28.9399 14.5575 28.655 14.6665 28.3105L16.6152 22.1508L11.418 18.3129C11.1274 18.0983 11.2772 17.6373 11.6384 17.6344L18.099 17.5844L20.1431 11.4555C20.2574 11.1127 20.742 11.1127 20.8563 11.4555Z" fill="#FFE15A"/>
</g>
<defs>
<clipPath id="clip0_3535_63634">
<rect width="40" height="40" fill="white" transform="translate(0.5)"/>
</clipPath>
</defs>
</svg>
